URWChanceryL-MediItal.ufo
<glyph name="exclam" format="1">
  <advance width="280"/>
  <unicode hex="0021"/>
  <outline>
    <contour>
      <point x="212" y="80" type="line"/>
      <point x="220" y="69" type="line" smooth="yes"/>
      <point x="223" y="64"/>
      <point x="227" y="58"/>
      <point x="230" y="54" type="curve"/>
      <point x="202" y="25"/>
      <point x="193" y="18"/>
      <point x="156" y="-9" type="curve"/>
      <point x="137" y="14"/>
      <point x="118" y="45"/>
      <point x="109" y="68" type="curve"/>
      <point x="136" y="89" type="line"/>
      <point x="145" y="96" type="line" smooth="yes"/>
      <point x="153" y="103"/>
      <point x="161" y="110"/>
      <point x="169" y="116" type="curve"/>
      <point x="174" y="121"/>
      <point x="179" y="125"/>
      <point x="183" y="128" type="curve"/>
      <point x="192" y="112"/>
      <point x="199" y="101"/>
      <point x="202" y="96" type="curve" smooth="yes"/>
    </contour>
    <contour>
      <point x="258" y="545" type="curve"/>
      <point x="306" y="568" type="line"/>
      <point x="347" y="587" type="line"/>
      <point x="291" y="418" type="line"/>
      <point x="281" y="384"/>
      <point x="270" y="351"/>
      <point x="259" y="318" type="curve"/>
      <point x="251" y="288"/>
      <point x="242" y="261"/>
      <point x="232" y="236" type="curve" smooth="yes"/>
      <point x="227" y="221"/>
      <point x="222" y="205"/>
      <point x="216" y="189" type="curve"/>
      <point x="183" y="168"/>
      <point x="182" y="168"/>
      <point x="161" y="156" type="curve"/>
      <point x="219" y="396"/>
      <point x="236" y="462"/>
    </contour>
  </outline>
</glyph>
<glyph name="quotedbl" format="1">
  <advance width="220"/>
  <unicode hex="0022"/>
  <outline>
    <contour>
      <point x="170" y="405" type="line"/>
      <point x="218" y="591" type="line"/>
      <point x="259" y="591" type="line"/>
      <point x="199" y="417" type="line"/>
    </contour>
    <contour>
      <point x="244" y="405" type="line"/>
      <point x="292" y="591" type="line"/>
      <point x="333" y="591" type="line"/>
      <point x="273" y="417" type="line"/>
    </contour>
  </outline>
</glyph>
<glyph name="numbersign" format="1">
  <advance width="440"/>
  <unicode hex="0023"/>
  <outline>
    <contour>
      <point x="215" y="40" type="line"/>
      <point x="131" y="-1" type="line"/>
      <point x="157" y="71"/>
      <point x="176" y="125"/>
      <point x="194" y="182" type="curve"/>
      <point x="63" y="170" type="line"/>
      <point x="85" y="205"/>
      <point x="92" y="215"/>
      <point x="110" y="238" type="curve"/>
      <point x="215" y="238" type="line"/>
      <point x="219" y="249"/>
      <point x="223" y="262"/>
      <point x="223" y="262" type="curve" smooth="yes"/>
      <point x="230" y="283"/>
      <point x="236" y="300"/>
      <point x="240" y="314" type="curve"/>
      <point x="245" y="327" type="line" smooth="yes"/>
      <point x="247" y="331"/>
      <point x="250" y="340"/>
      <point x="253" y="353" type="curve"/>
      <point x="122" y="343" type="line"/>
      <point x="129" y="354"/>
      <point x="140" y="368"/>
      <point x="154" y="387" type="curve" smooth="yes"/>
      <point x="155" y="387"/>
      <point x="163" y="398"/>
      <point x="170" y="406" type="curve"/>
      <point x="272" y="408" type="line"/>
      <point x="275" y="419"/>
      <point x="279" y="429"/>
      <point x="280" y="433" type="curve" smooth="yes"/>
      <point x="284" y="445"/>
      <point x="288" y="459"/>
      <point x="293" y="472" type="curve" smooth="yes"/>
      <point x="318" y="548" type="line"/>
      <point x="386" y="575" type="line"/>
      <point x="373" y="538"/>
      <point x="372" y="535"/>
      <point x="357" y="488" type="curve"/>
      <point x="330" y="410" type="line"/>
      <point x="437" y="412" type="line"/>
      <point x="439" y="420"/>
      <point x="442" y="428"/>
      <point x="445" y="436" type="curve" smooth="yes"/>
      <point x="451" y="451"/>
      <point x="453" y="458"/>
      <point x="459" y="475" type="curve" smooth="yes"/>
      <point x="465" y="492"/>
      <point x="466" y="497"/>
      <point x="482" y="548" type="curve"/>
      <point x="551" y="575" type="line"/>
      <point x="545" y="556"/>
      <point x="534" y="525"/>
      <point x="523" y="491" type="curve" smooth="yes"/>
      <point x="510" y="452"/>
      <point x="501" y="425"/>
      <point x="496" y="412" type="curve"/>
      <point x="596" y="412" type="line"/>
      <point x="570" y="379" type="line"/>
      <point x="482" y="372" type="line"/>
      <point x="461" y="302" type="line"/>
      <point x="449" y="266"/>
      <point x="449" y="265"/>
      <point x="441" y="238" type="curve"/>
      <point x="546" y="238" type="line"/>
      <point x="520" y="206" type="line"/>
      <point x="429" y="199" type="line"/>
      <point x="417" y="164"/>
      <point x="393" y="85"/>
      <point x="381" y="40" type="curve"/>
      <point x="297" y="-1" type="line"/>
      <point x="316" y="57"/>
      <point x="327" y="88"/>
      <point x="328" y="93" type="curve" smooth="yes"/>
      <point x="350" y="158" type="line" smooth="yes"/>
      <point x="352" y="161"/>
      <point x="357" y="177"/>
      <point x="364" y="194" type="curve"/>
      <point x="260" y="186" type="line"/>
    </contour>
    <contour>
      <point x="276" y="238" type="line"/>
      <point x="378" y="238" type="line"/>
      <point x="381" y="246"/>
      <point x="385" y="256"/>
      <point x="387" y="264" type="curve" smooth="yes"/>
      <point x="391" y="276"/>
      <point x="395" y="288"/>
      <point x="399" y="301" type="curve" smooth="yes"/>
      <point x="407" y="324"/>
      <point x="415" y="348"/>
      <point x="422" y="367" type="curve"/>
      <point x="315" y="359" type="line"/>
    </contour>
  </outline>
</glyph>
<glyph name="dollar" format="1">
  <advance width="440"/>
  <unicode hex="0024"/>
  <outline>
    <contour>
      <point x="60" y="5" type="curve"/>
      <point x="107" y="67" type="line"/>
      <point x="139" y="50"/>
      <point x="167" y="43"/>
      <point x="205" y="41" type="curve"/>
      <point x="234" y="164"/>
      <point x="240" y="189"/>
      <point x="259" y="263" type="curve"/>
      <point x="228" y="288"/>
      <point x="221" y="294"/>
      <point x="209" y="306" type="curve" smooth="yes"/>
      <point x="188" y="328"/>
      <point x="176" y="354"/>
      <point x="176" y="381" type="curve" smooth="yes"/>
      <point x="176" y="459"/>
      <point x="242" y="540"/>
      <point x="331" y="570" type="curve"/>
      <point x="340" y="618"/>
      <point x="346" y="648"/>
      <point x="348" y="662" type="curve"/>
      <point x="390" y="675" type="line"/>
      <point x="374" y="613"/>
      <point x="374" y="613"/>
      <point x="366" y="578" type="curve"/>
      <point x="375" y="579"/>
      <point x="384" y="579"/>
      <point x="390" y="579" type="curve" smooth="yes"/>
      <point x="419" y="579"/>
      <point x="441" y="568"/>
      <point x="461" y="543" type="curve"/>
      <point x="419" y="491" type="line"/>
      <point x="400" y="519"/>
      <point x="378" y="534"/>
      <point x="355" y="535" type="curve"/>
      <point x="305" y="333" type="line"/>
      <point x="377" y="286"/>
      <point x="399" y="257"/>
      <point x="399" y="210" type="curve" smooth="yes"/>
      <point x="399" y="129"/>
      <point x="328" y="41"/>
      <point x="226" y="-5" type="curve"/>
      <point x="222" y="-23"/>
      <point x="213" y="-65"/>
      <point x="200" y="-129" type="curve"/>
      <point x="194" y="-131"/>
      <point x="189" y="-133"/>
      <point x="188" y="-134" type="curve" smooth="yes"/>
      <point x="173" y="-139" type="line" smooth="yes"/>
      <point x="171" y="-139"/>
      <point x="165" y="-141"/>
      <point x="158" y="-144" type="curve"/>
      <point x="165" y="-119"/>
      <point x="176" y="-76"/>
      <point x="191" y="-12" type="curve"/>
      <point x="177" y="-13"/>
      <point x="166" y="-14"/>
      <point x="158" y="-14" type="curve" smooth="yes"/>
      <point x="127" y="-14"/>
      <point x="99" y="-8"/>
    </contour>
    <contour>
      <point x="276" y="208" type="line"/>
      <point x="262" y="148" type="line"/>
      <point x="237" y="42" type="line"/>
      <point x="270" y="52"/>
      <point x="285" y="59"/>
      <point x="303" y="77" type="curve"/>
      <point x="328" y="100"/>
      <point x="342" y="131"/>
      <point x="342" y="162" type="curve" smooth="yes"/>
      <point x="342" y="195"/>
      <point x="332" y="210"/>
      <point x="285" y="245" type="curve"/>
    </contour>
    <contour>
      <point x="280" y="348" type="curve"/>
      <point x="286" y="373"/>
      <point x="291" y="396"/>
      <point x="297" y="420" type="curve" smooth="yes"/>
      <point x="318" y="508" type="line" smooth="yes"/>
      <point x="318" y="511"/>
      <point x="321" y="521"/>
      <point x="324" y="536" type="curve"/>
      <point x="295" y="527"/>
      <point x="282" y="521"/>
      <point x="268" y="508" type="curve" smooth="yes"/>
      <point x="247" y="489"/>
      <point x="233" y="458"/>
      <point x="233" y="431" type="curve" smooth="yes"/>
      <point x="233" y="398"/>
      <point x="247" y="373"/>
    </contour>
  </outline>
</glyph>
<glyph name="quotesingle" format="1">
  <advance width="160"/>
  <unicode hex="0027"/>
  <outline>
    <contour>
      <point x="170" y="405" type="line"/>
      <point x="218" y="591" type="line"/>
      <point x="259" y="591" type="line"/>
      <point x="199" y="417" type="line"/>
    </contour>
  </outline>
</glyph>
<glyph name="plus" format="1">
  <advance width="520"/>
  <unicode hex="002B"/>
  <outline>
    <contour>
      <point x="335" y="192" type="line"/>
      <point x="335" y="14" type="line"/>
      <point x="281" y="14" type="line"/>
      <point x="281" y="192" type="line"/>
      <point x="103" y="192" type="line"/>
      <point x="103" y="246" type="line"/>
      <point x="281" y="246" type="line"/>
      <point x="281" y="424" type="line"/>
      <point x="335" y="424" type="line"/>
      <point x="335" y="246" type="line"/>
      <point x="513" y="246" type="line"/>
      <point x="513" y="192" type="line"/>
    </contour>
  </outline>
</glyph>
<glyph name="comma" format="1">
  <advance width="220"/>
  <unicode hex="002C"/>
  <outline>
    <contour>
      <point x="57" y="-98" type="curve"/>
      <point x="30" y="-87" type="line"/>
      <point x="106" y="-19"/>
      <point x="134" y="39"/>
      <point x="143" y="151" type="curve"/>
      <point x="178" y="161"/>
      <point x="179" y="162"/>
      <point x="215" y="173" type="curve"/>
      <point x="192" y="33"/>
      <point x="174" y="3"/>
    </contour>
  </outline>
</glyph>
<glyph name="hyphen" format="1">
  <advance width="280"/>
  <unicode hex="002D"/>
  <outline>
    <contour>
      <point x="124" y="173" type="line"/>
      <point x="115" y="173" type="line"/>
      <point x="132" y="200"/>
      <point x="149" y="222"/>
      <point x="163" y="236" type="curve"/>
      <point x="186" y="237"/>
      <point x="195" y="237"/>
      <point x="209" y="237" type="curve" smooth="yes"/>
      <point x="300" y="236" type="line"/>
      <point x="284" y="217"/>
      <point x="269" y="196"/>
      <point x="255" y="173" type="curve"/>
      <point x="229" y="175"/>
      <point x="221" y="175"/>
      <point x="212" y="175" type="curve" smooth="yes"/>
    </contour>
  </outline>
</glyph>
<glyph name="period" format="1">
  <advance width="220"/>
  <unicode hex="002E"/>
  <outline>
    <contour>
      <point x="134" y="89" type="line"/>
      <point x="143" y="96" type="line" smooth="yes"/>
      <point x="151" y="103"/>
      <point x="159" y="110"/>
      <point x="167" y="116" type="curve" smooth="yes"/>
      <point x="173" y="121"/>
      <point x="178" y="125"/>
      <point x="181" y="128" type="curve"/>
      <point x="193" y="107"/>
      <point x="198" y="99"/>
      <point x="205" y="88" type="curve" smooth="yes"/>
      <point x="206" y="87"/>
      <point x="216" y="71"/>
      <point x="228" y="54" type="curve"/>
      <point x="201" y="26"/>
      <point x="192" y="19"/>
      <point x="154" y="-9" type="curve"/>
      <point x="135" y="14"/>
      <point x="115" y="46"/>
      <point x="107" y="68" type="curve"/>
    </contour>
  </outline>
</glyph>
<glyph name="slash" format="1">
  <advance width="340"/>
  <unicode hex="002F"/>
  <outline>
    <contour>
      <point x="18" y="-169" type="curve" smooth="yes"/>
      <point x="-6" y="-167" type="line"/>
      <point x="109" y="19" type="line"/>
      <point x="421" y="549"/>
      <point x="432" y="568"/>
      <point x="492" y="679" type="curve"/>
      <point x="499" y="678"/>
      <point x="503" y="677"/>
      <point x="505" y="677" type="curve" smooth="yes"/>
      <point x="522" y="676" type="line"/>
      <point x="522" y="676"/>
      <point x="529" y="675"/>
      <point x="535" y="675" type="curve"/>
      <point x="501" y="629"/>
      <point x="371" y="407"/>
      <point x="39" y="-170" type="curve"/>
      <point x="28" y="-169"/>
      <point x="27" y="-169"/>
    </contour>
  </outline>
</glyph>
<glyph name="zero" format="1">
  <advance width="440"/>
  <unicode hex="0030"/>
  <outline>
    <contour>
      <point x="380" y="576" type="curve" smooth="yes"/>
      <point x="452" y="576"/>
      <point x="489" y="522"/>
      <point x="489" y="416" type="curve" smooth="yes"/>
      <point x="489" y="332"/>
      <point x="460" y="212"/>
      <point x="420" y="136" type="curve"/>
      <point x="374" y="46"/>
      <point x="296" y="-7"/>
      <point x="210" y="-7" type="curve" smooth="yes"/>
      <point x="134" y="-7"/>
      <point x="94" y="49"/>
      <point x="94" y="157" type="curve" smooth="yes"/>
      <point x="94" y="251"/>
      <point x="131" y="380"/>
      <point x="178" y="452" type="curve" smooth="yes"/>
      <point x="227" y="526"/>
      <point x="308" y="576"/>
    </contour>
    <contour>
      <point x="331" y="534" type="curve" smooth="yes"/>
      <point x="285" y="534"/>
      <point x="247" y="489"/>
      <point x="220" y="399" type="curve" smooth="yes"/>
      <point x="200" y="334"/>
      <point x="181" y="222"/>
      <point x="181" y="167" type="curve" smooth="yes"/>
      <point x="181" y="87"/>
      <point x="213" y="30"/>
      <point x="257" y="30" type="curve" smooth="yes"/>
      <point x="291" y="30"/>
      <point x="324" y="64"/>
      <point x="349" y="125" type="curve" smooth="yes"/>
      <point x="381" y="202"/>
      <point x="402" y="305"/>
      <point x="402" y="385" type="curve" smooth="yes"/>
      <point x="402" y="481"/>
      <point x="376" y="534"/>
    </contour>
  </outline>
</glyph>
<glyph name="two" format="1">
  <advance width="440"/>
  <unicode hex="0032"/>
  <outline>
    <contour>
      <point x="51" y="-17" type="curve"/>
      <point x="47" y="12" type="line"/>
      <point x="96" y="74"/>
      <point x="111" y="89"/>
      <point x="240" y="210" type="curve" smooth="yes"/>
      <point x="317" y="282"/>
      <point x="342" y="309"/>
      <point x="363" y="343" type="curve" smooth="yes"/>
      <point x="379" y="368"/>
      <point x="389" y="403"/>
      <point x="389" y="434" type="curve" smooth="yes"/>
      <point x="389" y="491"/>
      <point x="355" y="532"/>
      <point x="308" y="532" type="curve" smooth="yes"/>
      <point x="258" y="532"/>
      <point x="225" y="496"/>
      <point x="225" y="441" type="curve" smooth="yes"/>
      <point x="225" y="423"/>
      <point x="228" y="409"/>
      <point x="237" y="382" type="curve"/>
      <point x="166" y="390" type="line"/>
      <point x="164" y="401"/>
      <point x="163" y="406"/>
      <point x="163" y="414" type="curve" smooth="yes"/>
      <point x="163" y="455"/>
      <point x="182" y="491"/>
      <point x="218" y="519" type="curve"/>
      <point x="259" y="553"/>
      <point x="312" y="572"/>
      <point x="363" y="572" type="curve" smooth="yes"/>
      <point x="425" y="572"/>
      <point x="466" y="531"/>
      <point x="466" y="467" type="curve" smooth="yes"/>
      <point x="466" y="423"/>
      <point x="454" y="389"/>
      <point x="425" y="345" type="curve"/>
      <point x="375" y="298" type="line"/>
      <point x="286" y="215" type="line"/>
      <point x="163" y="101" type="line"/>
      <point x="213" y="93"/>
      <point x="273" y="84"/>
      <point x="342" y="72" type="curve" smooth="yes"/>
      <point x="351" y="70"/>
      <point x="358" y="69"/>
      <point x="363" y="69" type="curve" smooth="yes"/>
      <point x="390" y="69"/>
      <point x="397" y="76"/>
      <point x="461" y="157" type="curve"/>
      <point x="469" y="134" type="line"/>
      <point x="381" y="2" type="line"/>
      <point x="371" y="-2"/>
      <point x="366" y="-3"/>
      <point x="358" y="-3" type="curve" smooth="yes"/>
      <point x="342" y="-3"/>
      <point x="244" y="15"/>
      <point x="170" y="32" type="curve" smooth="yes"/>
      <point x="154" y="36"/>
      <point x="141" y="38"/>
      <point x="131" y="38" type="curve" smooth="yes"/>
      <point x="106" y="38"/>
      <point x="94" y="30"/>
    </contour>
  </outline>
</glyph>
<glyph name="three" format="1">
  <advance width="440"/>
  <unicode hex="0033"/>
  <outline>
    <contour>
      <point x="36" y="26" type="curve"/>
      <point x="82" y="77" type="line"/>
      <point x="157" y="44"/>
      <point x="176" y="38"/>
      <point x="212" y="38" type="curve" smooth="yes"/>
      <point x="298" y="38"/>
      <point x="368" y="114"/>
      <point x="368" y="206" type="curve" smooth="yes"/>
      <point x="368" y="262"/>
      <point x="333" y="302"/>
      <point x="284" y="302" type="curve" smooth="yes"/>
      <point x="263" y="302"/>
      <point x="259" y="301"/>
      <point x="180" y="271" type="curve"/>
      <point x="183" y="297" type="line"/>
      <point x="322" y="350"/>
      <point x="381" y="398"/>
      <point x="381" y="459" type="curve" smooth="yes"/>
      <point x="381" y="493"/>
      <point x="357" y="518"/>
      <point x="325" y="518" type="curve" smooth="yes"/>
      <point x="301" y="518"/>
      <point x="261" y="502"/>
      <point x="223" y="476" type="curve"/>
      <point x="223" y="501" type="line"/>
      <point x="236" y="510"/>
      <point x="248" y="518"/>
      <point x="252" y="521" type="curve" smooth="yes"/>
      <point x="294" y="550" type="line" smooth="yes"/>
      <point x="298" y="552"/>
      <point x="310" y="559"/>
      <point x="322" y="566" type="curve"/>
      <point x="348" y="573"/>
      <point x="360" y="575"/>
      <point x="374" y="575" type="curve" smooth="yes"/>
      <point x="424" y="575"/>
      <point x="458" y="546"/>
      <point x="458" y="503" type="curve" smooth="yes"/>
      <point x="458" y="473"/>
      <point x="447" y="447"/>
      <point x="420" y="414" type="curve"/>
      <point x="342" y="356" type="line"/>
      <point x="377" y="351"/>
      <point x="392" y="346"/>
      <point x="408" y="335" type="curve" smooth="yes"/>
      <point x="431" y="319"/>
      <point x="445" y="291"/>
      <point x="445" y="260" type="curve" smooth="yes"/>
      <point x="445" y="130"/>
      <point x="297" y="-6"/>
      <point x="154" y="-6" type="curve" smooth="yes"/>
      <point x="111" y="-6"/>
      <point x="78" y="3"/>
    </contour>
  </outline>
</glyph>
<glyph name="four" format="1">
  <advance width="440"/>
  <unicode hex="0034"/>
  <outline>
    <contour>
      <point x="243" y="-14" type="curve"/>
      <point x="285" y="152" type="line"/>
      <point x="266" y="151"/>
      <point x="256" y="151"/>
      <point x="250" y="151" type="curve" smooth="yes"/>
      <point x="224" y="151"/>
      <point x="95" y="154"/>
      <point x="69" y="155" type="curve"/>
      <point x="87" y="195"/>
      <point x="90" y="200"/>
      <point x="117" y="234" type="curve" smooth="yes"/>
      <point x="200" y="336" type="line" smooth="yes"/>
      <point x="231" y="375"/>
      <point x="259" y="408"/>
      <point x="283" y="435" type="curve" smooth="yes"/>
      <point x="361" y="523" type="line" smooth="yes"/>
      <point x="369" y="532"/>
      <point x="377" y="541"/>
      <point x="385" y="551" type="curve"/>
      <point x="414" y="566"/>
      <point x="437" y="577"/>
      <point x="455" y="585" type="curve"/>
      <point x="442" y="539"/>
      <point x="439" y="526"/>
      <point x="419" y="434" type="curve" smooth="yes"/>
      <point x="394" y="323"/>
      <point x="377" y="246"/>
      <point x="367" y="204" type="curve"/>
      <point x="409" y="203"/>
      <point x="409" y="203"/>
      <point x="414" y="203" type="curve" smooth="yes"/>
      <point x="422" y="203"/>
      <point x="434" y="203"/>
      <point x="450" y="204" type="curve"/>
      <point x="413" y="152" type="line"/>
      <point x="397" y="152" type="line"/>
      <point x="373" y="152" type="line"/>
      <point x="355" y="152" type="line"/>
      <point x="342" y="92"/>
      <point x="338" y="70"/>
      <point x="338" y="49" type="curve" smooth="yes"/>
      <point x="338" y="35"/>
      <point x="340" y="27"/>
      <point x="349" y="12" type="curve"/>
      <point x="347" y="5" type="line"/>
      <point x="325" y="-1"/>
      <point x="292" y="-13"/>
      <point x="264" y="-25" type="curve"/>
      <point x="254" y="-23"/>
      <point x="252" y="-21"/>
    </contour>
    <contour>
      <point x="271" y="204" type="line"/>
      <point x="298" y="204" type="line"/>
      <point x="365" y="488" type="line"/>
      <point x="193" y="280"/>
      <point x="176" y="260"/>
      <point x="139" y="208" type="curve"/>
      <point x="171" y="207" type="line" smooth="yes"/>
      <point x="194" y="206"/>
      <point x="213" y="205"/>
      <point x="222" y="205" type="curve" smooth="yes"/>
    </contour>
  </outline>
</glyph>
<glyph name="six" format="1">
  <advance width="440"/>
  <unicode hex="0036"/>
  <outline>
    <contour>
      <point x="532" y="571" type="curve"/>
      <point x="489" y="515" type="line"/>
      <point x="462" y="535"/>
      <point x="440" y="543"/>
      <point x="413" y="543" type="curve" smooth="yes"/>
      <point x="352" y="543"/>
      <point x="286" y="495"/>
      <point x="240" y="418" type="curve" smooth="yes"/>
      <point x="212" y="370"/>
      <point x="195" y="324"/>
      <point x="179" y="246" type="curve"/>
      <point x="195" y="255"/>
      <point x="206" y="261"/>
      <point x="211" y="264" type="curve" smooth="yes"/>
      <point x="240" y="282" type="line"/>
      <point x="269" y="299" type="line"/>
      <point x="296" y="310"/>
      <point x="316" y="314"/>
      <point x="340" y="314" type="curve" smooth="yes"/>
      <point x="409" y="314"/>
      <point x="458" y="265"/>
      <point x="458" y="194" type="curve" smooth="yes"/>
      <point x="458" y="90"/>
      <point x="339" y="-8"/>
      <point x="213" y="-8" type="curve" smooth="yes"/>
      <point x="139" y="-8"/>
      <point x="95" y="46"/>
      <point x="95" y="138" type="curve" smooth="yes"/>
      <point x="95" y="246"/>
      <point x="152" y="380"/>
      <point x="236" y="470" type="curve" smooth="yes"/>
      <point x="307" y="545"/>
      <point x="386" y="585"/>
      <point x="466" y="585" type="curve" smooth="yes"/>
      <point x="490" y="585"/>
      <point x="504" y="582"/>
    </contour>
    <contour>
      <point x="176" y="212" type="curve"/>
      <point x="173" y="192"/>
      <point x="172" y="181"/>
      <point x="172" y="167" type="curve" smooth="yes"/>
      <point x="172" y="83"/>
      <point x="210" y="31"/>
      <point x="272" y="31" type="curve" smooth="yes"/>
      <point x="330" y="31"/>
      <point x="381" y="88"/>
      <point x="381" y="153" type="curve" smooth="yes"/>
      <point x="381" y="213"/>
      <point x="342" y="257"/>
      <point x="288" y="257" type="curve" smooth="yes"/>
      <point x="252" y="257"/>
      <point x="223" y="245"/>
    </contour>
  </outline>
</glyph>
<glyph name="eight" format="1">
  <advance width="440"/>
  <unicode hex="0038"/>
  <outline>
    <contour>
      <point x="251" y="298" type="curve"/>
      <point x="215" y="340"/>
      <point x="202" y="369"/>
      <point x="202" y="406" type="curve" smooth="yes"/>
      <point x="202" y="492"/>
      <point x="300" y="572"/>
      <point x="406" y="572" type="curve" smooth="yes"/>
      <point x="458" y="572"/>
      <point x="494" y="540"/>
      <point x="494" y="494" type="curve" smooth="yes"/>
      <point x="494" y="459"/>
      <point x="481" y="432"/>
      <point x="441" y="388" type="curve"/>
      <point x="389" y="352"/>
      <point x="379" y="347"/>
      <point x="340" y="325" type="curve"/>
      <point x="350" y="317"/>
      <point x="359" y="309"/>
      <point x="362" y="307" type="curve" smooth="yes"/>
      <point x="407" y="271"/>
      <point x="410" y="269"/>
      <point x="420" y="253" type="curve" smooth="yes"/>
      <point x="432" y="235"/>
      <point x="438" y="217"/>
      <point x="438" y="197" type="curve" smooth="yes"/>
      <point x="438" y="141"/>
      <point x="405" y="83"/>
      <point x="354" y="48" type="curve" smooth="yes"/>
      <point x="304" y="14"/>
      <point x="233" y="-10"/>
      <point x="183" y="-10" type="curve" smooth="yes"/>
      <point x="120" y="-10"/>
      <point x="75" y="32"/>
      <point x="75" y="92" type="curve" smooth="yes"/>
      <point x="75" y="144"/>
      <point x="95" y="188"/>
      <point x="140" y="233" type="curve"/>
      <point x="210" y="272"/>
      <point x="211" y="273"/>
    </contour>
    <contour>
      <point x="271" y="280" type="curve"/>
      <point x="260" y="273"/>
      <point x="254" y="270"/>
      <point x="248" y="267" type="curve" smooth="yes"/>
      <point x="192" y="233"/>
      <point x="162" y="184"/>
      <point x="162" y="124" type="curve" smooth="yes"/>
      <point x="162" y="65"/>
      <point x="191" y="27"/>
      <point x="237" y="27" type="curve" smooth="yes"/>
      <point x="295" y="27"/>
      <point x="351" y="89"/>
      <point x="351" y="153" type="curve" smooth="yes"/>
      <point x="351" y="186"/>
      <point x="341" y="210"/>
      <point x="315" y="236" type="curve" smooth="yes"/>
      <point x="305" y="247"/>
      <point x="301" y="251"/>
    </contour>
    <contour>
      <point x="320" y="341" type="curve"/>
      <point x="381" y="373"/>
      <point x="417" y="423"/>
      <point x="417" y="478" type="curve" smooth="yes"/>
      <point x="417" y="514"/>
      <point x="396" y="540"/>
      <point x="365" y="540" type="curve" smooth="yes"/>
      <point x="319" y="540"/>
      <point x="279" y="492"/>
      <point x="279" y="436" type="curve" smooth="yes"/>
      <point x="279" y="402"/>
      <point x="293" y="371"/>
    </contour>
  </outline>
</glyph>
<glyph name="nine" format="1">
  <advance width="440"/>
  <unicode hex="0039"/>
  <outline>
    <contour>
      <point x="42" y="15" type="curve"/>
      <point x="90" y="68" type="line"/>
      <point x="135" y="44"/>
      <point x="162" y="36"/>
      <point x="193" y="36" type="curve" smooth="yes"/>
      <point x="254" y="36"/>
      <point x="312" y="81"/>
      <point x="352" y="158" type="curve" smooth="yes"/>
      <point x="372" y="198"/>
      <point x="383" y="236"/>
      <point x="396" y="312" type="curve"/>
      <point x="296" y="251"/>
      <point x="275" y="242"/>
      <point x="239" y="242" type="curve" smooth="yes"/>
      <point x="172" y="242"/>
      <point x="124" y="292"/>
      <point x="124" y="364" type="curve" smooth="yes"/>
      <point x="124" y="420"/>
      <point x="154" y="472"/>
      <point x="211" y="515" type="curve" smooth="yes"/>
      <point x="263" y="553"/>
      <point x="324" y="576"/>
      <point x="374" y="576" type="curve" smooth="yes"/>
      <point x="441" y="576"/>
      <point x="480" y="521"/>
      <point x="480" y="426" type="curve" smooth="yes"/>
      <point x="480" y="334"/>
      <point x="444" y="213"/>
      <point x="396" y="144" type="curve" smooth="yes"/>
      <point x="335" y="55"/>
      <point x="228" y="-8"/>
      <point x="138" y="-8" type="curve" smooth="yes"/>
      <point x="104" y="-8"/>
      <point x="78" y="-2"/>
    </contour>
    <contour>
      <point x="400" y="349" type="curve"/>
      <point x="402" y="374"/>
      <point x="403" y="388"/>
      <point x="403" y="400" type="curve" smooth="yes"/>
      <point x="403" y="479"/>
      <point x="366" y="529"/>
      <point x="308" y="529" type="curve" smooth="yes"/>
      <point x="245" y="529"/>
      <point x="201" y="476"/>
      <point x="201" y="402" type="curve" smooth="yes"/>
      <point x="201" y="343"/>
      <point x="237" y="299"/>
      <point x="285" y="299" type="curve" smooth="yes"/>
      <point x="319" y="299"/>
      <point x="360" y="317"/>
    </contour>
  </outline>
</glyph>
<glyph name="equal" format="1">
  <advance width="520"/>
  <unicode hex="003D"/>
  <outline>
    <contour>
      <point x="518" y="162" type="line"/>
      <point x="518" y="108" type="line"/>
      <point x="108" y="108" type="line"/>
      <point x="108" y="162" type="line"/>
    </contour>
    <contour>
      <point x="518" y="330" type="line"/>
      <point x="518" y="276" type="line"/>
      <point x="108" y="276" type="line"/>
      <point x="108" y="330" type="line"/>
    </contour>
  </outline>
</glyph>
<glyph name="F" format="1">
  <advance width="580"/>
  <unicode hex="0046"/>
  <outline>
    <contour>
      <point x="436" y="293" type="line"/>
      <point x="594" y="293" type="line"/>
      <point x="569" y="268"/>
      <point x="561" y="263"/>
      <point x="533" y="259" type="curve" smooth="yes"/>
      <point x="530" y="258"/>
      <point x="483" y="255"/>
      <point x="426" y="252" type="curve"/>
      <point x="402" y="156" type="line" smooth="yes"/>
      <point x="378" y="61"/>
      <point x="352" y="18"/>
      <point x="279" y="-41" type="curve" smooth="yes"/>
      <point x="213" y="-95"/>
      <point x="170" y="-114"/>
      <point x="110" y="-114" type="curve" smooth="yes"/>
      <point x="99" y="-114"/>
      <point x="81" y="-113"/>
      <point x="60" y="-111" type="curve"/>
      <point x="99" y="-46" type="line"/>
      <point x="136" y="-47"/>
      <point x="153" y="-48"/>
      <point x="166" y="-48" type="curve" smooth="yes"/>
      <point x="261" y="-48"/>
      <point x="285" y="-20"/>
      <point x="325" y="140" type="curve" smooth="yes"/>
      <point x="352" y="247" type="line"/>
      <point x="327" y="247" type="line"/>
      <point x="363" y="293" type="line"/>
      <point x="427" y="550" type="line"/>
      <point x="408" y="552"/>
      <point x="391" y="553"/>
      <point x="379" y="553" type="curve" smooth="yes"/>
      <point x="286" y="553"/>
      <point x="227" y="497"/>
      <point x="227" y="407" type="curve" smooth="yes"/>
      <point x="227" y="377"/>
      <point x="231" y="355"/>
      <point x="247" y="308" type="curve"/>
      <point x="163" y="270" type="line"/>
      <point x="153" y="306"/>
      <point x="150" y="323"/>
      <point x="150" y="347" type="curve" smooth="yes"/>
      <point x="150" y="420"/>
      <point x="184" y="490"/>
      <point x="240" y="531" type="curve"/>
      <point x="295" y="570"/>
      <point x="358" y="586"/>
      <point x="466" y="586" type="curve" smooth="yes"/>
      <point x="600" y="585" type="line" smooth="yes"/>
      <point x="656" y="585"/>
      <point x="691" y="594"/>
      <point x="733" y="620" type="curve"/>
      <point x="729" y="606"/>
      <point x="728" y="604"/>
      <point x="723" y="592" type="curve"/>
      <point x="702" y="579"/>
      <point x="673" y="557"/>
      <point x="660" y="546" type="curve"/>
      <point x="500" y="550" type="line"/>
    </contour>
  </outline>
</glyph>
<glyph name="G" format="1">
  <advance width="620"/>
  <unicode hex="0047"/>
  <outline>
    <contour>
      <point x="582" y="240" type="line"/>
      <point x="543" y="84" type="line" smooth="yes"/>
      <point x="514" y="-32"/>
      <point x="496" y="-74"/>
      <point x="453" y="-123" type="curve" smooth="yes"/>
      <point x="387" y="-200"/>
      <point x="319" y="-236"/>
      <point x="239" y="-236" type="curve" smooth="yes"/>
      <point x="219" y="-236"/>
      <point x="203" y="-235"/>
      <point x="167" y="-231" type="curve"/>
      <point x="209" y="-165" type="line"/>
      <point x="239" y="-170"/>
      <point x="288" y="-174"/>
      <point x="317" y="-174" type="curve" smooth="yes"/>
      <point x="370" y="-174"/>
      <point x="399" y="-152"/>
      <point x="419" y="-98" type="curve" smooth="yes"/>
      <point x="428" y="-76"/>
      <point x="446" y="-11"/>
      <point x="461" y="49" type="curve"/>
      <point x="372" y="4"/>
      <point x="319" y="-12"/>
      <point x="257" y="-12" type="curve" smooth="yes"/>
      <point x="171" y="-12"/>
      <point x="118" y="48"/>
      <point x="118" y="145" type="curve" smooth="yes"/>
      <point x="118" y="250"/>
      <point x="169" y="373"/>
      <point x="250" y="460" type="curve" smooth="yes"/>
      <point x="330" y="546"/>
      <point x="429" y="591"/>
      <point x="538" y="591" type="curve" smooth="yes"/>
      <point x="614" y="591"/>
      <point x="651" y="569"/>
      <point x="670" y="512" type="curve"/>
      <point x="596" y="429" type="line"/>
      <point x="590" y="471"/>
      <point x="585" y="488"/>
      <point x="572" y="508" type="curve" smooth="yes"/>
      <point x="553" y="538"/>
      <point x="518" y="555"/>
      <point x="477" y="555" type="curve" smooth="yes"/>
      <point x="337" y="555"/>
      <point x="205" y="373"/>
      <point x="205" y="178" type="curve" smooth="yes"/>
      <point x="205" y="87"/>
      <point x="251" y="29"/>
      <point x="325" y="29" type="curve" smooth="yes"/>
      <point x="371" y="29"/>
      <point x="431" y="56"/>
      <point x="473" y="96" type="curve"/>
      <point x="509" y="240" type="line"/>
      <point x="462" y="239"/>
      <point x="413" y="237"/>
      <point x="363" y="234" type="curve"/>
      <point x="363" y="242" type="line"/>
      <point x="424" y="273" type="line"/>
      <point x="517" y="273"/>
      <point x="609" y="271"/>
      <point x="649" y="268" type="curve"/>
      <point x="603" y="240" type="line"/>
    </contour>
  </outline>
</glyph>
<glyph name="P" format="1">
  <advance width="540"/>
  <unicode hex="0050"/>
  <outline>
    <contour>
      <point x="78" y="42" type="line"/>
      <point x="221" y="42" type="line"/>
      <point x="259" y="174"/>
      <point x="310" y="381"/>
      <point x="345" y="538" type="curve"/>
      <point x="279" y="531"/>
      <point x="245" y="519"/>
      <point x="211" y="493" type="curve" smooth="yes"/>
      <point x="174" y="464"/>
      <point x="151" y="413"/>
      <point x="151" y="360" type="curve" smooth="yes"/>
      <point x="151" y="336"/>
      <point x="154" y="320"/>
      <point x="166" y="285" type="curve"/>
      <point x="91" y="240" type="line"/>
      <point x="78" y="272"/>
      <point x="74" y="292"/>
      <point x="74" y="321" type="curve" smooth="yes"/>
      <point x="74" y="400"/>
      <point x="117" y="468"/>
      <point x="196" y="516" type="curve" smooth="yes"/>
      <point x="245" y="545"/>
      <point x="290" y="559"/>
      <point x="369" y="567" type="curve"/>
      <point x="436" y="601" type="line"/>
      <point x="430" y="576" type="line"/>
      <point x="453" y="577"/>
      <point x="464" y="577"/>
      <point x="474" y="577" type="curve" smooth="yes"/>
      <point x="589" y="577"/>
      <point x="645" y="544"/>
      <point x="645" y="476" type="curve" smooth="yes"/>
      <point x="645" y="402"/>
      <point x="600" y="332"/>
      <point x="528" y="293" type="curve" smooth="yes"/>
      <point x="467" y="260"/>
      <point x="412" y="244"/>
      <point x="346" y="240" type="curve"/>
      <point x="335" y="199"/>
      <point x="334" y="193"/>
      <point x="321" y="139" type="curve" smooth="yes"/>
      <point x="316" y="114"/>
      <point x="312" y="97"/>
      <point x="308" y="80" type="curve" smooth="yes"/>
      <point x="305" y="68"/>
      <point x="302" y="55"/>
      <point x="299" y="42" type="curve"/>
      <point x="387" y="43"/>
      <point x="411" y="44"/>
      <point x="467" y="50" type="curve"/>
      <point x="465" y="41" type="line"/>
      <point x="382" y="1"/>
      <point x="379" y="1"/>
      <point x="107" y="1" type="curve" smooth="yes"/>
      <point x="37" y="1" type="line"/>
    </contour>
    <contour>
      <point x="422" y="546" type="curve"/>
      <point x="356" y="279" type="line"/>
      <point x="372" y="276"/>
      <point x="380" y="275"/>
      <point x="391" y="275" type="curve" smooth="yes"/>
      <point x="487" y="275"/>
      <point x="558" y="353"/>
      <point x="558" y="459" type="curve" smooth="yes"/>
      <point x="558" y="517"/>
      <point x="524" y="548"/>
      <point x="461" y="548" type="curve" smooth="yes"/>
      <point x="453" y="548"/>
      <point x="437" y="547"/>
    </contour>
  </outline>
</glyph>
<glyph name="R" format="1">
  <advance width="600"/>
  <unicode hex="0052"/>
  <outline>
    <contour>
      <point x="38" y="1" type="curve"/>
      <point x="77" y="45" type="line"/>
      <point x="207" y="44"/>
      <point x="234" y="70"/>
      <point x="276" y="239" type="curve" smooth="yes"/>
      <point x="326" y="437" type="line" smooth="yes"/>
      <point x="333" y="468"/>
      <point x="339" y="491"/>
      <point x="343" y="507" type="curve" smooth="yes"/>
      <point x="352" y="543" type="line"/>
      <point x="288" y="535"/>
      <point x="260" y="524"/>
      <point x="232" y="499" type="curve" smooth="yes"/>
      <point x="201" y="470"/>
      <point x="186" y="432"/>
      <point x="186" y="384" type="curve" smooth="yes"/>
      <point x="186" y="361"/>
      <point x="189" y="344"/>
      <point x="197" y="310" type="curve"/>
      <point x="113" y="267" type="line"/>
      <point x="102" y="304"/>
      <point x="99" y="321"/>
      <point x="99" y="347" type="curve" smooth="yes"/>
      <point x="99" y="464"/>
      <point x="186" y="540"/>
      <point x="350" y="568" type="curve"/>
      <point x="441" y="611" type="line"/>
      <point x="433" y="579" type="line"/>
      <point x="454" y="580"/>
      <point x="479" y="581"/>
      <point x="491" y="581" type="curve" smooth="yes"/>
      <point x="582" y="581"/>
      <point x="632" y="547"/>
      <point x="632" y="485" type="curve" smooth="yes"/>
      <point x="632" y="437"/>
      <point x="605" y="391"/>
      <point x="558" y="359" type="curve" smooth="yes"/>
      <point x="527" y="339"/>
      <point x="504" y="328"/>
      <point x="447" y="310" type="curve"/>
      <point x="488" y="180"/>
      <point x="519" y="87"/>
      <point x="545" y="25" type="curve" smooth="yes"/>
      <point x="586" y="-74"/>
      <point x="631" y="-124"/>
      <point x="678" y="-124" type="curve" smooth="yes"/>
      <point x="717" y="-124"/>
      <point x="745" y="-101"/>
      <point x="777" y="-42" type="curve"/>
      <point x="826" y="-103" type="line"/>
      <point x="770" y="-144"/>
      <point x="736" y="-156"/>
      <point x="680" y="-156" type="curve" smooth="yes"/>
      <point x="601" y="-156"/>
      <point x="542" y="-125"/>
      <point x="499" y="-61" type="curve" smooth="yes"/>
      <point x="458" y="0"/>
      <point x="425" y="95"/>
      <point x="387" y="262" type="curve" smooth="yes"/>
      <point x="381" y="287"/>
      <point x="375" y="296"/>
      <point x="364" y="295" type="curve"/>
      <point x="364" y="295"/>
      <point x="363" y="295"/>
      <point x="362" y="294" type="curve" smooth="yes"/>
      <point x="330" y="167"/>
      <point x="324" y="158"/>
      <point x="211" y="45" type="curve"/>
      <point x="297" y="43"/>
      <point x="306" y="43"/>
      <point x="343" y="42" type="curve"/>
      <point x="269" y="4" type="line"/>
      <point x="239" y="2"/>
      <point x="149" y="0"/>
      <point x="97" y="0" type="curve" smooth="yes"/>
      <point x="91" y="0"/>
      <point x="91" y="0"/>
    </contour>
    <contour>
      <point x="426" y="551" type="line"/>
      <point x="368" y="317" type="line"/>
      <point x="422" y="324"/>
      <point x="446" y="331"/>
      <point x="476" y="349" type="curve" smooth="yes"/>
      <point x="518" y="375"/>
      <point x="545" y="423"/>
      <point x="545" y="473" type="curve" smooth="yes"/>
      <point x="545" y="528"/>
      <point x="519" y="551"/>
      <point x="457" y="551" type="curve" smooth="yes"/>
    </contour>
  </outline>
</glyph>
<glyph name="X" format="1">
  <advance width="560"/>
  <unicode hex="0058"/>
  <outline>
    <contour>
      <point x="0" y="0" type="curve"/>
      <point x="49" y="75" type="line"/>
      <point x="65" y="73"/>
      <point x="71" y="73"/>
      <point x="80" y="73" type="curve" smooth="yes"/>
      <point x="128" y="73"/>
      <point x="153" y="82"/>
      <point x="180" y="109" type="curve" smooth="yes"/>
      <point x="200" y="129"/>
      <point x="255" y="197"/>
      <point x="333" y="298" type="curve"/>
      <point x="322" y="359"/>
      <point x="308" y="417"/>
      <point x="291" y="477" type="curve" smooth="yes"/>
      <point x="281" y="510"/>
      <point x="266" y="524"/>
      <point x="237" y="524" type="curve" smooth="yes"/>
      <point x="225" y="524"/>
      <point x="223" y="524"/>
      <point x="184" y="516" type="curve" smooth="yes"/>
      <point x="181" y="515"/>
      <point x="171" y="513"/>
      <point x="160" y="511" type="curve"/>
      <point x="183" y="540" type="line"/>
      <point x="277" y="566"/>
      <point x="323" y="577"/>
      <point x="338" y="577" type="curve" smooth="yes"/>
      <point x="349" y="577"/>
      <point x="355" y="571"/>
      <point x="358" y="556" type="curve" smooth="yes"/>
      <point x="394" y="374" type="line"/>
      <point x="495" y="500" type="line"/>
      <point x="541" y="560"/>
      <point x="572" y="580"/>
      <point x="615" y="580" type="curve" smooth="yes"/>
      <point x="637" y="580"/>
      <point x="651" y="575"/>
      <point x="671" y="559" type="curve"/>
      <point x="626" y="488" type="line"/>
      <point x="608" y="499"/>
      <point x="596" y="503"/>
      <point x="582" y="503" type="curve" smooth="yes"/>
      <point x="550" y="503"/>
      <point x="522" y="483"/>
      <point x="478" y="429" type="curve" smooth="yes"/>
      <point x="400" y="335" type="line"/>
      <point x="409" y="290" type="line" smooth="yes"/>
      <point x="436" y="160"/>
      <point x="447" y="117"/>
      <point x="463" y="79" type="curve" smooth="yes"/>
      <point x="476" y="50"/>
      <point x="500" y="36"/>
      <point x="538" y="36" type="curve" smooth="yes"/>
      <point x="548" y="36"/>
      <point x="564" y="37"/>
      <point x="582" y="39" type="curve" smooth="yes"/>
      <point x="585" y="39"/>
      <point x="595" y="40"/>
      <point x="606" y="41" type="curve"/>
      <point x="589" y="18" type="line"/>
      <point x="546" y="10"/>
      <point x="519" y="5"/>
      <point x="509" y="3" type="curve" smooth="yes"/>
      <point x="479" y="-2"/>
      <point x="459" y="-6"/>
      <point x="452" y="-7" type="curve" smooth="yes"/>
      <point x="438" y="-11"/>
      <point x="426" y="-13"/>
      <point x="418" y="-13" type="curve" smooth="yes"/>
      <point x="402" y="-13"/>
      <point x="396" y="-1"/>
      <point x="386" y="52" type="curve" smooth="yes"/>
      <point x="344" y="258" type="line"/>
      <point x="302" y="205" type="line"/>
      <point x="242" y="128" type="line" smooth="yes"/>
      <point x="185" y="54"/>
      <point x="158" y="27"/>
      <point x="127" y="12" type="curve" smooth="yes"/>
      <point x="106" y="2"/>
      <point x="74" y="-4"/>
      <point x="45" y="-4" type="curve" smooth="yes"/>
      <point x="34" y="-4"/>
      <point x="23" y="-3"/>
    </contour>
  </outline>
</glyph>
<glyph name="bracketleft" format="1">
  <advance width="240"/>
  <unicode hex="005B"/>
  <outline>
    <contour>
      <point x="111" y="-164" type="curve"/>
      <point x="89" y="-164" type="line" smooth="yes"/>
      <point x="77" y="-164"/>
      <point x="72" y="-164"/>
      <point x="47" y="-165" type="curve"/>
      <point x="108" y="61" type="line"/>
      <point x="155" y="241" type="line"/>
      <point x="208" y="430" type="line" smooth="yes"/>
      <point x="227" y="499"/>
      <point x="244" y="565"/>
      <point x="268" y="665" type="curve"/>
      <point x="365" y="665" type="line"/>
      <point x="404" y="665" type="line"/>
      <point x="369" y="640" type="line"/>
      <point x="320" y="634" type="line"/>
      <point x="295" y="550"/>
      <point x="278" y="487"/>
      <point x="261" y="419" type="curve" smooth="yes"/>
      <point x="120" y="-134" type="line"/>
      <point x="203" y="-139" type="line"/>
      <point x="168" y="-165" type="line"/>
      <point x="157" y="-165" type="line" smooth="yes"/>
      <point x="146" y="-165"/>
      <point x="135" y="-165"/>
    </contour>
  </outline>
</glyph>
<glyph name="backslash" format="1">
  <advance width="480"/>
  <unicode hex="005C"/>
  <outline>
    <contour>
      <point x="484" y="0" type="line"/>
      <point x="426" y="0" type="line"/>
      <point x="185" y="579" type="line"/>
      <point x="243" y="579" type="line"/>
    </contour>
  </outline>
</glyph>
<glyph name="c" format="1">
  <advance width="340"/>
  <unicode hex="0063"/>
  <outline>
    <contour>
      <point x="383" y="127" type="curve"/>
      <point x="381" y="95" type="line"/>
      <point x="290" y="27"/>
      <point x="208" y="-13"/>
      <point x="160" y="-13" type="curve" smooth="yes"/>
      <point x="114" y="-13"/>
      <point x="87" y="21"/>
      <point x="87" y="79" type="curve" smooth="yes"/>
      <point x="87" y="141"/>
      <point x="108" y="226"/>
      <point x="136" y="280" type="curve" smooth="yes"/>
      <point x="158" y="321"/>
      <point x="174" y="336"/>
      <point x="249" y="383" type="curve"/>
      <point x="285" y="407"/>
      <point x="296" y="411"/>
      <point x="314" y="411" type="curve" smooth="yes"/>
      <point x="349" y="411"/>
      <point x="371" y="384"/>
      <point x="371" y="341" type="curve" smooth="yes"/>
      <point x="371" y="340"/>
      <point x="371" y="335"/>
      <point x="370" y="330" type="curve"/>
      <point x="312" y="296" type="line"/>
      <point x="307" y="340"/>
      <point x="294" y="359"/>
      <point x="270" y="359" type="curve" smooth="yes"/>
      <point x="241" y="359"/>
      <point x="215" y="332"/>
      <point x="195" y="279" type="curve"/>
      <point x="176" y="232"/>
      <point x="164" y="168"/>
      <point x="164" y="120" type="curve" smooth="yes"/>
      <point x="164" y="72"/>
      <point x="185" y="44"/>
      <point x="221" y="44" type="curve" smooth="yes"/>
      <point x="253" y="44"/>
      <point x="306" y="72"/>
    </contour>
  </outline>
</glyph>
<glyph name="g" format="1">
  <advance width="400"/>
  <unicode hex="0067"/>
  <outline>
    <contour>
      <point x="397" y="219" type="curve" smooth="yes"/>
      <point x="347" y="-6" type="line" smooth="yes"/>
      <point x="326" y="-105"/>
      <point x="316" y="-126"/>
      <point x="273" y="-163" type="curve" smooth="yes"/>
      <point x="206" y="-221"/>
      <point x="134" y="-247"/>
      <point x="42" y="-247" type="curve" smooth="yes"/>
      <point x="-34" y="-247"/>
      <point x="-78" y="-226"/>
      <point x="-78" y="-189" type="curve" smooth="yes"/>
      <point x="-78" y="-161"/>
      <point x="-55" y="-128"/>
      <point x="-5" y="-84" type="curve" smooth="yes"/>
      <point x="110" y="15" type="line"/>
      <point x="94" y="37"/>
      <point x="88" y="55"/>
      <point x="88" y="80" type="curve" smooth="yes"/>
      <point x="88" y="141"/>
      <point x="124" y="262"/>
      <point x="154" y="301" type="curve" smooth="yes"/>
      <point x="175" y="328"/>
      <point x="209" y="356"/>
      <point x="257" y="386" type="curve" smooth="yes"/>
      <point x="287" y="404"/>
      <point x="304" y="407"/>
      <point x="365" y="408" type="curve" smooth="yes"/>
      <point x="376" y="408"/>
      <point x="399" y="408"/>
      <point x="481" y="410" type="curve"/>
      <point x="449" y="359"/>
      <point x="448" y="359"/>
      <point x="430" y="354" type="curve"/>
      <point x="429" y="348"/>
      <point x="427" y="341"/>
      <point x="425" y="332" type="curve" smooth="yes"/>
      <point x="410" y="276" type="line" smooth="yes"/>
      <point x="406" y="260"/>
      <point x="401" y="241"/>
    </contour>
    <contour>
      <point x="266" y="-55" type="curve" smooth="yes"/>
      <point x="309" y="134" type="line"/>
      <point x="31" y="-79"/>
      <point x="4" y="-104"/>
      <point x="4" y="-145" type="curve" smooth="yes"/>
      <point x="4" y="-177"/>
      <point x="39" y="-195"/>
      <point x="104" y="-195" type="curve" smooth="yes"/>
      <point x="163" y="-195"/>
      <point x="204" y="-182"/>
      <point x="226" y="-157" type="curve" smooth="yes"/>
      <point x="244" y="-138"/>
      <point x="253" y="-115"/>
    </contour>
    <contour>
      <point x="383" y="355" type="line"/>
      <point x="356" y="355" type="line"/>
      <point x="343" y="354"/>
      <point x="331" y="354"/>
      <point x="324" y="354" type="curve" smooth="yes"/>
      <point x="251" y="354"/>
      <point x="230" y="344"/>
      <point x="210" y="303" type="curve"/>
      <point x="189" y="255"/>
      <point x="165" y="168"/>
      <point x="165" y="134" type="curve" smooth="yes"/>
      <point x="165" y="110"/>
      <point x="172" y="94"/>
      <point x="190" y="76" type="curve"/>
      <point x="274" y="139"/>
      <point x="298" y="157"/>
      <point x="318" y="170" type="curve"/>
      <point x="331" y="219"/>
      <point x="342" y="258"/>
      <point x="351" y="287" type="curve"/>
      <point x="360" y="311"/>
      <point x="367" y="320"/>
      <point x="399" y="343" type="curve" smooth="yes"/>
      <point x="404" y="346"/>
      <point x="410" y="351"/>
      <point x="415" y="355" type="curve"/>
    </contour>
  </outline>
</glyph>
<glyph name="h" format="1">
  <advance width="440"/>
  <unicode hex="0068"/>
  <outline>
    <contour>
      <point x="75" y="-9" type="line"/>
      <point x="171" y="404" type="line" smooth="yes"/>
      <point x="202" y="536"/>
      <point x="210" y="553"/>
      <point x="262" y="599" type="curve" smooth="yes"/>
      <point x="335" y="663"/>
      <point x="364" y="678"/>
      <point x="419" y="678" type="curve" smooth="yes"/>
      <point x="434" y="678"/>
      <point x="442" y="677"/>
      <point x="460" y="673" type="curve"/>
      <point x="417" y="612" type="line"/>
      <point x="378" y="620"/>
      <point x="370" y="621"/>
      <point x="357" y="621" type="curve" smooth="yes"/>
      <point x="330" y="621"/>
      <point x="309" y="608"/>
      <point x="295" y="580" type="curve" smooth="yes"/>
      <point x="282" y="555"/>
      <point x="272" y="524"/>
      <point x="248" y="426" type="curve" smooth="yes"/>
      <point x="214" y="292" type="line"/>
      <point x="339" y="373"/>
      <point x="408" y="411"/>
      <point x="429" y="411" type="curve" smooth="yes"/>
      <point x="442" y="411"/>
      <point x="450" y="404"/>
      <point x="450" y="394" type="curve" smooth="yes"/>
      <point x="450" y="390"/>
      <point x="434" y="329"/>
      <point x="402" y="211" type="curve" smooth="yes"/>
      <point x="385" y="146"/>
      <point x="379" y="117"/>
      <point x="379" y="97" type="curve" smooth="yes"/>
      <point x="379" y="81"/>
      <point x="385" y="71"/>
      <point x="394" y="71" type="curve" smooth="yes"/>
      <point x="407" y="71"/>
      <point x="421" y="78"/>
      <point x="506" y="128" type="curve"/>
      <point x="499" y="99" type="line"/>
      <point x="444" y="59"/>
      <point x="372" y="13"/>
      <point x="317" y="-15" type="curve"/>
      <point x="306" y="4"/>
      <point x="302" y="16"/>
      <point x="302" y="28" type="curve" smooth="yes"/>
      <point x="302" y="55"/>
      <point x="314" y="113"/>
      <point x="345" y="233" type="curve" smooth="yes"/>
      <point x="359" y="287"/>
      <point x="363" y="306"/>
      <point x="363" y="318" type="curve" smooth="yes"/>
      <point x="363" y="327"/>
      <point x="358" y="334"/>
      <point x="351" y="334" type="curve" smooth="yes"/>
      <point x="340" y="334"/>
      <point x="298" y="312"/>
      <point x="229" y="268" type="curve" smooth="yes"/>
      <point x="227" y="267"/>
      <point x="215" y="260"/>
      <point x="205" y="253" type="curve"/>
      <point x="146" y="20" type="line"/>
    </contour>
  </outline>
</glyph>
<glyph name="i" format="1">
  <advance width="240"/>
  <unicode hex="0069"/>
  <outline>
    <contour>
      <point x="242" y="494" type="curve"/>
      <point x="220" y="526"/>
      <point x="211" y="542"/>
      <point x="204" y="564" type="curve"/>
      <point x="208" y="566"/>
      <point x="212" y="569"/>
      <point x="216" y="572" type="curve" smooth="yes"/>
      <point x="225" y="578"/>
      <point x="232" y="583"/>
      <point x="237" y="587" type="curve" smooth="yes"/>
      <point x="247" y="595"/>
      <point x="255" y="601"/>
      <point x="259" y="605" type="curve" smooth="yes"/>
      <point x="262" y="608"/>
      <point x="268" y="612"/>
      <point x="273" y="616" type="curve"/>
      <point x="275" y="611"/>
      <point x="277" y="607"/>
      <point x="279" y="603" type="curve" smooth="yes"/>
      <point x="287" y="584"/>
      <point x="288" y="583"/>
      <point x="294" y="571" type="curve" smooth="yes"/>
      <point x="296" y="568"/>
      <point x="301" y="560"/>
      <point x="307" y="548" type="curve"/>
      <point x="273" y="522"/>
      <point x="271" y="520"/>
    </contour>
    <contour>
      <point x="311" y="116" type="curve"/>
      <point x="307" y="88" type="line"/>
      <point x="297" y="82"/>
      <point x="288" y="76"/>
      <point x="279" y="71" type="curve" smooth="yes"/>
      <point x="260" y="58"/>
      <point x="241" y="46"/>
      <point x="222" y="34" type="curve" smooth="yes"/>
      <point x="169" y="0"/>
      <point x="142" y="-13"/>
      <point x="125" y="-13" type="curve" smooth="yes"/>
      <point x="111" y="-13"/>
      <point x="101" y="3"/>
      <point x="101" y="27" type="curve" smooth="yes"/>
      <point x="101" y="52"/>
      <point x="101" y="52"/>
      <point x="148" y="227" type="curve" smooth="yes"/>
      <point x="163" y="284"/>
      <point x="166" y="298"/>
      <point x="166" y="311" type="curve" smooth="yes"/>
      <point x="166" y="323"/>
      <point x="162" y="329"/>
      <point x="154" y="329" type="curve" smooth="yes"/>
      <point x="145" y="329"/>
      <point x="140" y="327"/>
      <point x="81" y="295" type="curve"/>
      <point x="83" y="323" type="line"/>
      <point x="165" y="378"/>
      <point x="224" y="411"/>
      <point x="241" y="411" type="curve" smooth="yes"/>
      <point x="248" y="411"/>
      <point x="253" y="407"/>
      <point x="253" y="401" type="curve" smooth="yes"/>
      <point x="253" y="393"/>
      <point x="243" y="353"/>
      <point x="192" y="143" type="curve" smooth="yes"/>
      <point x="186" y="121"/>
      <point x="183" y="102"/>
      <point x="183" y="92" type="curve" smooth="yes"/>
      <point x="183" y="75"/>
      <point x="190" y="64"/>
      <point x="201" y="64" type="curve" smooth="yes"/>
      <point x="214" y="64"/>
      <point x="216" y="65"/>
    </contour>
  </outline>
</glyph>
<glyph name="w" format="1">
  <advance width="680"/>
  <unicode hex="0077"/>
  <outline>
    <contour>
      <point x="104" y="208" type="curve"/>
      <point x="87" y="232" type="line"/>
      <point x="110" y="306"/>
      <point x="130" y="352"/>
      <point x="145" y="367" type="curve" smooth="yes"/>
      <point x="151" y="374"/>
      <point x="162" y="377"/>
      <point x="179" y="377" type="curve" smooth="yes"/>
      <point x="186" y="377"/>
      <point x="195" y="377"/>
      <point x="206" y="376" type="curve" smooth="yes"/>
      <point x="231" y="375"/>
      <point x="291" y="374"/>
      <point x="320" y="374" type="curve" smooth="yes"/>
      <point x="337" y="374"/>
      <point x="345" y="376"/>
      <point x="361" y="388" type="curve"/>
      <point x="372" y="388" type="line"/>
      <point x="373" y="384"/>
      <point x="373" y="382"/>
      <point x="373" y="380" type="curve" smooth="yes"/>
      <point x="373" y="370" type="line"/>
      <point x="317" y="314"/>
      <point x="295" y="286"/>
      <point x="270" y="243" type="curve"/>
      <point x="242" y="192"/>
      <point x="225" y="136"/>
      <point x="225" y="93" type="curve" smooth="yes"/>
      <point x="225" y="66"/>
      <point x="235" y="49"/>
      <point x="252" y="49" type="curve" smooth="yes"/>
      <point x="283" y="49"/>
      <point x="337" y="88"/>
      <point x="375" y="138" type="curve" smooth="yes"/>
      <point x="406" y="178"/>
      <point x="416" y="200"/>
      <point x="452" y="320" type="curve" smooth="yes"/>
      <point x="455" y="329"/>
      <point x="459" y="343"/>
      <point x="465" y="362" type="curve"/>
      <point x="501" y="371"/>
      <point x="512" y="374"/>
      <point x="539" y="383" type="curve"/>
      <point x="473" y="185"/>
      <point x="458" y="133"/>
      <point x="458" y="90" type="curve" smooth="yes"/>
      <point x="458" y="63"/>
      <point x="472" y="44"/>
      <point x="492" y="44" type="curve" smooth="yes"/>
      <point x="523" y="44"/>
      <point x="574" y="86"/>
      <point x="609" y="140" type="curve" smooth="yes"/>
      <point x="650" y="204"/>
      <point x="675" y="282"/>
      <point x="675" y="348" type="curve" smooth="yes"/>
      <point x="675" y="375"/>
      <point x="672" y="392"/>
      <point x="662" y="418" type="curve"/>
      <point x="698" y="434"/>
      <point x="707" y="437"/>
      <point x="732" y="444" type="curve"/>
      <point x="749" y="433"/>
      <point x="757" y="416"/>
      <point x="757" y="389" type="curve" smooth="yes"/>
      <point x="757" y="231"/>
      <point x="561" y="-13"/>
      <point x="435" y="-13" type="curve" smooth="yes"/>
      <point x="401" y="-13"/>
      <point x="381" y="8"/>
      <point x="381" y="44" type="curve" smooth="yes"/>
      <point x="381" y="70"/>
      <point x="385" y="90"/>
      <point x="396" y="123" type="curve"/>
      <point x="313" y="29"/>
      <point x="254" y="-13"/>
      <point x="202" y="-13" type="curve" smooth="yes"/>
      <point x="170" y="-13"/>
      <point x="148" y="12"/>
      <point x="148" y="48" type="curve" smooth="yes"/>
      <point x="148" y="90"/>
      <point x="164" y="143"/>
      <point x="190" y="190" type="curve" smooth="yes"/>
      <point x="208" y="223"/>
      <point x="222" y="241"/>
      <point x="265" y="288" type="curve" smooth="yes"/>
      <point x="299" y="326" type="line"/>
      <point x="281" y="319"/>
      <point x="274" y="318"/>
      <point x="253" y="318" type="curve" smooth="yes"/>
      <point x="244" y="318"/>
      <point x="235" y="318"/>
      <point x="227" y="319" type="curve" smooth="yes"/>
      <point x="212" y="320"/>
      <point x="199" y="320"/>
      <point x="194" y="320" type="curve" smooth="yes"/>
      <point x="169" y="320"/>
      <point x="151" y="308"/>
      <point x="135" y="282" type="curve" smooth="yes"/>
      <point x="128" y="269"/>
      <point x="123" y="256"/>
    </contour>
  </outline>
</glyph>
<glyph name="braceleft" format="1">
  <advance width="240"/>
  <unicode hex="007B"/>
  <outline>
    <contour>
      <point x="330" y="546" type="curve"/>
      <point x="277" y="346" type="line"/>
      <point x="265" y="294"/>
      <point x="240" y="268"/>
      <point x="187" y="251" type="curve"/>
      <point x="219" y="238"/>
      <point x="231" y="222"/>
      <point x="231" y="190" type="curve" smooth="yes"/>
      <point x="231" y="180"/>
      <point x="229" y="166"/>
      <point x="224" y="150" type="curve" smooth="yes"/>
      <point x="171" y="-51" type="line"/>
      <point x="162" y="-77"/>
      <point x="162" y="-77"/>
      <point x="162" y="-93" type="curve" smooth="yes"/>
      <point x="162" y="-124"/>
      <point x="170" y="-136"/>
      <point x="199" y="-145" type="curve"/>
      <point x="194" y="-165" type="line"/>
      <point x="159" y="-165"/>
      <point x="144" y="-162"/>
      <point x="130" y="-154" type="curve" smooth="yes"/>
      <point x="114" y="-144"/>
      <point x="105" y="-128"/>
      <point x="105" y="-110" type="curve" smooth="yes"/>
      <point x="105" y="-97"/>
      <point x="109" y="-69"/>
      <point x="113" y="-54" type="curve" smooth="yes"/>
      <point x="168" y="152" type="line" smooth="yes"/>
      <point x="173" y="171"/>
      <point x="174" y="175"/>
      <point x="174" y="181" type="curve" smooth="yes"/>
      <point x="174" y="209"/>
      <point x="156" y="232"/>
      <point x="126" y="242" type="curve"/>
      <point x="131" y="262" type="line"/>
      <point x="182" y="274"/>
      <point x="207" y="297"/>
      <point x="219" y="344" type="curve" smooth="yes"/>
      <point x="274" y="550" type="line" smooth="yes"/>
      <point x="296" y="633"/>
      <point x="329" y="661"/>
      <point x="405" y="661" type="curve"/>
      <point x="400" y="641" type="line"/>
      <point x="364" y="632"/>
      <point x="344" y="604"/>
    </contour>
  </outline>
</glyph>
<glyph name="brokenbar" format="1">
  <advance width="520"/>
  <unicode hex="00A6"/>
  <outline>
    <contour>
      <point x="363" y="722" type="line"/>
      <point x="363" y="428" type="line"/>
      <point x="314" y="428" type="line"/>
      <point x="314" y="722" type="line"/>
    </contour>
    <contour>
      <point x="363" y="294" type="line"/>
      <point x="363" y="0" type="line"/>
      <point x="314" y="0" type="line"/>
      <point x="314" y="294" type="line"/>
    </contour>
  </outline>
</glyph>
<glyph name="dieresis" format="1">
  <advance width="360"/>
  <unicode hex="00A8"/>
  <outline>
    <contour>
      <point x="354" y="489" type="curve"/>
      <point x="332" y="520"/>
      <point x="324" y="536"/>
      <point x="316" y="559" type="curve"/>
      <point x="328" y="568"/>
      <point x="333" y="571"/>
      <point x="340" y="576" type="curve" smooth="yes"/>
      <point x="344" y="579"/>
      <point x="354" y="587"/>
      <point x="371" y="601" type="curve" smooth="yes"/>
      <point x="377" y="606"/>
      <point x="381" y="609"/>
      <point x="385" y="612" type="curve"/>
      <point x="395" y="587"/>
      <point x="396" y="584"/>
      <point x="399" y="578" type="curve" smooth="yes"/>
      <point x="403" y="570"/>
      <point x="407" y="563"/>
      <point x="419" y="544" type="curve"/>
      <point x="387" y="519" type="line" smooth="yes"/>
      <point x="379" y="513"/>
      <point x="376" y="510"/>
    </contour>
    <contour>
      <point x="221" y="489" type="line"/>
      <point x="199" y="522"/>
      <point x="191" y="536"/>
      <point x="183" y="559" type="curve"/>
      <point x="209" y="577"/>
      <point x="212" y="579"/>
      <point x="238" y="601" type="curve" smooth="yes"/>
      <point x="243" y="604"/>
      <point x="247" y="608"/>
      <point x="252" y="612" type="curve"/>
      <point x="263" y="587"/>
      <point x="264" y="584"/>
      <point x="267" y="578" type="curve" smooth="yes"/>
      <point x="271" y="570"/>
      <point x="275" y="563"/>
      <point x="286" y="544" type="curve"/>
      <point x="264" y="526"/>
      <point x="260" y="523"/>
      <point x="254" y="519" type="curve"/>
    </contour>
  </outline>
</glyph>
<glyph name="logicalnot" format="1">
  <advance width="520"/>
  <unicode hex="00AC"/>
  <outline>
    <contour>
      <point x="55" y="314" type="line"/>
      <point x="559" y="314" type="line"/>
      <point x="559" y="25" type="line"/>
      <point x="504" y="25" type="line"/>
      <point x="504" y="259" type="line"/>
      <point x="55" y="259" type="line"/>
    </contour>
  </outline>
</glyph>
<glyph name="macron" format="1">
  <advance width="440"/>
  <unicode hex="00AF"/>
  <outline>
    <contour>
      <point x="183" y="520" type="line"/>
      <point x="192" y="529" type="line"/>
      <point x="204" y="544" type="line" smooth="yes"/>
      <point x="208" y="548"/>
      <point x="211" y="552"/>
      <point x="215" y="555" type="curve"/>
      <point x="216" y="557"/>
      <point x="221" y="562"/>
      <point x="226" y="568" type="curve"/>
      <point x="515" y="568" type="line"/>
      <point x="503" y="556"/>
      <point x="490" y="540"/>
      <point x="475" y="520" type="curve"/>
    </contour>
  </outline>
</glyph>
<glyph name="degree" format="1">
  <advance width="400"/>
  <unicode hex="00B0"/>
  <outline>
    <contour>
      <point x="313" y="576" type="curve" smooth="yes"/>
      <point x="379" y="576"/>
      <point x="430" y="522"/>
      <point x="430" y="453" type="curve" smooth="yes"/>
      <point x="430" y="384"/>
      <point x="377" y="330"/>
      <point x="310" y="330" type="curve" smooth="yes"/>
      <point x="243" y="330"/>
      <point x="190" y="384"/>
      <point x="190" y="454" type="curve" smooth="yes"/>
      <point x="190" y="522"/>
      <point x="244" y="576"/>
    </contour>
    <contour>
      <point x="311" y="530" type="curve" smooth="yes"/>
      <point x="269" y="530"/>
      <point x="235" y="496"/>
      <point x="235" y="453" type="curve" smooth="yes"/>
      <point x="235" y="411"/>
      <point x="269" y="376"/>
      <point x="310" y="376" type="curve" smooth="yes"/>
      <point x="351" y="376"/>
      <point x="384" y="410"/>
      <point x="384" y="453" type="curve" smooth="yes"/>
      <point x="384" y="495"/>
      <point x="351" y="530"/>
    </contour>
  </outline>
</glyph>
<glyph name="plusminus" format="1">
  <advance width="520"/>
  <unicode hex="00B1"/>
  <outline>
    <contour>
      <point x="335" y="276" type="line"/>
      <point x="335" y="98" type="line"/>
      <point x="281" y="98" type="line"/>
      <point x="281" y="276" type="line"/>
      <point x="103" y="276" type="line"/>
      <point x="103" y="330" type="line"/>
      <point x="281" y="330" type="line"/>
      <point x="281" y="508" type="line"/>
      <point x="335" y="508" type="line"/>
      <point x="335" y="330" type="line"/>
      <point x="513" y="330" type="line"/>
      <point x="513" y="276" type="line"/>
    </contour>
    <contour>
      <point x="103" y="0" type="line"/>
      <point x="103" y="54" type="line"/>
      <point x="513" y="54" type="line"/>
      <point x="513" y="0" type="line"/>
    </contour>
  </outline>
</glyph>
<glyph name="twosuperior" format="1">
  <advance width="264"/>
  <unicode hex="00B2"/>
  <outline>
    <contour>
      <point x="83" y="206" type="curve"/>
      <point x="80" y="229" type="line"/>
      <point x="111" y="266"/>
      <point x="126" y="281"/>
      <point x="205" y="349" type="curve" smooth="yes"/>
      <point x="281" y="415"/>
      <point x="298" y="439"/>
      <point x="298" y="478" type="curve" smooth="yes"/>
      <point x="298" y="508"/>
      <point x="276" y="530"/>
      <point x="245" y="530" type="curve" smooth="yes"/>
      <point x="213" y="530"/>
      <point x="193" y="512"/>
      <point x="193" y="484" type="curve" smooth="yes"/>
      <point x="193" y="473"/>
      <point x="195" y="465"/>
      <point x="201" y="444" type="curve"/>
      <point x="152" y="450" type="line"/>
      <point x="150" y="458"/>
      <point x="150" y="461"/>
      <point x="150" y="466" type="curve" smooth="yes"/>
      <point x="150" y="517"/>
      <point x="210" y="562"/>
      <point x="280" y="562" type="curve" smooth="yes"/>
      <point x="322" y="562"/>
      <point x="350" y="536"/>
      <point x="350" y="497" type="curve" smooth="yes"/>
      <point x="350" y="477"/>
      <point x="345" y="459"/>
      <point x="332" y="437" type="curve" smooth="yes"/>
      <point x="319" y="414"/>
      <point x="312" y="406"/>
      <point x="276" y="378" type="curve"/>
      <point x="182" y="298" type="line"/>
      <point x="166" y="283" type="line"/>
      <point x="189" y="281"/>
      <point x="199" y="279"/>
      <point x="259" y="266" type="curve" smooth="yes"/>
      <point x="265" y="265"/>
      <point x="269" y="264"/>
      <point x="273" y="264" type="curve" smooth="yes"/>
      <point x="288" y="264"/>
      <point x="294" y="268"/>
      <point x="342" y="320" type="curve"/>
      <point x="354" y="303" type="line"/>
      <point x="289" y="221" type="line"/>
      <point x="281" y="218"/>
      <point x="278" y="217"/>
      <point x="273" y="217" type="curve" smooth="yes"/>
      <point x="263" y="217"/>
      <point x="203" y="228"/>
      <point x="157" y="239" type="curve" smooth="yes"/>
      <point x="148" y="241"/>
      <point x="140" y="242"/>
      <point x="134" y="242" type="curve" smooth="yes"/>
      <point x="120" y="242"/>
      <point x="112" y="236"/>
    </contour>
  </outline>
</glyph>
<glyph name="threesuperior" format="1">
  <advance width="264"/>
  <unicode hex="00B3"/>
  <outline>
    <contour>
      <point x="69" y="233" type="curve"/>
      <point x="101" y="268" type="line"/>
      <point x="144" y="249"/>
      <point x="163" y="244"/>
      <point x="188" y="244" type="curve" smooth="yes"/>
      <point x="241" y="244"/>
      <point x="284" y="287"/>
      <point x="284" y="339" type="curve" smooth="yes"/>
      <point x="284" y="368"/>
      <point x="259" y="389"/>
      <point x="222" y="389" type="curve" smooth="yes"/>
      <point x="208" y="389"/>
      <point x="198" y="387"/>
      <point x="158" y="375" type="curve"/>
      <point x="154" y="374" type="line"/>
      <point x="159" y="396" type="line"/>
      <point x="249" y="427"/>
      <point x="291" y="457"/>
      <point x="291" y="492" type="curve" smooth="yes"/>
      <point x="291" y="510"/>
      <point x="274" y="524"/>
      <point x="253" y="524" type="curve" smooth="yes"/>
      <point x="238" y="524"/>
      <point x="226" y="520"/>
      <point x="199" y="504" type="curve" smooth="yes"/>
      <point x="184" y="495" type="line"/>
      <point x="184" y="515" type="line"/>
      <point x="204" y="529"/>
      <point x="225" y="543"/>
      <point x="246" y="556" type="curve"/>
      <point x="263" y="560"/>
      <point x="272" y="561"/>
      <point x="282" y="561" type="curve" smooth="yes"/>
      <point x="318" y="561"/>
      <point x="343" y="543"/>
      <point x="343" y="516" type="curve" smooth="yes"/>
      <point x="343" y="496"/>
      <point x="335" y="482"/>
      <point x="313" y="461" type="curve"/>
      <point x="289" y="446"/>
      <point x="281" y="441"/>
      <point x="272" y="435" type="curve" smooth="yes"/>
      <point x="267" y="431" type="line"/>
      <point x="271" y="431" type="line" smooth="yes"/>
      <point x="281" y="431"/>
      <point x="307" y="421"/>
      <point x="316" y="413" type="curve" smooth="yes"/>
      <point x="330" y="402"/>
      <point x="336" y="388"/>
      <point x="336" y="370" type="curve" smooth="yes"/>
      <point x="336" y="288"/>
      <point x="246" y="212"/>
      <point x="150" y="212" type="curve" smooth="yes"/>
      <point x="118" y="212"/>
      <point x="102" y="216"/>
    </contour>
  </outline>
</glyph>
<glyph name="acute" format="1">
  <advance width="300"/>
  <unicode hex="00B4"/>
  <outline>
    <contour>
      <point x="229" y="460" type="curve"/>
      <point x="205" y="466" type="line"/>
      <point x="343" y="655" type="line"/>
      <point x="388" y="633" type="line"/>
      <point x="311" y="555"/>
      <point x="291" y="533"/>
    </contour>
  </outline>
</glyph>
<glyph name="cedilla" format="1">
  <advance width="300"/>
  <unicode hex="00B8"/>
  <outline>
    <contour>
      <point x="216" y="0" type="line"/>
      <point x="169" y="-64" type="line"/>
      <point x="184" y="-70"/>
      <point x="193" y="-84"/>
      <point x="193" y="-102" type="curve" smooth="yes"/>
      <point x="193" y="-149"/>
      <point x="141" y="-191"/>
      <point x="56" y="-212" type="curve"/>
      <point x="41" y="-199" type="line"/>
      <point x="70" y="-191"/>
      <point x="81" y="-186"/>
      <point x="104" y="-167" type="curve"/>
      <point x="125" y="-151"/>
      <point x="131" y="-143"/>
      <point x="131" y="-130" type="curve" smooth="yes"/>
      <point x="131" y="-116"/>
      <point x="125" y="-108"/>
      <point x="104" y="-92" type="curve"/>
      <point x="181" y="0" type="line"/>
    </contour>
  </outline>
</glyph>
<glyph name="guillemotright" format="1">
  <advance width="380"/>
  <unicode hex="00BB"/>
  <outline>
    <contour>
      <point x="217" y="-3" type="curve"/>
      <point x="208" y="25" type="line"/>
      <point x="236" y="64"/>
      <point x="266" y="102"/>
      <point x="344" y="200" type="curve"/>
      <point x="327" y="257"/>
      <point x="314" y="308"/>
      <point x="297" y="383" type="curve"/>
      <point x="318" y="406"/>
      <point x="322" y="410"/>
      <point x="339" y="423" type="curve"/>
      <point x="361" y="357"/>
      <point x="378" y="299"/>
      <point x="393" y="249" type="curve" smooth="yes"/>
      <point x="407" y="205" type="line"/>
      <point x="371" y="168" type="line"/>
      <point x="316" y="106" type="line" smooth="yes"/>
      <point x="309" y="99"/>
      <point x="248" y="32"/>
    </contour>
    <contour>
      <point x="96" y="-3" type="curve"/>
      <point x="87" y="25" type="line"/>
      <point x="112" y="61"/>
      <point x="145" y="102"/>
      <point x="224" y="200" type="curve"/>
      <point x="209" y="250"/>
      <point x="194" y="306"/>
      <point x="177" y="383" type="curve"/>
      <point x="198" y="406"/>
      <point x="202" y="410"/>
      <point x="219" y="423" type="curve"/>
      <point x="243" y="346" type="line" smooth="yes"/>
      <point x="248" y="332"/>
      <point x="258" y="300"/>
      <point x="273" y="249" type="curve" smooth="yes"/>
      <point x="274" y="243"/>
      <point x="279" y="227"/>
      <point x="286" y="205" type="curve"/>
      <point x="267" y="185"/>
      <point x="255" y="172"/>
      <point x="250" y="168" type="curve"/>
      <point x="159" y="66" type="line" smooth="yes"/>
      <point x="134" y="39"/>
      <point x="113" y="17"/>
    </contour>
  </outline>
</glyph>
<glyph name="onequarter" format="1">
  <advance width="660"/>
  <unicode hex="00BC"/>
  <outline>
    <contour>
      <point x="522" y="-9" type="line"/>
      <point x="546" y="90" type="line"/>
      <point x="521" y="90" type="line"/>
      <point x="439" y="90" type="line"/>
      <point x="431" y="91"/>
      <point x="426" y="91"/>
      <point x="424" y="91" type="curve" smooth="yes"/>
      <point x="421" y="91"/>
      <point x="416" y="91"/>
      <point x="409" y="90" type="curve"/>
      <point x="418" y="111"/>
      <point x="424" y="122"/>
      <point x="435" y="135" type="curve" smooth="yes"/>
      <point x="480" y="191" type="line" smooth="yes"/>
      <point x="509" y="228"/>
      <point x="534" y="257"/>
      <point x="541" y="263" type="curve" smooth="yes"/>
      <point x="558" y="280"/>
      <point x="574" y="297"/>
      <point x="591" y="313" type="curve" smooth="yes"/>
      <point x="592" y="315"/>
      <point x="598" y="321"/>
      <point x="606" y="330" type="curve"/>
      <point x="619" y="337" type="line" smooth="yes"/>
      <point x="634" y="344"/>
      <point x="646" y="350"/>
      <point x="653" y="352" type="curve"/>
      <point x="647" y="329" type="line" smooth="yes"/>
      <point x="643" y="313"/>
      <point x="639" y="296"/>
      <point x="638" y="293" type="curve" smooth="yes"/>
      <point x="634" y="274"/>
      <point x="630" y="255"/>
      <point x="625" y="236" type="curve" smooth="yes"/>
      <point x="623" y="227"/>
      <point x="620" y="210"/>
      <point x="608" y="160" type="curve" smooth="yes"/>
      <point x="600" y="125" type="line"/>
      <point x="609" y="125" type="line"/>
      <point x="623" y="126" type="line"/>
      <point x="633" y="126" type="line"/>
      <point x="636" y="125"/>
      <point x="641" y="125"/>
      <point x="652" y="125" type="curve"/>
      <point x="626" y="90" type="line"/>
      <point x="602" y="90" type="line"/>
      <point x="591" y="90" type="line"/>
      <point x="589" y="80" type="line" smooth="yes"/>
      <point x="586" y="68"/>
      <point x="582" y="44"/>
      <point x="582" y="37" type="curve" smooth="yes"/>
      <point x="582" y="28"/>
      <point x="584" y="22"/>
      <point x="589" y="7" type="curve"/>
      <point x="581" y="3"/>
      <point x="576" y="1"/>
      <point x="573" y="0" type="curve" smooth="yes"/>
      <point x="560" y="-4" type="line" smooth="yes"/>
      <point x="559" y="-4"/>
      <point x="555" y="-6"/>
      <point x="548" y="-9" type="curve" smooth="yes"/>
      <point x="546" y="-10"/>
      <point x="540" y="-12"/>
      <point x="533" y="-15" type="curve"/>
    </contour>
    <contour>
      <point x="460" y="125" type="line"/>
      <point x="554" y="125" type="line"/>
      <point x="572" y="200"/>
      <point x="585" y="257"/>
      <point x="589" y="272" type="curve" smooth="yes"/>
      <point x="591" y="281" type="line"/>
      <point x="553" y="238" type="line" smooth="yes"/>
      <point x="521" y="203"/>
      <point x="501" y="178"/>
      <point x="471" y="141" type="curve"/>
    </contour>
    <contour>
      <point x="215" y="-4" type="line"/>
      <point x="204" y="-3" type="line"/>
      <point x="255" y="74"/>
      <point x="262" y="86"/>
      <point x="407" y="329" type="curve" smooth="yes"/>
      <point x="506" y="495"/>
      <point x="517" y="514"/>
      <point x="556" y="585" type="curve"/>
      <point x="562" y="584"/>
      <point x="568" y="583"/>
      <point x="570" y="583" type="curve" smooth="yes"/>
      <point x="572" y="583"/>
      <point x="577" y="582"/>
      <point x="586" y="581" type="curve" smooth="yes"/>
      <point x="588" y="581"/>
      <point x="593" y="581"/>
      <point x="599" y="580" type="curve"/>
      <point x="549" y="506"/>
      <point x="542" y="494"/>
      <point x="477" y="384" type="curve" smooth="yes"/>
      <point x="378" y="217" type="line"/>
      <point x="299" y="86"/>
      <point x="292" y="75"/>
      <point x="249" y="-5" type="curve"/>
      <point x="238" y="-5" type="line"/>
    </contour>
    <contour>
      <point x="96" y="217" type="curve"/>
      <point x="120" y="244" type="line"/>
      <point x="124" y="244" type="line"/>
      <point x="135" y="246" type="line" smooth="yes"/>
      <point x="139" y="246"/>
      <point x="142" y="246"/>
      <point x="170" y="249" type="curve" smooth="yes"/>
      <point x="188" y="250"/>
      <point x="188" y="251"/>
      <point x="193" y="270" type="curve" smooth="yes"/>
      <point x="247" y="505" type="line"/>
      <point x="215" y="493"/>
      <point x="204" y="489"/>
      <point x="181" y="478" type="curve"/>
      <point x="158" y="494" type="line"/>
      <point x="216" y="518"/>
      <point x="229" y="524"/>
      <point x="286" y="555" type="curve" smooth="yes"/>
      <point x="300" y="562"/>
      <point x="302" y="563"/>
      <point x="313" y="568" type="curve"/>
      <point x="295" y="504"/>
      <point x="243" y="275"/>
      <point x="243" y="262" type="curve" smooth="yes"/>
      <point x="243" y="249"/>
      <point x="259" y="246"/>
      <point x="324" y="244" type="curve"/>
      <point x="305" y="217" type="line"/>
      <point x="278" y="217" type="line"/>
      <point x="204" y="219" type="line"/>
      <point x="120" y="217"/>
      <point x="114" y="217"/>
    </contour>
  </outline>
</glyph>
<glyph name="onehalf" format="1">
  <advance width="660"/>
  <unicode hex="00BD"/>
  <outline>
    <contour>
      <point x="207" y="-4" type="line"/>
      <point x="196" y="-3" type="line"/>
      <point x="247" y="74"/>
      <point x="254" y="86"/>
      <point x="399" y="329" type="curve" smooth="yes"/>
      <point x="498" y="495"/>
      <point x="509" y="514"/>
      <point x="548" y="585" type="curve"/>
      <point x="554" y="584"/>
      <point x="560" y="583"/>
      <point x="562" y="583" type="curve" smooth="yes"/>
      <point x="564" y="583"/>
      <point x="569" y="582"/>
      <point x="578" y="581" type="curve" smooth="yes"/>
      <point x="580" y="581"/>
      <point x="585" y="581"/>
      <point x="591" y="580" type="curve"/>
      <point x="541" y="506"/>
      <point x="534" y="494"/>
      <point x="469" y="384" type="curve" smooth="yes"/>
      <point x="370" y="217" type="line"/>
      <point x="291" y="86"/>
      <point x="284" y="75"/>
      <point x="241" y="-5" type="curve"/>
      <point x="230" y="-5" type="line"/>
    </contour>
    <contour>
      <point x="96" y="217" type="curve"/>
      <point x="120" y="244" type="line"/>
      <point x="124" y="244" type="line"/>
      <point x="135" y="246" type="line" smooth="yes"/>
      <point x="139" y="246"/>
      <point x="142" y="246"/>
      <point x="170" y="249" type="curve" smooth="yes"/>
      <point x="188" y="250"/>
      <point x="188" y="251"/>
      <point x="193" y="270" type="curve" smooth="yes"/>
      <point x="247" y="505" type="line"/>
      <point x="215" y="493"/>
      <point x="204" y="489"/>
      <point x="181" y="478" type="curve"/>
      <point x="158" y="494" type="line"/>
      <point x="216" y="518"/>
      <point x="229" y="524"/>
      <point x="286" y="555" type="curve" smooth="yes"/>
      <point x="300" y="562"/>
      <point x="302" y="563"/>
      <point x="313" y="568" type="curve"/>
      <point x="295" y="504"/>
      <point x="243" y="275"/>
      <point x="243" y="262" type="curve" smooth="yes"/>
      <point x="243" y="249"/>
      <point x="259" y="246"/>
      <point x="324" y="244" type="curve"/>
      <point x="305" y="217" type="line"/>
      <point x="278" y="217" type="line"/>
      <point x="204" y="219" type="line"/>
      <point x="120" y="217"/>
      <point x="114" y="217"/>
    </contour>
    <contour>
      <point x="388" y="-10" type="curve"/>
      <point x="385" y="13" type="line"/>
      <point x="416" y="50"/>
      <point x="431" y="65"/>
      <point x="510" y="133" type="curve" smooth="yes"/>
      <point x="586" y="199"/>
      <point x="603" y="223"/>
      <point x="603" y="262" type="curve" smooth="yes"/>
      <point x="603" y="292"/>
      <point x="581" y="314"/>
      <point x="550" y="314" type="curve" smooth="yes"/>
      <point x="518" y="314"/>
      <point x="498" y="296"/>
      <point x="498" y="268" type="curve" smooth="yes"/>
      <point x="498" y="257"/>
      <point x="500" y="249"/>
      <point x="506" y="228" type="curve"/>
      <point x="457" y="234" type="line"/>
      <point x="455" y="242"/>
      <point x="455" y="245"/>
      <point x="455" y="250" type="curve" smooth="yes"/>
      <point x="455" y="301"/>
      <point x="515" y="346"/>
      <point x="585" y="346" type="curve" smooth="yes"/>
      <point x="627" y="346"/>
      <point x="655" y="320"/>
      <point x="655" y="281" type="curve" smooth="yes"/>
      <point x="655" y="261"/>
      <point x="650" y="243"/>
      <point x="637" y="221" type="curve" smooth="yes"/>
      <point x="624" y="198"/>
      <point x="617" y="190"/>
      <point x="581" y="162" type="curve" smooth="yes"/>
      <point x="580" y="162"/>
      <point x="554" y="139"/>
      <point x="538" y="125" type="curve" smooth="yes"/>
      <point x="487" y="82" type="line"/>
      <point x="471" y="67" type="line"/>
      <point x="494" y="65"/>
      <point x="504" y="63"/>
      <point x="564" y="50" type="curve" smooth="yes"/>
      <point x="570" y="49"/>
      <point x="574" y="48"/>
      <point x="578" y="48" type="curve" smooth="yes"/>
      <point x="593" y="48"/>
      <point x="599" y="52"/>
      <point x="647" y="104" type="curve"/>
      <point x="659" y="87" type="line"/>
      <point x="594" y="5" type="line"/>
      <point x="586" y="2"/>
      <point x="583" y="1"/>
      <point x="578" y="1" type="curve" smooth="yes"/>
      <point x="568" y="1"/>
      <point x="508" y="12"/>
      <point x="462" y="23" type="curve" smooth="yes"/>
      <point x="453" y="25"/>
      <point x="445" y="26"/>
      <point x="439" y="26" type="curve" smooth="yes"/>
      <point x="425" y="26"/>
      <point x="417" y="20"/>
    </contour>
  </outline>
</glyph>
<glyph name="questiondown" format="1">
  <advance width="400"/>
  <unicode hex="00BF"/>
  <outline>
    <contour>
      <point x="365" y="284" type="line"/>
      <point x="351" y="273" type="line"/>
      <point x="345" y="283"/>
      <point x="338" y="294"/>
      <point x="332" y="305" type="curve" smooth="yes"/>
      <point x="315" y="331" type="line" smooth="yes"/>
      <point x="311" y="336"/>
      <point x="307" y="342"/>
      <point x="304" y="347" type="curve"/>
      <point x="332" y="375"/>
      <point x="342" y="383"/>
      <point x="378" y="409" type="curve"/>
      <point x="397" y="387"/>
      <point x="416" y="356"/>
      <point x="425" y="332" type="curve"/>
      <point x="398" y="311" type="line"/>
      <point x="389" y="304" type="line"/>
    </contour>
    <contour>
      <point x="335" y="226" type="curve"/>
      <point x="369" y="237" type="line"/>
      <point x="363" y="163"/>
      <point x="361" y="148"/>
      <point x="352" y="76" type="curve"/>
      <point x="334" y="61" type="line"/>
      <point x="312" y="66"/>
      <point x="301" y="67"/>
      <point x="287" y="67" type="curve" smooth="yes"/>
      <point x="241" y="67"/>
      <point x="208" y="52"/>
      <point x="179" y="19" type="curve"/>
      <point x="154" y="-11"/>
      <point x="139" y="-48"/>
      <point x="139" y="-83" type="curve" smooth="yes"/>
      <point x="139" y="-122"/>
      <point x="162" y="-149"/>
      <point x="195" y="-149" type="curve" smooth="yes"/>
      <point x="238" y="-149"/>
      <point x="277" y="-119"/>
      <point x="307" y="-63" type="curve"/>
      <point x="317" y="-91"/>
      <point x="321" y="-100"/>
      <point x="328" y="-124" type="curve"/>
      <point x="283" y="-165"/>
      <point x="239" y="-181"/>
      <point x="174" y="-181" type="curve" smooth="yes"/>
      <point x="102" y="-181"/>
      <point x="57" y="-145"/>
      <point x="57" y="-88" type="curve" smooth="yes"/>
      <point x="57" y="-22"/>
      <point x="95" y="43"/>
      <point x="153" y="76" type="curve" smooth="yes"/>
      <point x="190" y="98"/>
      <point x="209" y="103"/>
      <point x="279" y="109" type="curve"/>
      <point x="312" y="108"/>
      <point x="328" y="142"/>
    </contour>
  </outline>
</glyph>
<glyph name="Icircumflex" format="1">
  <advance width="380"/>
  <unicode hex="00CE"/>
  <outline>
    <contour>
      <point x="81" y="0" type="curve"/>
      <point x="117" y="25" type="line"/>
      <point x="176" y="32" type="line"/>
      <point x="183" y="56"/>
      <point x="189" y="79"/>
      <point x="191" y="85" type="curve" smooth="yes"/>
      <point x="196" y="102"/>
      <point x="207" y="146"/>
      <point x="270" y="393" type="curve" smooth="yes"/>
      <point x="291" y="475" type="line" smooth="yes"/>
      <point x="292" y="480"/>
      <point x="298" y="505"/>
      <point x="306" y="542" type="curve"/>
      <point x="216" y="548" type="line"/>
      <point x="251" y="573" type="line"/>
      <point x="308" y="572"/>
      <point x="312" y="572"/>
      <point x="328" y="572" type="curve" smooth="yes"/>
      <point x="345" y="572"/>
      <point x="345" y="572"/>
      <point x="447" y="573" type="curve"/>
      <point x="481" y="573" type="line"/>
      <point x="446" y="548" type="line"/>
      <point x="388" y="542" type="line"/>
      <point x="341" y="370"/>
      <point x="278" y="120"/>
      <point x="259" y="32" type="curve"/>
      <point x="352" y="25" type="line"/>
      <point x="316" y="0" type="line"/>
      <point x="160" y="1" type="line" smooth="yes"/>
      <point x="146" y="1"/>
      <point x="146" y="1"/>
    </contour>
    <contour>
      <point x="276" y="634" type="line"/>
      <point x="275" y="644" type="line" smooth="yes"/>
      <point x="275" y="645"/>
      <point x="274" y="649"/>
      <point x="273" y="653" type="curve"/>
      <point x="381" y="762"/>
      <point x="402" y="781"/>
      <point x="446" y="819" type="curve"/>
      <point x="454" y="820"/>
      <point x="458" y="821"/>
      <point x="460" y="821" type="curve" smooth="yes"/>
      <point x="463" y="821"/>
      <point x="468" y="820"/>
      <point x="473" y="819" type="curve"/>
      <point x="477" y="766"/>
      <point x="478" y="745"/>
      <point x="479" y="734" type="curve" smooth="yes"/>
      <point x="487" y="645" type="line"/>
      <point x="474" y="639"/>
      <point x="470" y="636"/>
      <point x="451" y="625" type="curve"/>
      <point x="450" y="636"/>
      <point x="449" y="642"/>
      <point x="448" y="648" type="curve" smooth="yes"/>
      <point x="442" y="695" type="line"/>
      <point x="431" y="759" type="line"/>
      <point x="398" y="733"/>
      <point x="383" y="721"/>
      <point x="358" y="699" type="curve" smooth="yes"/>
      <point x="277" y="625" type="line"/>
    </contour>
  </outline>
</glyph>
<glyph name="Oacute" format="1">
  <advance width="600"/>
  <unicode hex="00D3"/>
  <outline>
    <contour>
      <point x="487" y="591" type="curve" smooth="yes"/>
      <point x="594" y="591"/>
      <point x="652" y="522"/>
      <point x="652" y="396" type="curve" smooth="yes"/>
      <point x="652" y="276"/>
      <point x="612" y="172"/>
      <point x="540" y="102" type="curve" smooth="yes"/>
      <point x="465" y="30"/>
      <point x="365" y="-13"/>
      <point x="274" y="-13" type="curve" smooth="yes"/>
      <point x="163" y="-13"/>
      <point x="104" y="55"/>
      <point x="104" y="183" type="curve" smooth="yes"/>
      <point x="104" y="309"/>
      <point x="149" y="420"/>
      <point x="229" y="490" type="curve"/>
      <point x="298" y="549"/>
      <point x="404" y="591"/>
    </contour>
    <contour>
      <point x="429" y="552" type="curve" smooth="yes"/>
      <point x="293" y="552"/>
      <point x="186" y="407"/>
      <point x="186" y="222" type="curve" smooth="yes"/>
      <point x="186" y="99"/>
      <point x="240" y="27"/>
      <point x="332" y="27" type="curve" smooth="yes"/>
      <point x="406" y="27"/>
      <point x="474" y="71"/>
      <point x="517" y="147" type="curve" smooth="yes"/>
      <point x="549" y="204"/>
      <point x="570" y="290"/>
      <point x="570" y="366" type="curve" smooth="yes"/>
      <point x="570" y="482"/>
      <point x="518" y="552"/>
    </contour>
    <contour>
      <point x="433" y="625" type="curve"/>
      <point x="409" y="632" type="line"/>
      <point x="443" y="676"/>
      <point x="489" y="739"/>
      <point x="547" y="820" type="curve"/>
      <point x="592" y="799" type="line"/>
      <point x="515" y="720"/>
      <point x="495" y="698"/>
    </contour>
  </outline>
</glyph>
<glyph name="Ocircumflex" format="1">
  <advance width="600"/>
  <unicode hex="00D4"/>
  <outline>
    <contour>
      <point x="487" y="591" type="curve" smooth="yes"/>
      <point x="594" y="591"/>
      <point x="652" y="522"/>
      <point x="652" y="396" type="curve" smooth="yes"/>
      <point x="652" y="276"/>
      <point x="612" y="172"/>
      <point x="540" y="102" type="curve" smooth="yes"/>
      <point x="465" y="30"/>
      <point x="365" y="-13"/>
      <point x="274" y="-13" type="curve" smooth="yes"/>
      <point x="163" y="-13"/>
      <point x="104" y="55"/>
      <point x="104" y="183" type="curve" smooth="yes"/>
      <point x="104" y="309"/>
      <point x="149" y="420"/>
      <point x="229" y="490" type="curve"/>
      <point x="298" y="549"/>
      <point x="404" y="591"/>
    </contour>
    <contour>
      <point x="429" y="552" type="curve" smooth="yes"/>
      <point x="293" y="552"/>
      <point x="186" y="407"/>
      <point x="186" y="222" type="curve" smooth="yes"/>
      <point x="186" y="99"/>
      <point x="240" y="27"/>
      <point x="332" y="27" type="curve" smooth="yes"/>
      <point x="406" y="27"/>
      <point x="474" y="71"/>
      <point x="517" y="147" type="curve" smooth="yes"/>
      <point x="549" y="204"/>
      <point x="570" y="290"/>
      <point x="570" y="366" type="curve" smooth="yes"/>
      <point x="570" y="482"/>
      <point x="518" y="552"/>
    </contour>
    <contour>
      <point x="362" y="634" type="line"/>
      <point x="361" y="644" type="line" smooth="yes"/>
      <point x="361" y="645"/>
      <point x="360" y="649"/>
      <point x="359" y="653" type="curve"/>
      <point x="467" y="762"/>
      <point x="488" y="781"/>
      <point x="532" y="819" type="curve"/>
      <point x="540" y="820"/>
      <point x="544" y="821"/>
      <point x="546" y="821" type="curve" smooth="yes"/>
      <point x="549" y="821"/>
      <point x="554" y="820"/>
      <point x="559" y="819" type="curve"/>
      <point x="563" y="766"/>
      <point x="564" y="745"/>
      <point x="565" y="734" type="curve" smooth="yes"/>
      <point x="573" y="645" type="line"/>
      <point x="560" y="639"/>
      <point x="556" y="636"/>
      <point x="537" y="625" type="curve"/>
      <point x="536" y="636"/>
      <point x="535" y="642"/>
      <point x="534" y="648" type="curve" smooth="yes"/>
      <point x="528" y="695" type="line"/>
      <point x="517" y="759" type="line"/>
      <point x="484" y="733"/>
      <point x="469" y="721"/>
      <point x="444" y="699" type="curve" smooth="yes"/>
      <point x="363" y="625" type="line"/>
    </contour>
  </outline>
</glyph>
<glyph name="Uacute" format="1">
  <advance width="740"/>
  <unicode hex="00DA"/>
  <outline>
    <contour>
      <point x="622" y="533" type="curve"/>
      <point x="649" y="558" type="line"/>
      <point x="719" y="565"/>
      <point x="726" y="566"/>
      <point x="778" y="574" type="curve"/>
      <point x="709" y="325"/>
      <point x="658" y="110"/>
      <point x="658" y="65" type="curve" smooth="yes"/>
      <point x="658" y="41"/>
      <point x="668" y="31"/>
      <point x="695" y="31" type="curve" smooth="yes"/>
      <point x="717" y="31"/>
      <point x="736" y="32"/>
      <point x="767" y="35" type="curve"/>
      <point x="746" y="10" type="line"/>
      <point x="677" y="-6"/>
      <point x="622" y="-14"/>
      <point x="594" y="-14" type="curve" smooth="yes"/>
      <point x="576" y="-14"/>
      <point x="566" y="-6"/>
      <point x="566" y="8" type="curve" smooth="yes"/>
      <point x="566" y="16"/>
      <point x="568" y="29"/>
      <point x="574" y="58" type="curve"/>
      <point x="453" y="6"/>
      <point x="389" y="-13"/>
      <point x="334" y="-13" type="curve" smooth="yes"/>
      <point x="268" y="-13"/>
      <point x="224" y="36"/>
      <point x="224" y="109" type="curve" smooth="yes"/>
      <point x="224" y="200"/>
      <point x="272" y="315"/>
      <point x="387" y="496" type="curve"/>
      <point x="344" y="511"/>
      <point x="323" y="515"/>
      <point x="293" y="515" type="curve" smooth="yes"/>
      <point x="228" y="515"/>
      <point x="178" y="474"/>
      <point x="178" y="419" type="curve" smooth="yes"/>
      <point x="178" y="393"/>
      <point x="187" y="368"/>
      <point x="212" y="320" type="curve"/>
      <point x="145" y="266" type="line"/>
      <point x="124" y="310"/>
      <point x="116" y="336"/>
      <point x="116" y="363" type="curve" smooth="yes"/>
      <point x="116" y="418"/>
      <point x="156" y="484"/>
      <point x="220" y="534" type="curve" smooth="yes"/>
      <point x="253" y="560"/>
      <point x="292" y="572"/>
      <point x="340" y="572" type="curve" smooth="yes"/>
      <point x="363" y="572"/>
      <point x="368" y="571"/>
      <point x="432" y="561" type="curve"/>
      <point x="442" y="565" type="line"/>
      <point x="459" y="573"/>
      <point x="460" y="574"/>
      <point x="473" y="578" type="curve"/>
      <point x="479" y="570" type="line"/>
      <point x="377" y="433"/>
      <point x="306" y="260"/>
      <point x="306" y="148" type="curve" smooth="yes"/>
      <point x="306" y="78"/>
      <point x="343" y="33"/>
      <point x="399" y="33" type="curve" smooth="yes"/>
      <point x="451" y="33"/>
      <point x="493" y="47"/>
      <point x="576" y="91" type="curve"/>
      <point x="585" y="124"/>
      <point x="591" y="148"/>
      <point x="593" y="155" type="curve" smooth="yes"/>
      <point x="653" y="397" type="line" smooth="yes"/>
      <point x="667" y="451"/>
      <point x="675" y="485"/>
      <point x="678" y="498" type="curve" smooth="yes"/>
      <point x="680" y="509"/>
      <point x="683" y="521"/>
      <point x="686" y="532" type="curve"/>
      <point x="653" y="534"/>
      <point x="653" y="534"/>
      <point x="640" y="534" type="curve" smooth="yes"/>
      <point x="637" y="534"/>
      <point x="630" y="534"/>
    </contour>
    <contour>
      <point x="565" y="625" type="curve"/>
      <point x="541" y="632" type="line"/>
      <point x="575" y="676"/>
      <point x="621" y="739"/>
      <point x="679" y="820" type="curve"/>
      <point x="724" y="799" type="line"/>
      <point x="647" y="720"/>
      <point x="627" y="698"/>
    </contour>
  </outline>
</glyph>
<glyph name="Udieresis" format="1">
  <advance width="740"/>
  <unicode hex="00DC"/>
  <outline>
    <contour>
      <point x="622" y="533" type="curve"/>
      <point x="649" y="558" type="line"/>
      <point x="719" y="565"/>
      <point x="726" y="566"/>
      <point x="778" y="574" type="curve"/>
      <point x="709" y="325"/>
      <point x="658" y="110"/>
      <point x="658" y="65" type="curve" smooth="yes"/>
      <point x="658" y="41"/>
      <point x="668" y="31"/>
      <point x="695" y="31" type="curve" smooth="yes"/>
      <point x="717" y="31"/>
      <point x="736" y="32"/>
      <point x="767" y="35" type="curve"/>
      <point x="746" y="10" type="line"/>
      <point x="677" y="-6"/>
      <point x="622" y="-14"/>
      <point x="594" y="-14" type="curve" smooth="yes"/>
      <point x="576" y="-14"/>
      <point x="566" y="-6"/>
      <point x="566" y="8" type="curve" smooth="yes"/>
      <point x="566" y="16"/>
      <point x="568" y="29"/>
      <point x="574" y="58" type="curve"/>
      <point x="453" y="6"/>
      <point x="389" y="-13"/>
      <point x="334" y="-13" type="curve" smooth="yes"/>
      <point x="268" y="-13"/>
      <point x="224" y="36"/>
      <point x="224" y="109" type="curve" smooth="yes"/>
      <point x="224" y="200"/>
      <point x="272" y="315"/>
      <point x="387" y="496" type="curve"/>
      <point x="344" y="511"/>
      <point x="323" y="515"/>
      <point x="293" y="515" type="curve" smooth="yes"/>
      <point x="228" y="515"/>
      <point x="178" y="474"/>
      <point x="178" y="419" type="curve" smooth="yes"/>
      <point x="178" y="393"/>
      <point x="187" y="368"/>
      <point x="212" y="320" type="curve"/>
      <point x="145" y="266" type="line"/>
      <point x="124" y="310"/>
      <point x="116" y="336"/>
      <point x="116" y="363" type="curve" smooth="yes"/>
      <point x="116" y="418"/>
      <point x="156" y="484"/>
      <point x="220" y="534" type="curve" smooth="yes"/>
      <point x="253" y="560"/>
      <point x="292" y="572"/>
      <point x="340" y="572" type="curve" smooth="yes"/>
      <point x="363" y="572"/>
      <point x="368" y="571"/>
      <point x="432" y="561" type="curve"/>
      <point x="442" y="565" type="line"/>
      <point x="459" y="573"/>
      <point x="460" y="574"/>
      <point x="473" y="578" type="curve"/>
      <point x="479" y="570" type="line"/>
      <point x="377" y="433"/>
      <point x="306" y="260"/>
      <point x="306" y="148" type="curve" smooth="yes"/>
      <point x="306" y="78"/>
      <point x="343" y="33"/>
      <point x="399" y="33" type="curve" smooth="yes"/>
      <point x="451" y="33"/>
      <point x="493" y="47"/>
      <point x="576" y="91" type="curve"/>
      <point x="585" y="124"/>
      <point x="591" y="148"/>
      <point x="593" y="155" type="curve" smooth="yes"/>
      <point x="653" y="397" type="line" smooth="yes"/>
      <point x="667" y="451"/>
      <point x="675" y="485"/>
      <point x="678" y="498" type="curve" smooth="yes"/>
      <point x="680" y="509"/>
      <point x="683" y="521"/>
      <point x="686" y="532" type="curve"/>
      <point x="653" y="534"/>
      <point x="653" y="534"/>
      <point x="640" y="534" type="curve" smooth="yes"/>
      <point x="637" y="534"/>
      <point x="630" y="534"/>
    </contour>
    <contour>
      <point x="667" y="650" type="curve"/>
      <point x="645" y="681"/>
      <point x="637" y="697"/>
      <point x="629" y="720" type="curve"/>
      <point x="641" y="729"/>
      <point x="646" y="732"/>
      <point x="653" y="737" type="curve" smooth="yes"/>
      <point x="657" y="740"/>
      <point x="667" y="748"/>
      <point x="684" y="762" type="curve" smooth="yes"/>
      <point x="690" y="767"/>
      <point x="694" y="770"/>
      <point x="698" y="773" type="curve"/>
      <point x="708" y="748"/>
      <point x="709" y="745"/>
      <point x="712" y="739" type="curve" smooth="yes"/>
      <point x="716" y="731"/>
      <point x="720" y="724"/>
      <point x="732" y="705" type="curve"/>
      <point x="700" y="680" type="line" smooth="yes"/>
      <point x="692" y="674"/>
      <point x="689" y="671"/>
    </contour>
    <contour>
      <point x="534" y="650" type="line"/>
      <point x="512" y="683"/>
      <point x="504" y="697"/>
      <point x="496" y="720" type="curve"/>
      <point x="522" y="738"/>
      <point x="525" y="740"/>
      <point x="551" y="762" type="curve" smooth="yes"/>
      <point x="556" y="765"/>
      <point x="560" y="769"/>
      <point x="565" y="773" type="curve"/>
      <point x="576" y="748"/>
      <point x="577" y="745"/>
      <point x="580" y="739" type="curve" smooth="yes"/>
      <point x="584" y="731"/>
      <point x="588" y="724"/>
      <point x="599" y="705" type="curve"/>
      <point x="577" y="688"/>
      <point x="573" y="685"/>
      <point x="567" y="680" type="curve" smooth="yes"/>
    </contour>
  </outline>
</glyph>
<glyph name="agrave" format="1">
  <advance width="420"/>
  <unicode hex="00E0"/>
  <outline>
    <contour>
      <point x="492" y="130" type="curve"/>
      <point x="491" y="101" type="line"/>
      <point x="453" y="73"/>
      <point x="430" y="57"/>
      <point x="401" y="38" type="curve" smooth="yes"/>
      <point x="321" y="-13"/>
      <point x="321" y="-13"/>
      <point x="309" y="-13" type="curve" smooth="yes"/>
      <point x="299" y="-13"/>
      <point x="293" y="-5"/>
      <point x="293" y="8" type="curve" smooth="yes"/>
      <point x="293" y="20"/>
      <point x="298" y="51"/>
      <point x="308" y="97" type="curve"/>
      <point x="183" y="7"/>
      <point x="150" y="-13"/>
      <point x="128" y="-13" type="curve" smooth="yes"/>
      <point x="103" y="-13"/>
      <point x="87" y="19"/>
      <point x="87" y="67" type="curve" smooth="yes"/>
      <point x="87" y="148"/>
      <point x="129" y="283"/>
      <point x="166" y="325" type="curve" smooth="yes"/>
      <point x="179" y="339"/>
      <point x="221" y="370"/>
      <point x="257" y="391" type="curve" smooth="yes"/>
      <point x="283" y="407"/>
      <point x="302" y="411"/>
      <point x="343" y="411" type="curve" smooth="yes"/>
      <point x="386" y="411"/>
      <point x="421" y="407"/>
      <point x="469" y="396" type="curve"/>
      <point x="453" y="378"/>
      <point x="451" y="375"/>
      <point x="440" y="360" type="curve"/>
      <point x="404" y="227"/>
      <point x="380" y="117"/>
      <point x="380" y="91" type="curve" smooth="yes"/>
      <point x="380" y="79"/>
      <point x="385" y="71"/>
      <point x="392" y="71" type="curve" smooth="yes"/>
      <point x="402" y="71"/>
      <point x="417" y="80"/>
    </contour>
    <contour>
      <point x="297" y="124" type="curve"/>
      <point x="316" y="137" type="line"/>
      <point x="321" y="155"/>
      <point x="324" y="167"/>
      <point x="325" y="172" type="curve" smooth="yes"/>
      <point x="331" y="198"/>
      <point x="336" y="223"/>
      <point x="342" y="248" type="curve" smooth="yes"/>
      <point x="343" y="253"/>
      <point x="350" y="276"/>
      <point x="370" y="352" type="curve"/>
      <point x="334" y="360"/>
      <point x="303" y="365"/>
      <point x="285" y="365" type="curve" smooth="yes"/>
      <point x="251" y="365"/>
      <point x="229" y="344"/>
      <point x="205" y="289" type="curve" smooth="yes"/>
      <point x="180" y="232"/>
      <point x="164" y="164"/>
      <point x="164" y="114" type="curve" smooth="yes"/>
      <point x="164" y="82"/>
      <point x="174" y="64"/>
      <point x="190" y="64" type="curve" smooth="yes"/>
      <point x="208" y="64"/>
      <point x="238" y="81"/>
    </contour>
    <contour>
      <point x="323" y="646" type="line"/>
      <point x="339" y="655" type="line"/>
      <point x="371" y="567"/>
      <point x="378" y="544"/>
      <point x="401" y="466" type="curve"/>
      <point x="389" y="462"/>
      <point x="386" y="462"/>
      <point x="376" y="460" type="curve"/>
      <point x="330" y="560"/>
      <point x="313" y="593"/>
      <point x="293" y="630" type="curve"/>
      <point x="306" y="637" type="line"/>
    </contour>
  </outline>
</glyph>
<glyph name="adieresis" format="1">
  <advance width="420"/>
  <unicode hex="00E4"/>
  <outline>
    <contour>
      <point x="492" y="130" type="curve"/>
      <point x="491" y="101" type="line"/>
      <point x="453" y="73"/>
      <point x="430" y="57"/>
      <point x="401" y="38" type="curve" smooth="yes"/>
      <point x="321" y="-13"/>
      <point x="321" y="-13"/>
      <point x="309" y="-13" type="curve" smooth="yes"/>
      <point x="299" y="-13"/>
      <point x="293" y="-5"/>
      <point x="293" y="8" type="curve" smooth="yes"/>
      <point x="293" y="20"/>
      <point x="298" y="51"/>
      <point x="308" y="97" type="curve"/>
      <point x="183" y="7"/>
      <point x="150" y="-13"/>
      <point x="128" y="-13" type="curve" smooth="yes"/>
      <point x="103" y="-13"/>
      <point x="87" y="19"/>
      <point x="87" y="67" type="curve" smooth="yes"/>
      <point x="87" y="148"/>
      <point x="129" y="283"/>
      <point x="166" y="325" type="curve" smooth="yes"/>
      <point x="179" y="339"/>
      <point x="221" y="370"/>
      <point x="257" y="391" type="curve" smooth="yes"/>
      <point x="283" y="407"/>
      <point x="302" y="411"/>
      <point x="343" y="411" type="curve" smooth="yes"/>
      <point x="386" y="411"/>
      <point x="421" y="407"/>
      <point x="469" y="396" type="curve"/>
      <point x="453" y="378"/>
      <point x="451" y="375"/>
      <point x="440" y="360" type="curve"/>
      <point x="404" y="227"/>
      <point x="380" y="117"/>
      <point x="380" y="91" type="curve" smooth="yes"/>
      <point x="380" y="79"/>
      <point x="385" y="71"/>
      <point x="392" y="71" type="curve" smooth="yes"/>
      <point x="402" y="71"/>
      <point x="417" y="80"/>
    </contour>
    <contour>
      <point x="297" y="124" type="curve"/>
      <point x="316" y="137" type="line"/>
      <point x="321" y="155"/>
      <point x="324" y="167"/>
      <point x="325" y="172" type="curve" smooth="yes"/>
      <point x="331" y="198"/>
      <point x="336" y="223"/>
      <point x="342" y="248" type="curve" smooth="yes"/>
      <point x="343" y="253"/>
      <point x="350" y="276"/>
      <point x="370" y="352" type="curve"/>
      <point x="334" y="360"/>
      <point x="303" y="365"/>
      <point x="285" y="365" type="curve" smooth="yes"/>
      <point x="251" y="365"/>
      <point x="229" y="344"/>
      <point x="205" y="289" type="curve" smooth="yes"/>
      <point x="180" y="232"/>
      <point x="164" y="164"/>
      <point x="164" y="114" type="curve" smooth="yes"/>
      <point x="164" y="82"/>
      <point x="174" y="64"/>
      <point x="190" y="64" type="curve" smooth="yes"/>
      <point x="208" y="64"/>
      <point x="238" y="81"/>
    </contour>
    <contour>
      <point x="424" y="489" type="curve"/>
      <point x="402" y="520"/>
      <point x="394" y="536"/>
      <point x="386" y="559" type="curve"/>
      <point x="398" y="568"/>
      <point x="403" y="571"/>
      <point x="410" y="576" type="curve" smooth="yes"/>
      <point x="414" y="579"/>
      <point x="424" y="587"/>
      <point x="441" y="601" type="curve" smooth="yes"/>
      <point x="447" y="606"/>
      <point x="451" y="609"/>
      <point x="455" y="612" type="curve"/>
      <point x="465" y="587"/>
      <point x="466" y="584"/>
      <point x="469" y="578" type="curve" smooth="yes"/>
      <point x="473" y="570"/>
      <point x="477" y="563"/>
      <point x="489" y="544" type="curve"/>
      <point x="457" y="519" type="line" smooth="yes"/>
      <point x="449" y="513"/>
      <point x="446" y="510"/>
    </contour>
    <contour>
      <point x="291" y="489" type="line"/>
      <point x="269" y="522"/>
      <point x="261" y="536"/>
      <point x="253" y="559" type="curve"/>
      <point x="279" y="577"/>
      <point x="282" y="579"/>
      <point x="308" y="601" type="curve" smooth="yes"/>
      <point x="313" y="604"/>
      <point x="317" y="608"/>
      <point x="322" y="612" type="curve"/>
      <point x="333" y="587"/>
      <point x="334" y="584"/>
      <point x="337" y="578" type="curve" smooth="yes"/>
      <point x="341" y="570"/>
      <point x="345" y="563"/>
      <point x="356" y="544" type="curve"/>
      <point x="334" y="526"/>
      <point x="330" y="523"/>
      <point x="324" y="519" type="curve"/>
    </contour>
  </outline>
</glyph>
<glyph name="icircumflex" format="1">
  <advance width="240"/>
  <unicode hex="00EE"/>
  <outline>
    <contour>
      <point x="311" y="116" type="curve"/>
      <point x="304" y="88" type="line"/>
      <point x="295" y="82"/>
      <point x="287" y="77"/>
      <point x="277" y="71" type="curve" smooth="yes"/>
      <point x="258" y="58"/>
      <point x="239" y="46"/>
      <point x="220" y="34" type="curve" smooth="yes"/>
      <point x="168" y="0"/>
      <point x="142" y="-13"/>
      <point x="125" y="-13" type="curve" smooth="yes"/>
      <point x="111" y="-13"/>
      <point x="101" y="3"/>
      <point x="101" y="27" type="curve" smooth="yes"/>
      <point x="101" y="52"/>
      <point x="101" y="52"/>
      <point x="148" y="227" type="curve" smooth="yes"/>
      <point x="163" y="284"/>
      <point x="166" y="298"/>
      <point x="166" y="311" type="curve" smooth="yes"/>
      <point x="166" y="323"/>
      <point x="162" y="329"/>
      <point x="154" y="329" type="curve" smooth="yes"/>
      <point x="145" y="329"/>
      <point x="140" y="327"/>
      <point x="81" y="295" type="curve"/>
      <point x="83" y="323" type="line"/>
      <point x="165" y="378"/>
      <point x="224" y="411"/>
      <point x="241" y="411" type="curve" smooth="yes"/>
      <point x="248" y="411"/>
      <point x="253" y="407"/>
      <point x="253" y="401" type="curve" smooth="yes"/>
      <point x="253" y="393"/>
      <point x="243" y="353"/>
      <point x="192" y="143" type="curve" smooth="yes"/>
      <point x="186" y="121"/>
      <point x="183" y="102"/>
      <point x="183" y="92" type="curve" smooth="yes"/>
      <point x="183" y="75"/>
      <point x="190" y="64"/>
      <point x="201" y="64" type="curve" smooth="yes"/>
      <point x="214" y="64"/>
      <point x="216" y="65"/>
    </contour>
    <contour>
      <point x="136" y="469" type="line"/>
      <point x="135" y="479" type="line" smooth="yes"/>
      <point x="135" y="480"/>
      <point x="134" y="484"/>
      <point x="133" y="488" type="curve"/>
      <point x="241" y="597"/>
      <point x="262" y="616"/>
      <point x="306" y="654" type="curve"/>
      <point x="314" y="655"/>
      <point x="318" y="656"/>
      <point x="320" y="656" type="curve" smooth="yes"/>
      <point x="323" y="656"/>
      <point x="328" y="655"/>
      <point x="333" y="654" type="curve"/>
      <point x="337" y="601"/>
      <point x="338" y="580"/>
      <point x="339" y="569" type="curve" smooth="yes"/>
      <point x="342" y="540"/>
      <point x="344" y="510"/>
      <point x="347" y="480" type="curve"/>
      <point x="334" y="474"/>
      <point x="330" y="471"/>
      <point x="311" y="460" type="curve"/>
      <point x="310" y="471"/>
      <point x="307" y="495"/>
      <point x="302" y="530" type="curve"/>
      <point x="291" y="594" type="line"/>
      <point x="258" y="568"/>
      <point x="243" y="556"/>
      <point x="218" y="534" type="curve" smooth="yes"/>
      <point x="137" y="460" type="line"/>
    </contour>
  </outline>
</glyph>
<glyph name="eth" format="1">
  <advance width="400"/>
  <unicode hex="00F0"/>
  <outline>
    <contour>
      <point x="209" y="651" type="curve"/>
      <point x="232" y="668" type="line"/>
      <point x="276" y="651"/>
      <point x="318" y="629"/>
      <point x="342" y="609" type="curve"/>
      <point x="528" y="689" type="line"/>
      <point x="557" y="671" type="line"/>
      <point x="368" y="586" type="line"/>
      <point x="428" y="525"/>
      <point x="458" y="448"/>
      <point x="458" y="355" type="curve" smooth="yes"/>
      <point x="458" y="250"/>
      <point x="409" y="118"/>
      <point x="353" y="70" type="curve" smooth="yes"/>
      <point x="301" y="26"/>
      <point x="216" y="-13"/>
      <point x="173" y="-13" type="curve" smooth="yes"/>
      <point x="122" y="-13"/>
      <point x="87" y="26"/>
      <point x="87" y="84" type="curve" smooth="yes"/>
      <point x="87" y="155"/>
      <point x="115" y="247"/>
      <point x="152" y="294" type="curve"/>
      <point x="168" y="316"/>
      <point x="206" y="345"/>
      <point x="256" y="376" type="curve" smooth="yes"/>
      <point x="294" y="399"/>
      <point x="317" y="408"/>
      <point x="344" y="408" type="curve" smooth="yes"/>
      <point x="368" y="408"/>
      <point x="377" y="405"/>
      <point x="394" y="389" type="curve"/>
      <point x="391" y="449"/>
      <point x="363" y="524"/>
      <point x="327" y="568" type="curve"/>
      <point x="189" y="508" type="line"/>
      <point x="158" y="528" type="line"/>
      <point x="303" y="590" type="line"/>
      <point x="266" y="622"/>
      <point x="250" y="633"/>
    </contour>
    <contour>
      <point x="305" y="365" type="curve" smooth="yes"/>
      <point x="237" y="365"/>
      <point x="164" y="241"/>
      <point x="164" y="127" type="curve" smooth="yes"/>
      <point x="164" y="71"/>
      <point x="191" y="34"/>
      <point x="232" y="34" type="curve" smooth="yes"/>
      <point x="270" y="34"/>
      <point x="305" y="64"/>
      <point x="334" y="122" type="curve" smooth="yes"/>
      <point x="360" y="173"/>
      <point x="373" y="222"/>
      <point x="373" y="271" type="curve" smooth="yes"/>
      <point x="373" y="297"/>
      <point x="369" y="315"/>
      <point x="358" y="331" type="curve" smooth="yes"/>
      <point x="345" y="351"/>
      <point x="323" y="365"/>
    </contour>
  </outline>
</glyph>
<glyph name="ograve" format="1">
  <advance width="400"/>
  <unicode hex="00F2"/>
  <outline>
    <contour>
      <point x="359" y="411" type="curve" smooth="yes"/>
      <point x="412" y="411"/>
      <point x="449" y="373"/>
      <point x="449" y="319" type="curve" smooth="yes"/>
      <point x="449" y="250"/>
      <point x="417" y="152"/>
      <point x="377" y="98" type="curve" smooth="yes"/>
      <point x="359" y="74"/>
      <point x="326" y="49"/>
      <point x="276" y="21" type="curve"/>
      <point x="230" y="-3"/>
      <point x="202" y="-13"/>
      <point x="174" y="-13" type="curve" smooth="yes"/>
      <point x="121" y="-13"/>
      <point x="87" y="26"/>
      <point x="87" y="87" type="curve" smooth="yes"/>
      <point x="87" y="186"/>
      <point x="132" y="290"/>
      <point x="196" y="338" type="curve" smooth="yes"/>
      <point x="255" y="382"/>
      <point x="319" y="411"/>
    </contour>
    <contour>
      <point x="307" y="364" type="curve" smooth="yes"/>
      <point x="237" y="364"/>
      <point x="164" y="244"/>
      <point x="164" y="128" type="curve" smooth="yes"/>
      <point x="164" y="71"/>
      <point x="190" y="34"/>
      <point x="231" y="34" type="curve" smooth="yes"/>
      <point x="269" y="34"/>
      <point x="305" y="65"/>
      <point x="333" y="122" type="curve" smooth="yes"/>
      <point x="358" y="171"/>
      <point x="372" y="223"/>
      <point x="372" y="265" type="curve" smooth="yes"/>
      <point x="372" y="325"/>
      <point x="347" y="364"/>
    </contour>
    <contour>
      <point x="303" y="646" type="line"/>
      <point x="319" y="655" type="line"/>
      <point x="351" y="567"/>
      <point x="358" y="544"/>
      <point x="381" y="466" type="curve"/>
      <point x="369" y="462"/>
      <point x="366" y="462"/>
      <point x="356" y="460" type="curve"/>
      <point x="310" y="560"/>
      <point x="293" y="593"/>
      <point x="273" y="630" type="curve"/>
      <point x="286" y="637" type="line"/>
    </contour>
  </outline>
</glyph>
<glyph name="ocircumflex" format="1">
  <advance width="400"/>
  <unicode hex="00F4"/>
  <outline>
    <contour>
      <point x="359" y="411" type="curve" smooth="yes"/>
      <point x="412" y="411"/>
      <point x="449" y="373"/>
      <point x="449" y="319" type="curve" smooth="yes"/>
      <point x="449" y="250"/>
      <point x="417" y="152"/>
      <point x="377" y="98" type="curve" smooth="yes"/>
      <point x="359" y="74"/>
      <point x="326" y="49"/>
      <point x="276" y="21" type="curve"/>
      <point x="230" y="-3"/>
      <point x="202" y="-13"/>
      <point x="174" y="-13" type="curve" smooth="yes"/>
      <point x="121" y="-13"/>
      <point x="87" y="26"/>
      <point x="87" y="87" type="curve" smooth="yes"/>
      <point x="87" y="186"/>
      <point x="132" y="290"/>
      <point x="196" y="338" type="curve" smooth="yes"/>
      <point x="255" y="382"/>
      <point x="319" y="411"/>
    </contour>
    <contour>
      <point x="307" y="364" type="curve" smooth="yes"/>
      <point x="237" y="364"/>
      <point x="164" y="244"/>
      <point x="164" y="128" type="curve" smooth="yes"/>
      <point x="164" y="71"/>
      <point x="190" y="34"/>
      <point x="231" y="34" type="curve" smooth="yes"/>
      <point x="269" y="34"/>
      <point x="305" y="65"/>
      <point x="333" y="122" type="curve" smooth="yes"/>
      <point x="358" y="171"/>
      <point x="372" y="223"/>
      <point x="372" y="265" type="curve" smooth="yes"/>
      <point x="372" y="325"/>
      <point x="347" y="364"/>
    </contour>
    <contour>
      <point x="234" y="469" type="line"/>
      <point x="233" y="479" type="line" smooth="yes"/>
      <point x="233" y="480"/>
      <point x="232" y="484"/>
      <point x="231" y="488" type="curve"/>
      <point x="339" y="597"/>
      <point x="360" y="616"/>
      <point x="404" y="654" type="curve"/>
      <point x="412" y="655"/>
      <point x="416" y="656"/>
      <point x="418" y="656" type="curve" smooth="yes"/>
      <point x="421" y="656"/>
      <point x="426" y="655"/>
      <point x="431" y="654" type="curve"/>
      <point x="435" y="601"/>
      <point x="436" y="580"/>
      <point x="437" y="569" type="curve" smooth="yes"/>
      <point x="440" y="540"/>
      <point x="442" y="510"/>
      <point x="445" y="480" type="curve"/>
      <point x="432" y="474"/>
      <point x="428" y="471"/>
      <point x="409" y="460" type="curve"/>
      <point x="408" y="471"/>
      <point x="405" y="495"/>
      <point x="400" y="530" type="curve"/>
      <point x="389" y="594" type="line"/>
      <point x="356" y="568"/>
      <point x="341" y="556"/>
      <point x="316" y="534" type="curve" smooth="yes"/>
      <point x="235" y="460" type="line"/>
    </contour>
  </outline>
</glyph>
<glyph name="otilde" format="1">
  <advance width="400"/>
  <unicode hex="00F5"/>
  <outline>
    <contour>
      <point x="359" y="411" type="curve" smooth="yes"/>
      <point x="412" y="411"/>
      <point x="449" y="373"/>
      <point x="449" y="319" type="curve" smooth="yes"/>
      <point x="449" y="250"/>
      <point x="417" y="152"/>
      <point x="377" y="98" type="curve" smooth="yes"/>
      <point x="359" y="74"/>
      <point x="326" y="49"/>
      <point x="276" y="21" type="curve"/>
      <point x="230" y="-3"/>
      <point x="202" y="-13"/>
      <point x="174" y="-13" type="curve" smooth="yes"/>
      <point x="121" y="-13"/>
      <point x="87" y="26"/>
      <point x="87" y="87" type="curve" smooth="yes"/>
      <point x="87" y="186"/>
      <point x="132" y="290"/>
      <point x="196" y="338" type="curve" smooth="yes"/>
      <point x="255" y="382"/>
      <point x="319" y="411"/>
    </contour>
    <contour>
      <point x="307" y="364" type="curve" smooth="yes"/>
      <point x="237" y="364"/>
      <point x="164" y="244"/>
      <point x="164" y="128" type="curve" smooth="yes"/>
      <point x="164" y="71"/>
      <point x="190" y="34"/>
      <point x="231" y="34" type="curve" smooth="yes"/>
      <point x="269" y="34"/>
      <point x="305" y="65"/>
      <point x="333" y="122" type="curve" smooth="yes"/>
      <point x="358" y="171"/>
      <point x="372" y="223"/>
      <point x="372" y="265" type="curve" smooth="yes"/>
      <point x="372" y="325"/>
      <point x="347" y="364"/>
    </contour>
    <contour>
      <point x="176" y="494" type="curve"/>
      <point x="163" y="512" type="line"/>
      <point x="212" y="578"/>
      <point x="236" y="598"/>
      <point x="268" y="598" type="curve" smooth="yes"/>
      <point x="288" y="598"/>
      <point x="298" y="595"/>
      <point x="336" y="573" type="curve" smooth="yes"/>
      <point x="358" y="561"/>
      <point x="381" y="553"/>
      <point x="394" y="553" type="curve" smooth="yes"/>
      <point x="409" y="553"/>
      <point x="433" y="562"/>
      <point x="447" y="572" type="curve" smooth="yes"/>
      <point x="455" y="578"/>
      <point x="457" y="580"/>
      <point x="483" y="604" type="curve"/>
      <point x="493" y="586" type="line"/>
      <point x="439" y="519"/>
      <point x="419" y="503"/>
      <point x="388" y="503" type="curve" smooth="yes"/>
      <point x="365" y="503"/>
      <point x="353" y="508"/>
      <point x="303" y="536" type="curve" smooth="yes"/>
      <point x="282" y="548"/>
      <point x="267" y="553"/>
      <point x="253" y="553" type="curve" smooth="yes"/>
      <point x="228" y="553"/>
      <point x="213" y="541"/>
    </contour>
  </outline>
</glyph>
<glyph name="divide" format="1">
  <advance width="520"/>
  <unicode hex="00F7"/>
  <outline>
    <contour>
      <point x="309" y="120" type="curve" smooth="yes"/>
      <point x="342" y="120"/>
      <point x="370" y="92"/>
      <point x="370" y="58" type="curve" smooth="yes"/>
      <point x="370" y="24"/>
      <point x="342" y="-4"/>
      <point x="308" y="-4" type="curve" smooth="yes"/>
      <point x="274" y="-4"/>
      <point x="246" y="24"/>
      <point x="246" y="59" type="curve" smooth="yes"/>
      <point x="246" y="93"/>
      <point x="274" y="120"/>
    </contour>
    <contour>
      <point x="309" y="443" type="curve" smooth="yes"/>
      <point x="342" y="443"/>
      <point x="370" y="415"/>
      <point x="370" y="381" type="curve" smooth="yes"/>
      <point x="370" y="347"/>
      <point x="342" y="319"/>
      <point x="308" y="319" type="curve" smooth="yes"/>
      <point x="274" y="319"/>
      <point x="246" y="347"/>
      <point x="246" y="382" type="curve" smooth="yes"/>
      <point x="246" y="415"/>
      <point x="274" y="443"/>
    </contour>
    <contour>
      <point x="513" y="246" type="line"/>
      <point x="513" y="192" type="line"/>
      <point x="103" y="192" type="line"/>
      <point x="103" y="246" type="line"/>
    </contour>
  </outline>
</glyph>
<glyph name="oslash" format="1">
  <advance width="440"/>
  <unicode hex="00F8"/>
  <outline>
    <contour>
      <point x="112" y="-148" type="curve"/>
      <point x="92" y="-112" type="line"/>
      <point x="146" y="-7" type="line"/>
      <point x="109" y="13"/>
      <point x="96" y="38"/>
      <point x="96" y="89" type="curve" smooth="yes"/>
      <point x="96" y="152"/>
      <point x="116" y="221"/>
      <point x="150" y="278" type="curve" smooth="yes"/>
      <point x="173" y="318"/>
      <point x="212" y="349"/>
      <point x="280" y="385" type="curve" smooth="yes"/>
      <point x="318" y="405"/>
      <point x="338" y="411"/>
      <point x="372" y="412" type="curve"/>
      <point x="448" y="547" type="line"/>
      <point x="467" y="522" type="line"/>
      <point x="434" y="467" type="line" smooth="yes"/>
      <point x="422" y="447"/>
      <point x="410" y="427"/>
      <point x="399" y="407" type="curve"/>
      <point x="441" y="388"/>
      <point x="457" y="363"/>
      <point x="457" y="313" type="curve" smooth="yes"/>
      <point x="457" y="255"/>
      <point x="438" y="188"/>
      <point x="403" y="125" type="curve" smooth="yes"/>
      <point x="381" y="86"/>
      <point x="369" y="74"/>
      <point x="318" y="40" type="curve" smooth="yes"/>
      <point x="258" y="0"/>
      <point x="223" y="-14"/>
      <point x="184" y="-14" type="curve" smooth="yes"/>
      <point x="177" y="-14" type="line"/>
      <point x="166" y="-36" type="line" smooth="yes"/>
      <point x="160" y="-50"/>
      <point x="153" y="-63"/>
      <point x="147" y="-76" type="curve" smooth="yes"/>
      <point x="133" y="-108"/>
      <point x="128" y="-116"/>
    </contour>
    <contour>
      <point x="181" y="64" type="curve"/>
      <point x="342" y="362" type="line"/>
      <point x="332" y="365"/>
      <point x="326" y="366"/>
      <point x="320" y="366" type="curve" smooth="yes"/>
      <point x="277" y="366"/>
      <point x="238" y="336"/>
      <point x="209" y="280" type="curve" smooth="yes"/>
      <point x="184" y="232"/>
      <point x="168" y="171"/>
      <point x="168" y="124" type="curve" smooth="yes"/>
      <point x="168" y="104"/>
      <point x="172" y="88"/>
    </contour>
    <contour>
      <point x="203" y="40" type="line"/>
      <point x="215" y="34"/>
      <point x="223" y="32"/>
      <point x="233" y="32" type="curve" smooth="yes"/>
      <point x="265" y="32"/>
      <point x="301" y="56"/>
      <point x="326" y="94" type="curve" smooth="yes"/>
      <point x="358" y="145"/>
      <point x="380" y="222"/>
      <point x="380" y="286" type="curve" smooth="yes"/>
      <point x="380" y="313"/>
      <point x="377" y="326"/>
      <point x="366" y="348" type="curve"/>
      <point x="284" y="196" type="line"/>
      <point x="229" y="92" type="line"/>
    </contour>
  </outline>
</glyph>
<glyph name="Ccircumflex" format="1">
  <advance width="520"/>
  <unicode hex="0108"/>
  <outline>
    <contour>
      <point x="529" y="63" type="curve"/>
      <point x="522" y="33" type="line"/>
      <point x="436" y="-32"/>
      <point x="327" y="-73"/>
      <point x="241" y="-73" type="curve" smooth="yes"/>
      <point x="145" y="-73"/>
      <point x="88" y="-11"/>
      <point x="88" y="92" type="curve" smooth="yes"/>
      <point x="88" y="222"/>
      <point x="145" y="355"/>
      <point x="242" y="452" type="curve" smooth="yes"/>
      <point x="330" y="540"/>
      <point x="431" y="591"/>
      <point x="518" y="591" type="curve" smooth="yes"/>
      <point x="590" y="591"/>
      <point x="626" y="560"/>
      <point x="635" y="491" type="curve"/>
      <point x="561" y="428" type="line"/>
      <point x="555" y="507"/>
      <point x="525" y="544"/>
      <point x="465" y="544" type="curve" smooth="yes"/>
      <point x="317" y="544"/>
      <point x="170" y="337"/>
      <point x="170" y="129" type="curve" smooth="yes"/>
      <point x="170" y="34"/>
      <point x="220" y="-26"/>
      <point x="299" y="-26" type="curve" smooth="yes"/>
      <point x="369" y="-26"/>
      <point x="437" y="0"/>
    </contour>
    <contour>
      <point x="369" y="720" type="line"/>
      <point x="368" y="730" type="line" smooth="yes"/>
      <point x="368" y="731"/>
      <point x="367" y="735"/>
      <point x="366" y="739" type="curve"/>
      <point x="474" y="848"/>
      <point x="495" y="867"/>
      <point x="539" y="905" type="curve"/>
      <point x="547" y="906"/>
      <point x="551" y="907"/>
      <point x="553" y="907" type="curve" smooth="yes"/>
      <point x="556" y="907"/>
      <point x="561" y="906"/>
      <point x="566" y="905" type="curve"/>
      <point x="570" y="852"/>
      <point x="571" y="831"/>
      <point x="572" y="820" type="curve" smooth="yes"/>
      <point x="575" y="791"/>
      <point x="577" y="761"/>
      <point x="580" y="731" type="curve"/>
      <point x="567" y="725"/>
      <point x="563" y="722"/>
      <point x="544" y="711" type="curve"/>
      <point x="543" y="722"/>
      <point x="540" y="746"/>
      <point x="535" y="781" type="curve"/>
      <point x="524" y="845" type="line"/>
      <point x="491" y="819"/>
      <point x="476" y="807"/>
      <point x="451" y="785" type="curve" smooth="yes"/>
      <point x="370" y="711" type="line"/>
    </contour>
  </outline>
</glyph>
<glyph name="ccircumflex" format="1">
  <advance width="340"/>
  <unicode hex="0109"/>
  <outline>
    <contour>
      <point x="383" y="127" type="curve"/>
      <point x="381" y="95" type="line"/>
      <point x="290" y="27"/>
      <point x="208" y="-13"/>
      <point x="160" y="-13" type="curve" smooth="yes"/>
      <point x="114" y="-13"/>
      <point x="87" y="21"/>
      <point x="87" y="79" type="curve" smooth="yes"/>
      <point x="87" y="141"/>
      <point x="108" y="226"/>
      <point x="136" y="280" type="curve" smooth="yes"/>
      <point x="158" y="321"/>
      <point x="174" y="336"/>
      <point x="249" y="383" type="curve"/>
      <point x="285" y="407"/>
      <point x="296" y="411"/>
      <point x="314" y="411" type="curve" smooth="yes"/>
      <point x="349" y="411"/>
      <point x="371" y="384"/>
      <point x="371" y="341" type="curve" smooth="yes"/>
      <point x="371" y="340"/>
      <point x="371" y="335"/>
      <point x="370" y="330" type="curve"/>
      <point x="312" y="296" type="line"/>
      <point x="307" y="340"/>
      <point x="294" y="359"/>
      <point x="270" y="359" type="curve" smooth="yes"/>
      <point x="241" y="359"/>
      <point x="215" y="332"/>
      <point x="195" y="279" type="curve"/>
      <point x="176" y="232"/>
      <point x="164" y="168"/>
      <point x="164" y="120" type="curve" smooth="yes"/>
      <point x="164" y="72"/>
      <point x="185" y="44"/>
      <point x="221" y="44" type="curve" smooth="yes"/>
      <point x="253" y="44"/>
      <point x="306" y="72"/>
    </contour>
    <contour>
      <point x="246" y="540" type="line"/>
      <point x="245" y="550" type="line" smooth="yes"/>
      <point x="245" y="551"/>
      <point x="244" y="555"/>
      <point x="243" y="559" type="curve"/>
      <point x="351" y="668"/>
      <point x="372" y="687"/>
      <point x="416" y="725" type="curve"/>
      <point x="424" y="726"/>
      <point x="428" y="727"/>
      <point x="430" y="727" type="curve" smooth="yes"/>
      <point x="433" y="727"/>
      <point x="438" y="726"/>
      <point x="443" y="725" type="curve"/>
      <point x="447" y="672"/>
      <point x="448" y="651"/>
      <point x="449" y="640" type="curve" smooth="yes"/>
      <point x="452" y="611"/>
      <point x="454" y="581"/>
      <point x="457" y="551" type="curve"/>
      <point x="444" y="545"/>
      <point x="440" y="542"/>
      <point x="421" y="531" type="curve"/>
      <point x="420" y="542"/>
      <point x="417" y="566"/>
      <point x="412" y="601" type="curve"/>
      <point x="401" y="665" type="line"/>
      <point x="368" y="639"/>
      <point x="353" y="627"/>
      <point x="328" y="605" type="curve" smooth="yes"/>
      <point x="247" y="531" type="line"/>
    </contour>
  </outline>
</glyph>
<glyph name="Cdotaccent" format="1">
  <advance width="520"/>
  <unicode hex="010A"/>
  <outline>
    <contour>
      <point x="529" y="63" type="curve"/>
      <point x="522" y="33" type="line"/>
      <point x="436" y="-32"/>
      <point x="327" y="-73"/>
      <point x="241" y="-73" type="curve" smooth="yes"/>
      <point x="145" y="-73"/>
      <point x="88" y="-11"/>
      <point x="88" y="92" type="curve" smooth="yes"/>
      <point x="88" y="222"/>
      <point x="145" y="355"/>
      <point x="242" y="452" type="curve" smooth="yes"/>
      <point x="330" y="540"/>
      <point x="431" y="591"/>
      <point x="518" y="591" type="curve" smooth="yes"/>
      <point x="590" y="591"/>
      <point x="626" y="560"/>
      <point x="635" y="491" type="curve"/>
      <point x="561" y="428" type="line"/>
      <point x="555" y="507"/>
      <point x="525" y="544"/>
      <point x="465" y="544" type="curve" smooth="yes"/>
      <point x="317" y="544"/>
      <point x="170" y="337"/>
      <point x="170" y="129" type="curve" smooth="yes"/>
      <point x="170" y="34"/>
      <point x="220" y="-26"/>
      <point x="299" y="-26" type="curve" smooth="yes"/>
      <point x="369" y="-26"/>
      <point x="437" y="0"/>
    </contour>
    <contour>
      <point x="469" y="711" type="line"/>
      <point x="446" y="745"/>
      <point x="439" y="757"/>
      <point x="431" y="781" type="curve"/>
      <point x="457" y="799"/>
      <point x="459" y="800"/>
      <point x="486" y="823" type="curve" smooth="yes"/>
      <point x="490" y="826"/>
      <point x="494" y="829"/>
      <point x="500" y="834" type="curve"/>
      <point x="502" y="830"/>
      <point x="504" y="825"/>
      <point x="505" y="821" type="curve" smooth="yes"/>
      <point x="515" y="798"/>
      <point x="516" y="795"/>
      <point x="534" y="766" type="curve"/>
      <point x="511" y="748"/>
      <point x="508" y="745"/>
      <point x="502" y="741" type="curve"/>
    </contour>
  </outline>
</glyph>
<glyph name="cdotaccent" format="1">
  <advance width="340"/>
  <unicode hex="010B"/>
  <outline>
    <contour>
      <point x="383" y="127" type="curve"/>
      <point x="381" y="95" type="line"/>
      <point x="290" y="27"/>
      <point x="208" y="-13"/>
      <point x="160" y="-13" type="curve" smooth="yes"/>
      <point x="114" y="-13"/>
      <point x="87" y="21"/>
      <point x="87" y="79" type="curve" smooth="yes"/>
      <point x="87" y="141"/>
      <point x="108" y="226"/>
      <point x="136" y="280" type="curve" smooth="yes"/>
      <point x="158" y="321"/>
      <point x="174" y="336"/>
      <point x="249" y="383" type="curve"/>
      <point x="285" y="407"/>
      <point x="296" y="411"/>
      <point x="314" y="411" type="curve" smooth="yes"/>
      <point x="349" y="411"/>
      <point x="371" y="384"/>
      <point x="371" y="341" type="curve" smooth="yes"/>
      <point x="371" y="340"/>
      <point x="371" y="335"/>
      <point x="370" y="330" type="curve"/>
      <point x="312" y="296" type="line"/>
      <point x="307" y="340"/>
      <point x="294" y="359"/>
      <point x="270" y="359" type="curve" smooth="yes"/>
      <point x="241" y="359"/>
      <point x="215" y="332"/>
      <point x="195" y="279" type="curve"/>
      <point x="176" y="232"/>
      <point x="164" y="168"/>
      <point x="164" y="120" type="curve" smooth="yes"/>
      <point x="164" y="72"/>
      <point x="185" y="44"/>
      <point x="221" y="44" type="curve" smooth="yes"/>
      <point x="253" y="44"/>
      <point x="306" y="72"/>
    </contour>
    <contour>
      <point x="346" y="531" type="line"/>
      <point x="323" y="565"/>
      <point x="316" y="577"/>
      <point x="308" y="601" type="curve"/>
      <point x="334" y="619"/>
      <point x="336" y="620"/>
      <point x="363" y="643" type="curve" smooth="yes"/>
      <point x="367" y="646"/>
      <point x="371" y="649"/>
      <point x="377" y="654" type="curve"/>
      <point x="379" y="650"/>
      <point x="381" y="645"/>
      <point x="382" y="641" type="curve" smooth="yes"/>
      <point x="392" y="618"/>
      <point x="393" y="615"/>
      <point x="411" y="586" type="curve"/>
      <point x="388" y="568"/>
      <point x="385" y="565"/>
      <point x="379" y="561" type="curve"/>
    </contour>
  </outline>
</glyph>
<glyph name="ccaron" format="1">
  <advance width="340"/>
  <unicode hex="010D"/>
  <outline>
    <contour>
      <point x="383" y="127" type="curve"/>
      <point x="381" y="95" type="line"/>
      <point x="290" y="27"/>
      <point x="208" y="-13"/>
      <point x="160" y="-13" type="curve" smooth="yes"/>
      <point x="114" y="-13"/>
      <point x="87" y="21"/>
      <point x="87" y="79" type="curve" smooth="yes"/>
      <point x="87" y="141"/>
      <point x="108" y="226"/>
      <point x="136" y="280" type="curve" smooth="yes"/>
      <point x="158" y="321"/>
      <point x="174" y="336"/>
      <point x="249" y="383" type="curve"/>
      <point x="285" y="407"/>
      <point x="296" y="411"/>
      <point x="314" y="411" type="curve" smooth="yes"/>
      <point x="349" y="411"/>
      <point x="371" y="384"/>
      <point x="371" y="341" type="curve" smooth="yes"/>
      <point x="371" y="340"/>
      <point x="371" y="335"/>
      <point x="370" y="330" type="curve"/>
      <point x="312" y="296" type="line"/>
      <point x="307" y="340"/>
      <point x="294" y="359"/>
      <point x="270" y="359" type="curve" smooth="yes"/>
      <point x="241" y="359"/>
      <point x="215" y="332"/>
      <point x="195" y="279" type="curve"/>
      <point x="176" y="232"/>
      <point x="164" y="168"/>
      <point x="164" y="120" type="curve" smooth="yes"/>
      <point x="164" y="72"/>
      <point x="185" y="44"/>
      <point x="221" y="44" type="curve" smooth="yes"/>
      <point x="253" y="44"/>
      <point x="306" y="72"/>
    </contour>
    <contour>
      <point x="464" y="645" type="line"/>
      <point x="465" y="636" type="line" smooth="yes"/>
      <point x="465" y="634"/>
      <point x="466" y="631"/>
      <point x="467" y="626" type="curve"/>
      <point x="366" y="524"/>
      <point x="340" y="500"/>
      <point x="294" y="461" type="curve"/>
      <point x="285" y="459"/>
      <point x="282" y="458"/>
      <point x="280" y="458" type="curve" smooth="yes"/>
      <point x="277" y="458"/>
      <point x="272" y="459"/>
      <point x="267" y="461" type="curve"/>
      <point x="263" y="524"/>
      <point x="258" y="582"/>
      <point x="254" y="634" type="curve"/>
      <point x="275" y="646"/>
      <point x="275" y="646"/>
      <point x="289" y="655" type="curve"/>
      <point x="301" y="565"/>
      <point x="301" y="561"/>
      <point x="309" y="520" type="curve"/>
      <point x="365" y="565"/>
      <point x="371" y="570"/>
      <point x="434" y="628" type="curve"/>
      <point x="442" y="637"/>
      <point x="454" y="647"/>
      <point x="463" y="655" type="curve"/>
    </contour>
  </outline>
</glyph>
<glyph name="Dcaron" format="1">
  <advance width="700"/>
  <unicode hex="010E"/>
  <outline>
    <contour>
      <point x="86" y="0" type="line"/>
      <point x="134" y="46" type="line"/>
      <point x="242" y="54"/>
      <point x="268" y="85"/>
      <point x="307" y="252" type="curve"/>
      <point x="382" y="550" type="line"/>
      <point x="242" y="536"/>
      <point x="168" y="466"/>
      <point x="168" y="347" type="curve" smooth="yes"/>
      <point x="168" y="329"/>
      <point x="169" y="317"/>
      <point x="175" y="291" type="curve"/>
      <point x="93" y="254" type="line"/>
      <point x="87" y="280"/>
      <point x="86" y="292"/>
      <point x="86" y="311" type="curve" smooth="yes"/>
      <point x="86" y="396"/>
      <point x="127" y="463"/>
      <point x="212" y="518" type="curve" smooth="yes"/>
      <point x="265" y="552"/>
      <point x="317" y="570"/>
      <point x="399" y="584" type="curve"/>
      <point x="471" y="614" type="line"/>
      <point x="464" y="586" type="line"/>
      <point x="561" y="580"/>
      <point x="612" y="572"/>
      <point x="655" y="553" type="curve" smooth="yes"/>
      <point x="723" y="523"/>
      <point x="759" y="471"/>
      <point x="759" y="402" type="curve" smooth="yes"/>
      <point x="759" y="317"/>
      <point x="723" y="212"/>
      <point x="672" y="149" type="curve" smooth="yes"/>
      <point x="633" y="101"/>
      <point x="551" y="49"/>
      <point x="471" y="22" type="curve"/>
      <point x="418" y="3"/>
      <point x="378" y="0"/>
      <point x="213" y="0" type="curve" smooth="yes"/>
    </contour>
    <contour>
      <point x="456" y="555" type="curve"/>
      <point x="401" y="338" type="line" smooth="yes"/>
      <point x="356" y="157"/>
      <point x="356" y="157"/>
      <point x="240" y="49" type="curve"/>
      <point x="368" y="45" type="line"/>
      <point x="383" y="45" type="line" smooth="yes"/>
      <point x="486" y="45"/>
      <point x="545" y="69"/>
      <point x="594" y="132" type="curve" smooth="yes"/>
      <point x="639" y="189"/>
      <point x="672" y="296"/>
      <point x="672" y="382" type="curve" smooth="yes"/>
      <point x="672" y="449"/>
      <point x="643" y="504"/>
      <point x="594" y="530" type="curve" smooth="yes"/>
      <point x="563" y="546"/>
      <point x="529" y="552"/>
    </contour>
    <contour>
      <point x="667" y="811" type="line"/>
      <point x="668" y="802" type="line" smooth="yes"/>
      <point x="668" y="800"/>
      <point x="669" y="797"/>
      <point x="670" y="793" type="curve"/>
      <point x="569" y="691"/>
      <point x="543" y="666"/>
      <point x="497" y="627" type="curve"/>
      <point x="488" y="625"/>
      <point x="485" y="624"/>
      <point x="483" y="624" type="curve" smooth="yes"/>
      <point x="480" y="624"/>
      <point x="475" y="625"/>
      <point x="470" y="627" type="curve"/>
      <point x="466" y="691"/>
      <point x="461" y="748"/>
      <point x="457" y="800" type="curve"/>
      <point x="492" y="821" type="line"/>
      <point x="504" y="732"/>
      <point x="504" y="727"/>
      <point x="512" y="687" type="curve"/>
      <point x="568" y="731"/>
      <point x="574" y="737"/>
      <point x="637" y="794" type="curve"/>
      <point x="645" y="803"/>
      <point x="657" y="814"/>
      <point x="666" y="821" type="curve"/>
    </contour>
  </outline>
</glyph>
<glyph name="dcaron" format="1">
  <advance width="497"/>
  <unicode hex="010F"/>
  <outline>
    <contour>
      <point x="497" y="131" type="curve"/>
      <point x="493" y="100" type="line"/>
      <point x="410" y="40"/>
      <point x="323" y="-13"/>
      <point x="307" y="-13" type="curve" smooth="yes"/>
      <point x="293" y="-13"/>
      <point x="285" y="-2"/>
      <point x="285" y="18" type="curve" smooth="yes"/>
      <point x="285" y="36"/>
      <point x="288" y="65"/>
      <point x="293" y="90" type="curve"/>
      <point x="188" y="14"/>
      <point x="144" y="-13"/>
      <point x="125" y="-13" type="curve" smooth="yes"/>
      <point x="107" y="-13"/>
      <point x="87" y="26"/>
      <point x="87" y="64" type="curve" smooth="yes"/>
      <point x="87" y="133"/>
      <point x="132" y="274"/>
      <point x="166" y="313" type="curve"/>
      <point x="206" y="357"/>
      <point x="292" y="411"/>
      <point x="323" y="411" type="curve" smooth="yes"/>
      <point x="331" y="411"/>
      <point x="346" y="409"/>
      <point x="364" y="405" type="curve"/>
      <point x="368" y="420"/>
      <point x="371" y="433"/>
      <point x="372" y="437" type="curve" smooth="yes"/>
      <point x="398" y="540"/>
      <point x="401" y="547"/>
      <point x="450" y="594" type="curve" smooth="yes"/>
      <point x="478" y="620"/>
      <point x="512" y="646"/>
      <point x="537" y="660" type="curve" smooth="yes"/>
      <point x="560" y="673"/>
      <point x="573" y="677"/>
      <point x="597" y="677" type="curve" smooth="yes"/>
      <point x="606" y="677"/>
      <point x="614" y="676"/>
      <point x="629" y="673" type="curve"/>
      <point x="594" y="617" type="line"/>
      <point x="571" y="623"/>
      <point x="561" y="625"/>
      <point x="548" y="625" type="curve" smooth="yes"/>
      <point x="512" y="625"/>
      <point x="490" y="602"/>
      <point x="468" y="542" type="curve"/>
      <point x="447" y="480"/>
      <point x="363" y="118"/>
      <point x="363" y="85" type="curve" smooth="yes"/>
      <point x="363" y="70"/>
      <point x="369" y="59"/>
      <point x="377" y="59" type="curve" smooth="yes"/>
      <point x="386" y="59"/>
      <point x="414" y="75"/>
      <point x="469" y="113" type="curve" smooth="yes"/>
      <point x="474" y="116"/>
      <point x="484" y="123"/>
    </contour>
    <contour>
      <point x="301" y="127" type="curve"/>
      <point x="348" y="337" type="line"/>
      <point x="327" y="357"/>
      <point x="314" y="364"/>
      <point x="296" y="364" type="curve" smooth="yes"/>
      <point x="245" y="364"/>
      <point x="206" y="314"/>
      <point x="177" y="213" type="curve" smooth="yes"/>
      <point x="165" y="169"/>
      <point x="159" y="131"/>
      <point x="159" y="98" type="curve" smooth="yes"/>
      <point x="159" y="69"/>
      <point x="166" y="54"/>
      <point x="180" y="54" type="curve" smooth="yes"/>
      <point x="194" y="54"/>
      <point x="216" y="67"/>
    </contour>
    <contour>
      <point x="598" y="468" type="line"/>
      <point x="570" y="476" type="line"/>
      <point x="624" y="545"/>
      <point x="635" y="565"/>
      <point x="635" y="598" type="curve" smooth="yes"/>
      <point x="635" y="607"/>
      <point x="633" y="616"/>
      <point x="627" y="643" type="curve"/>
      <point x="690" y="678" type="line"/>
      <point x="696" y="655"/>
      <point x="697" y="646"/>
      <point x="697" y="636" type="curve" smooth="yes"/>
      <point x="697" y="603"/>
      <point x="673" y="558"/>
      <point x="621" y="495" type="curve"/>
      <point x="607" y="479" type="line"/>
    </contour>
  </outline>
</glyph>
<glyph name="ebreve" format="1">
  <advance width="340"/>
  <unicode hex="0115"/>
  <outline>
    <contour>
      <point x="380" y="137" type="curve"/>
      <point x="380" y="108" type="line"/>
      <point x="301" y="29"/>
      <point x="228" y="-13"/>
      <point x="169" y="-13" type="curve" smooth="yes"/>
      <point x="118" y="-13"/>
      <point x="87" y="24"/>
      <point x="87" y="83" type="curve" smooth="yes"/>
      <point x="87" y="164"/>
      <point x="121" y="274"/>
      <point x="159" y="320" type="curve" smooth="yes"/>
      <point x="180" y="344"/>
      <point x="214" y="371"/>
      <point x="252" y="393" type="curve" smooth="yes"/>
      <point x="275" y="406"/>
      <point x="291" y="411"/>
      <point x="313" y="411" type="curve" smooth="yes"/>
      <point x="348" y="411"/>
      <point x="370" y="390"/>
      <point x="370" y="355" type="curve" smooth="yes"/>
      <point x="370" y="310"/>
      <point x="349" y="277"/>
      <point x="295" y="236" type="curve" smooth="yes"/>
      <point x="236" y="192"/>
      <point x="206" y="171"/>
      <point x="161" y="143" type="curve"/>
      <point x="161" y="114"/>
      <point x="162" y="103"/>
      <point x="166" y="87" type="curve" smooth="yes"/>
      <point x="173" y="61"/>
      <point x="194" y="44"/>
      <point x="219" y="44" type="curve" smooth="yes"/>
      <point x="257" y="44"/>
      <point x="305" y="72"/>
    </contour>
    <contour>
      <point x="164" y="179" type="curve"/>
      <point x="271" y="248"/>
      <point x="298" y="278"/>
      <point x="298" y="328" type="curve" smooth="yes"/>
      <point x="298" y="352"/>
      <point x="287" y="369"/>
      <point x="270" y="369" type="curve" smooth="yes"/>
      <point x="227" y="369"/>
      <point x="181" y="286"/>
    </contour>
    <contour>
      <point x="206" y="652" type="curve"/>
      <point x="227" y="662" type="line"/>
      <point x="261" y="606"/>
      <point x="298" y="585"/>
      <point x="363" y="585" type="curve" smooth="yes"/>
      <point x="405" y="585"/>
      <point x="454" y="598"/>
      <point x="481" y="616" type="curve" smooth="yes"/>
      <point x="501" y="629"/>
      <point x="510" y="640"/>
      <point x="524" y="666" type="curve"/>
      <point x="539" y="656" type="line"/>
      <point x="514" y="582"/>
      <point x="438" y="531"/>
      <point x="351" y="531" type="curve" smooth="yes"/>
      <point x="301" y="531"/>
      <point x="256" y="555"/>
      <point x="230" y="595" type="curve" smooth="yes"/>
      <point x="220" y="611"/>
      <point x="214" y="625"/>
    </contour>
  </outline>
</glyph>
<glyph name="Eogonek" format="1">
  <advance width="620"/>
  <unicode hex="0118"/>
  <outline>
    <contour>
      <point x="362" y="307" type="line"/>
      <point x="541" y="307" type="line"/>
      <point x="523" y="293"/>
      <point x="521" y="291"/>
      <point x="503" y="278" type="curve"/>
      <point x="491" y="277"/>
      <point x="480" y="277"/>
      <point x="476" y="276" type="curve"/>
      <point x="470" y="276"/>
      <point x="455" y="275"/>
      <point x="433" y="274" type="curve" smooth="yes"/>
      <point x="409" y="272"/>
      <point x="403" y="272"/>
      <point x="352" y="269" type="curve"/>
      <point x="316" y="132"/>
      <point x="315" y="130"/>
      <point x="218" y="41" type="curve"/>
      <point x="478" y="41" type="line" smooth="yes"/>
      <point x="574" y="41"/>
      <point x="587" y="46"/>
      <point x="587" y="84" type="curve" smooth="yes"/>
      <point x="587" y="93"/>
      <point x="586" y="101"/>
      <point x="583" y="122" type="curve"/>
      <point x="659" y="150" type="line"/>
      <point x="662" y="140"/>
      <point x="663" y="132"/>
      <point x="663" y="127" type="curve" smooth="yes"/>
      <point x="663" y="98"/>
      <point x="627" y="55"/>
      <point x="563" y="10" type="curve" smooth="yes"/>
      <point x="505" y="-32"/>
      <point x="485" y="-52"/>
      <point x="485" y="-71" type="curve" smooth="yes"/>
      <point x="485" y="-90"/>
      <point x="503" y="-106"/>
      <point x="524" y="-106" type="curve" smooth="yes"/>
      <point x="540" y="-106"/>
      <point x="552" y="-99"/>
      <point x="573" y="-77" type="curve"/>
      <point x="586" y="-82" type="line"/>
      <point x="554" y="-130"/>
      <point x="520" y="-153"/>
      <point x="481" y="-153" type="curve" smooth="yes"/>
      <point x="449" y="-153"/>
      <point x="428" y="-132"/>
      <point x="428" y="-101" type="curve" smooth="yes"/>
      <point x="428" y="-66"/>
      <point x="447" y="-41"/>
      <point x="500" y="-8" type="curve"/>
      <point x="475" y="-8" type="line" smooth="yes"/>
      <point x="448" y="-8"/>
      <point x="448" y="-8"/>
      <point x="325" y="-4" type="curve" smooth="yes"/>
      <point x="303" y="-3"/>
      <point x="277" y="-2"/>
      <point x="244" y="-2" type="curve" smooth="yes"/>
      <point x="154" y="-1" type="line" smooth="yes"/>
      <point x="147" y="-1"/>
      <point x="126" y="-1"/>
      <point x="98" y="0" type="curve"/>
      <point x="136" y="33" type="line"/>
      <point x="218" y="53"/>
      <point x="229" y="70"/>
      <point x="267" y="224" type="curve"/>
      <point x="271" y="236"/>
      <point x="274" y="249"/>
      <point x="278" y="264" type="curve"/>
      <point x="250" y="264" type="line"/>
      <point x="267" y="284"/>
      <point x="272" y="290"/>
      <point x="289" y="307" type="curve"/>
      <point x="345" y="532" type="line"/>
      <point x="209" y="528"/>
      <point x="153" y="496"/>
      <point x="153" y="418" type="curve" smooth="yes"/>
      <point x="153" y="393"/>
      <point x="157" y="367"/>
      <point x="166" y="335" type="curve"/>
      <point x="94" y="287" type="line"/>
      <point x="80" y="322"/>
      <point x="76" y="342"/>
      <point x="76" y="368" type="curve" smooth="yes"/>
      <point x="76" y="420"/>
      <point x="98" y="460"/>
      <point x="148" y="500" type="curve" smooth="yes"/>
      <point x="205" y="545"/>
      <point x="266" y="564"/>
      <point x="362" y="565" type="curve"/>
      <point x="432" y="586" type="line"/>
      <point x="426" y="565" type="line"/>
      <point x="640" y="569" type="line"/>
      <point x="657" y="563"/>
      <point x="665" y="552"/>
      <point x="668" y="530" type="curve"/>
      <point x="602" y="464" type="line"/>
      <point x="575" y="530"/>
      <point x="568" y="537"/>
      <point x="529" y="537" type="curve" smooth="yes"/>
      <point x="523" y="537"/>
      <point x="492" y="536"/>
      <point x="450" y="534" type="curve"/>
      <point x="419" y="534" type="line"/>
    </contour>
  </outline>
</glyph>
<glyph name="Gcircumflex" format="1">
  <advance width="620"/>
  <unicode hex="011C"/>
  <outline>
    <contour>
      <point x="582" y="240" type="line"/>
      <point x="543" y="84" type="line" smooth="yes"/>
      <point x="514" y="-32"/>
      <point x="496" y="-74"/>
      <point x="453" y="-123" type="curve" smooth="yes"/>
      <point x="387" y="-200"/>
      <point x="319" y="-236"/>
      <point x="239" y="-236" type="curve" smooth="yes"/>
      <point x="219" y="-236"/>
      <point x="203" y="-235"/>
      <point x="167" y="-231" type="curve"/>
      <point x="209" y="-165" type="line"/>
      <point x="239" y="-170"/>
      <point x="288" y="-174"/>
      <point x="317" y="-174" type="curve" smooth="yes"/>
      <point x="370" y="-174"/>
      <point x="399" y="-152"/>
      <point x="419" y="-98" type="curve" smooth="yes"/>
      <point x="428" y="-76"/>
      <point x="446" y="-11"/>
      <point x="461" y="49" type="curve"/>
      <point x="372" y="4"/>
      <point x="319" y="-12"/>
      <point x="257" y="-12" type="curve" smooth="yes"/>
      <point x="171" y="-12"/>
      <point x="118" y="48"/>
      <point x="118" y="145" type="curve" smooth="yes"/>
      <point x="118" y="250"/>
      <point x="169" y="373"/>
      <point x="250" y="460" type="curve" smooth="yes"/>
      <point x="330" y="546"/>
      <point x="429" y="591"/>
      <point x="538" y="591" type="curve" smooth="yes"/>
      <point x="614" y="591"/>
      <point x="651" y="569"/>
      <point x="670" y="512" type="curve"/>
      <point x="596" y="429" type="line"/>
      <point x="590" y="471"/>
      <point x="585" y="488"/>
      <point x="572" y="508" type="curve" smooth="yes"/>
      <point x="553" y="538"/>
      <point x="518" y="555"/>
      <point x="477" y="555" type="curve" smooth="yes"/>
      <point x="337" y="555"/>
      <point x="205" y="373"/>
      <point x="205" y="178" type="curve" smooth="yes"/>
      <point x="205" y="87"/>
      <point x="251" y="29"/>
      <point x="325" y="29" type="curve" smooth="yes"/>
      <point x="371" y="29"/>
      <point x="431" y="56"/>
      <point x="473" y="96" type="curve"/>
      <point x="509" y="240" type="line"/>
      <point x="462" y="239"/>
      <point x="413" y="237"/>
      <point x="363" y="234" type="curve"/>
      <point x="363" y="242" type="line"/>
      <point x="424" y="273" type="line"/>
      <point x="517" y="273"/>
      <point x="609" y="271"/>
      <point x="649" y="268" type="curve"/>
      <point x="603" y="240" type="line"/>
    </contour>
    <contour>
      <point x="412" y="720" type="line"/>
      <point x="411" y="730" type="line" smooth="yes"/>
      <point x="411" y="731"/>
      <point x="410" y="735"/>
      <point x="409" y="739" type="curve"/>
      <point x="517" y="848"/>
      <point x="538" y="867"/>
      <point x="582" y="905" type="curve"/>
      <point x="590" y="906"/>
      <point x="594" y="907"/>
      <point x="596" y="907" type="curve" smooth="yes"/>
      <point x="599" y="907"/>
      <point x="604" y="906"/>
      <point x="609" y="905" type="curve"/>
      <point x="613" y="852"/>
      <point x="614" y="831"/>
      <point x="615" y="820" type="curve" smooth="yes"/>
      <point x="618" y="791"/>
      <point x="620" y="761"/>
      <point x="623" y="731" type="curve"/>
      <point x="610" y="725"/>
      <point x="606" y="722"/>
      <point x="587" y="711" type="curve"/>
      <point x="586" y="722"/>
      <point x="583" y="746"/>
      <point x="578" y="781" type="curve"/>
      <point x="567" y="845" type="line"/>
      <point x="534" y="819"/>
      <point x="519" y="807"/>
      <point x="494" y="785" type="curve" smooth="yes"/>
      <point x="413" y="711" type="line"/>
    </contour>
  </outline>
</glyph>
<glyph name="Hcircumflex" format="1">
  <advance width="680"/>
  <unicode hex="0124"/>
  <outline>
    <contour>
      <point x="392" y="322" type="curve"/>
      <point x="605" y="322" type="line"/>
      <point x="609" y="335"/>
      <point x="614" y="352"/>
      <point x="614" y="353" type="curve" smooth="yes"/>
      <point x="641" y="450" type="line" smooth="yes"/>
      <point x="658" y="512"/>
      <point x="672" y="538"/>
      <point x="712" y="581" type="curve" smooth="yes"/>
      <point x="777" y="650"/>
      <point x="821" y="678"/>
      <point x="863" y="678" type="curve" smooth="yes"/>
      <point x="881" y="678"/>
      <point x="889" y="677"/>
      <point x="908" y="671" type="curve"/>
      <point x="874" y="616" type="line"/>
      <point x="852" y="624"/>
      <point x="841" y="626"/>
      <point x="821" y="626" type="curve" smooth="yes"/>
      <point x="779" y="626"/>
      <point x="762" y="608"/>
      <point x="740" y="538" type="curve" smooth="yes"/>
      <point x="724" y="488"/>
      <point x="688" y="359"/>
      <point x="670" y="290" type="curve" smooth="yes"/>
      <point x="621" y="101"/>
      <point x="621" y="101"/>
      <point x="621" y="70" type="curve" smooth="yes"/>
      <point x="621" y="53"/>
      <point x="633" y="43"/>
      <point x="654" y="43" type="curve" smooth="yes"/>
      <point x="678" y="43"/>
      <point x="694" y="44"/>
      <point x="748" y="49" type="curve"/>
      <point x="730" y="24" type="line"/>
      <point x="610" y="2"/>
      <point x="605" y="1"/>
      <point x="579" y="-6" type="curve" smooth="yes"/>
      <point x="568" y="-9"/>
      <point x="558" y="-11"/>
      <point x="551" y="-11" type="curve" smooth="yes"/>
      <point x="539" y="-11"/>
      <point x="529" y="-1"/>
      <point x="529" y="10" type="curve" smooth="yes"/>
      <point x="529" y="26"/>
      <point x="545" y="93"/>
      <point x="587" y="248" type="curve" smooth="yes"/>
      <point x="588" y="254"/>
      <point x="592" y="268"/>
      <point x="597" y="289" type="curve"/>
      <point x="541" y="288"/>
      <point x="505" y="286"/>
      <point x="381" y="278" type="curve"/>
      <point x="348" y="174"/>
      <point x="345" y="168"/>
      <point x="292" y="113" type="curve" smooth="yes"/>
      <point x="240" y="59"/>
      <point x="189" y="19"/>
      <point x="159" y="10" type="curve" smooth="yes"/>
      <point x="139" y="3"/>
      <point x="114" y="0"/>
      <point x="82" y="0" type="curve" smooth="yes"/>
      <point x="65" y="0"/>
      <point x="55" y="1"/>
      <point x="33" y="4" type="curve"/>
      <point x="80" y="69" type="line"/>
      <point x="106" y="67"/>
      <point x="119" y="67"/>
      <point x="133" y="67" type="curve" smooth="yes"/>
      <point x="240" y="67"/>
      <point x="262" y="94"/>
      <point x="310" y="280" type="curve"/>
      <point x="284" y="282" type="line"/>
      <point x="320" y="320" type="line"/>
      <point x="361" y="483"/>
      <point x="362" y="486"/>
      <point x="377" y="536" type="curve"/>
      <point x="315" y="536"/>
      <point x="291" y="533"/>
      <point x="267" y="523" type="curve" smooth="yes"/>
      <point x="226" y="506"/>
      <point x="203" y="465"/>
      <point x="203" y="410" type="curve" smooth="yes"/>
      <point x="203" y="388"/>
      <point x="206" y="373"/>
      <point x="215" y="341" type="curve"/>
      <point x="140" y="316" type="line"/>
      <point x="133" y="340"/>
      <point x="131" y="351"/>
      <point x="131" y="366" type="curve" smooth="yes"/>
      <point x="131" y="429"/>
      <point x="155" y="475"/>
      <point x="209" y="515" type="curve" smooth="yes"/>
      <point x="263" y="555"/>
      <point x="331" y="573"/>
      <point x="429" y="573" type="curve" smooth="yes"/>
      <point x="443" y="573"/>
      <point x="461" y="572"/>
      <point x="487" y="571" type="curve"/>
      <point x="448" y="538" type="line"/>
      <point x="444" y="519"/>
      <point x="441" y="505"/>
      <point x="440" y="501" type="curve" smooth="yes"/>
      <point x="414" y="403"/>
      <point x="398" y="343"/>
    </contour>
    <contour>
      <point x="488" y="807" type="line"/>
      <point x="487" y="817" type="line" smooth="yes"/>
      <point x="487" y="818"/>
      <point x="486" y="822"/>
      <point x="485" y="826" type="curve"/>
      <point x="593" y="935"/>
      <point x="614" y="954"/>
      <point x="658" y="992" type="curve"/>
      <point x="666" y="993"/>
      <point x="670" y="994"/>
      <point x="672" y="994" type="curve" smooth="yes"/>
      <point x="675" y="994"/>
      <point x="680" y="993"/>
      <point x="685" y="992" type="curve"/>
      <point x="689" y="939"/>
      <point x="690" y="918"/>
      <point x="691" y="907" type="curve" smooth="yes"/>
      <point x="694" y="878"/>
      <point x="696" y="848"/>
      <point x="699" y="818" type="curve"/>
      <point x="686" y="812"/>
      <point x="682" y="809"/>
      <point x="663" y="798" type="curve"/>
      <point x="662" y="809"/>
      <point x="659" y="833"/>
      <point x="654" y="868" type="curve"/>
      <point x="643" y="932" type="line"/>
      <point x="610" y="906"/>
      <point x="595" y="894"/>
      <point x="570" y="872" type="curve" smooth="yes"/>
      <point x="489" y="798" type="line"/>
    </contour>
  </outline>
</glyph>
<glyph name="hcircumflex" format="1">
  <advance width="440"/>
  <unicode hex="0125"/>
  <outline>
    <contour>
      <point x="75" y="-9" type="line"/>
      <point x="171" y="404" type="line" smooth="yes"/>
      <point x="202" y="536"/>
      <point x="210" y="553"/>
      <point x="262" y="599" type="curve" smooth="yes"/>
      <point x="335" y="663"/>
      <point x="364" y="678"/>
      <point x="419" y="678" type="curve" smooth="yes"/>
      <point x="434" y="678"/>
      <point x="442" y="677"/>
      <point x="460" y="673" type="curve"/>
      <point x="417" y="612" type="line"/>
      <point x="378" y="620"/>
      <point x="370" y="621"/>
      <point x="357" y="621" type="curve" smooth="yes"/>
      <point x="330" y="621"/>
      <point x="309" y="608"/>
      <point x="295" y="580" type="curve" smooth="yes"/>
      <point x="282" y="555"/>
      <point x="272" y="524"/>
      <point x="248" y="426" type="curve" smooth="yes"/>
      <point x="214" y="292" type="line"/>
      <point x="339" y="373"/>
      <point x="408" y="411"/>
      <point x="429" y="411" type="curve" smooth="yes"/>
      <point x="442" y="411"/>
      <point x="450" y="404"/>
      <point x="450" y="394" type="curve" smooth="yes"/>
      <point x="450" y="390"/>
      <point x="434" y="329"/>
      <point x="402" y="211" type="curve" smooth="yes"/>
      <point x="385" y="146"/>
      <point x="379" y="117"/>
      <point x="379" y="97" type="curve" smooth="yes"/>
      <point x="379" y="81"/>
      <point x="385" y="71"/>
      <point x="394" y="71" type="curve" smooth="yes"/>
      <point x="407" y="71"/>
      <point x="421" y="78"/>
      <point x="506" y="128" type="curve"/>
      <point x="499" y="99" type="line"/>
      <point x="444" y="59"/>
      <point x="372" y="13"/>
      <point x="317" y="-15" type="curve"/>
      <point x="306" y="4"/>
      <point x="302" y="16"/>
      <point x="302" y="28" type="curve" smooth="yes"/>
      <point x="302" y="55"/>
      <point x="314" y="113"/>
      <point x="345" y="233" type="curve" smooth="yes"/>
      <point x="359" y="287"/>
      <point x="363" y="306"/>
      <point x="363" y="318" type="curve" smooth="yes"/>
      <point x="363" y="327"/>
      <point x="358" y="334"/>
      <point x="351" y="334" type="curve" smooth="yes"/>
      <point x="340" y="334"/>
      <point x="298" y="312"/>
      <point x="229" y="268" type="curve" smooth="yes"/>
      <point x="227" y="267"/>
      <point x="215" y="260"/>
      <point x="205" y="253" type="curve"/>
      <point x="146" y="20" type="line"/>
    </contour>
    <contour>
      <point x="373" y="807" type="line"/>
      <point x="372" y="817" type="line" smooth="yes"/>
      <point x="372" y="818"/>
      <point x="371" y="822"/>
      <point x="370" y="826" type="curve"/>
      <point x="478" y="935"/>
      <point x="499" y="954"/>
      <point x="543" y="992" type="curve"/>
      <point x="551" y="993"/>
      <point x="555" y="994"/>
      <point x="557" y="994" type="curve" smooth="yes"/>
      <point x="560" y="994"/>
      <point x="565" y="993"/>
      <point x="570" y="992" type="curve"/>
      <point x="574" y="939"/>
      <point x="575" y="918"/>
      <point x="576" y="907" type="curve" smooth="yes"/>
      <point x="579" y="878"/>
      <point x="581" y="848"/>
      <point x="584" y="818" type="curve"/>
      <point x="571" y="812"/>
      <point x="567" y="809"/>
      <point x="548" y="798" type="curve"/>
      <point x="547" y="809"/>
      <point x="544" y="833"/>
      <point x="539" y="868" type="curve"/>
      <point x="528" y="932" type="line"/>
      <point x="495" y="906"/>
      <point x="480" y="894"/>
      <point x="455" y="872" type="curve" smooth="yes"/>
      <point x="374" y="798" type="line"/>
    </contour>
  </outline>
</glyph>
<glyph name="Itilde" format="1">
  <advance width="380"/>
  <unicode hex="0128"/>
  <outline>
    <contour>
      <point x="81" y="0" type="curve"/>
      <point x="117" y="25" type="line"/>
      <point x="176" y="32" type="line"/>
      <point x="183" y="56"/>
      <point x="189" y="79"/>
      <point x="191" y="85" type="curve" smooth="yes"/>
      <point x="196" y="102"/>
      <point x="207" y="146"/>
      <point x="270" y="393" type="curve" smooth="yes"/>
      <point x="291" y="475" type="line" smooth="yes"/>
      <point x="292" y="480"/>
      <point x="298" y="505"/>
      <point x="306" y="542" type="curve"/>
      <point x="216" y="548" type="line"/>
      <point x="251" y="573" type="line"/>
      <point x="308" y="572"/>
      <point x="312" y="572"/>
      <point x="328" y="572" type="curve" smooth="yes"/>
      <point x="345" y="572"/>
      <point x="345" y="572"/>
      <point x="447" y="573" type="curve"/>
      <point x="481" y="573" type="line"/>
      <point x="446" y="548" type="line"/>
      <point x="388" y="542" type="line"/>
      <point x="341" y="370"/>
      <point x="278" y="120"/>
      <point x="259" y="32" type="curve"/>
      <point x="352" y="25" type="line"/>
      <point x="316" y="0" type="line"/>
      <point x="160" y="1" type="line" smooth="yes"/>
      <point x="146" y="1"/>
      <point x="146" y="1"/>
    </contour>
    <contour>
      <point x="247" y="693" type="curve"/>
      <point x="234" y="711" type="line"/>
      <point x="283" y="777"/>
      <point x="307" y="797"/>
      <point x="339" y="797" type="curve" smooth="yes"/>
      <point x="359" y="797"/>
      <point x="369" y="794"/>
      <point x="407" y="772" type="curve" smooth="yes"/>
      <point x="429" y="760"/>
      <point x="452" y="752"/>
      <point x="465" y="752" type="curve" smooth="yes"/>
      <point x="480" y="752"/>
      <point x="504" y="761"/>
      <point x="518" y="771" type="curve" smooth="yes"/>
      <point x="526" y="777"/>
      <point x="528" y="779"/>
      <point x="554" y="803" type="curve"/>
      <point x="564" y="785" type="line"/>
      <point x="510" y="718"/>
      <point x="490" y="702"/>
      <point x="459" y="702" type="curve" smooth="yes"/>
      <point x="436" y="702"/>
      <point x="424" y="707"/>
      <point x="374" y="735" type="curve" smooth="yes"/>
      <point x="353" y="747"/>
      <point x="338" y="752"/>
      <point x="324" y="752" type="curve" smooth="yes"/>
      <point x="299" y="752"/>
      <point x="284" y="740"/>
    </contour>
  </outline>
</glyph>
<glyph name="itilde" format="1">
  <advance width="240"/>
  <unicode hex="0129"/>
  <outline>
    <contour>
      <point x="311" y="116" type="curve"/>
      <point x="304" y="88" type="line"/>
      <point x="295" y="82"/>
      <point x="287" y="77"/>
      <point x="277" y="71" type="curve" smooth="yes"/>
      <point x="258" y="58"/>
      <point x="239" y="46"/>
      <point x="220" y="34" type="curve" smooth="yes"/>
      <point x="168" y="0"/>
      <point x="142" y="-13"/>
      <point x="125" y="-13" type="curve" smooth="yes"/>
      <point x="111" y="-13"/>
      <point x="101" y="3"/>
      <point x="101" y="27" type="curve" smooth="yes"/>
      <point x="101" y="52"/>
      <point x="101" y="52"/>
      <point x="148" y="227" type="curve" smooth="yes"/>
      <point x="163" y="284"/>
      <point x="166" y="298"/>
      <point x="166" y="311" type="curve" smooth="yes"/>
      <point x="166" y="323"/>
      <point x="162" y="329"/>
      <point x="154" y="329" type="curve" smooth="yes"/>
      <point x="145" y="329"/>
      <point x="140" y="327"/>
      <point x="81" y="295" type="curve"/>
      <point x="83" y="323" type="line"/>
      <point x="165" y="378"/>
      <point x="224" y="411"/>
      <point x="241" y="411" type="curve" smooth="yes"/>
      <point x="248" y="411"/>
      <point x="253" y="407"/>
      <point x="253" y="401" type="curve" smooth="yes"/>
      <point x="253" y="393"/>
      <point x="243" y="353"/>
      <point x="192" y="143" type="curve" smooth="yes"/>
      <point x="186" y="121"/>
      <point x="183" y="102"/>
      <point x="183" y="92" type="curve" smooth="yes"/>
      <point x="183" y="75"/>
      <point x="190" y="64"/>
      <point x="201" y="64" type="curve" smooth="yes"/>
      <point x="214" y="64"/>
      <point x="216" y="65"/>
    </contour>
    <contour>
      <point x="97" y="531" type="curve"/>
      <point x="84" y="549" type="line"/>
      <point x="133" y="615"/>
      <point x="157" y="635"/>
      <point x="189" y="635" type="curve" smooth="yes"/>
      <point x="209" y="635"/>
      <point x="219" y="632"/>
      <point x="257" y="610" type="curve" smooth="yes"/>
      <point x="279" y="598"/>
      <point x="302" y="590"/>
      <point x="315" y="590" type="curve" smooth="yes"/>
      <point x="330" y="590"/>
      <point x="354" y="599"/>
      <point x="368" y="609" type="curve" smooth="yes"/>
      <point x="376" y="615"/>
      <point x="378" y="617"/>
      <point x="404" y="641" type="curve"/>
      <point x="414" y="623" type="line"/>
      <point x="360" y="556"/>
      <point x="340" y="540"/>
      <point x="309" y="540" type="curve" smooth="yes"/>
      <point x="286" y="540"/>
      <point x="274" y="545"/>
      <point x="224" y="573" type="curve" smooth="yes"/>
      <point x="203" y="585"/>
      <point x="188" y="590"/>
      <point x="174" y="590" type="curve" smooth="yes"/>
      <point x="149" y="590"/>
      <point x="134" y="578"/>
    </contour>
  </outline>
</glyph>
<glyph name="Imacron" format="1">
  <advance width="380"/>
  <unicode hex="012A"/>
  <outline>
    <contour>
      <point x="81" y="0" type="curve"/>
      <point x="117" y="25" type="line"/>
      <point x="176" y="32" type="line"/>
      <point x="183" y="56"/>
      <point x="189" y="79"/>
      <point x="191" y="85" type="curve" smooth="yes"/>
      <point x="196" y="102"/>
      <point x="207" y="146"/>
      <point x="270" y="393" type="curve" smooth="yes"/>
      <point x="291" y="475" type="line" smooth="yes"/>
      <point x="292" y="480"/>
      <point x="298" y="505"/>
      <point x="306" y="542" type="curve"/>
      <point x="216" y="548" type="line"/>
      <point x="251" y="573" type="line"/>
      <point x="308" y="572"/>
      <point x="312" y="572"/>
      <point x="328" y="572" type="curve" smooth="yes"/>
      <point x="345" y="572"/>
      <point x="345" y="572"/>
      <point x="447" y="573" type="curve"/>
      <point x="481" y="573" type="line"/>
      <point x="446" y="548" type="line"/>
      <point x="388" y="542" type="line"/>
      <point x="341" y="370"/>
      <point x="278" y="120"/>
      <point x="259" y="32" type="curve"/>
      <point x="352" y="25" type="line"/>
      <point x="316" y="0" type="line"/>
      <point x="160" y="1" type="line" smooth="yes"/>
      <point x="146" y="1"/>
      <point x="146" y="1"/>
    </contour>
    <contour>
      <point x="216" y="681" type="line"/>
      <point x="225" y="690" type="line"/>
      <point x="237" y="705" type="line" smooth="yes"/>
      <point x="241" y="709"/>
      <point x="244" y="713"/>
      <point x="248" y="716" type="curve"/>
      <point x="249" y="718"/>
      <point x="254" y="723"/>
      <point x="259" y="729" type="curve"/>
      <point x="548" y="729" type="line"/>
      <point x="536" y="717"/>
      <point x="523" y="701"/>
      <point x="508" y="681" type="curve"/>
    </contour>
  </outline>
</glyph>
<glyph name="Ibreve" format="1">
  <advance width="380"/>
  <unicode hex="012C"/>
  <outline>
    <contour>
      <point x="81" y="0" type="curve"/>
      <point x="117" y="25" type="line"/>
      <point x="176" y="32" type="line"/>
      <point x="183" y="56"/>
      <point x="189" y="79"/>
      <point x="191" y="85" type="curve" smooth="yes"/>
      <point x="196" y="102"/>
      <point x="207" y="146"/>
      <point x="270" y="393" type="curve" smooth="yes"/>
      <point x="291" y="475" type="line" smooth="yes"/>
      <point x="292" y="480"/>
      <point x="298" y="505"/>
      <point x="306" y="542" type="curve"/>
      <point x="216" y="548" type="line"/>
      <point x="251" y="573" type="line"/>
      <point x="308" y="572"/>
      <point x="312" y="572"/>
      <point x="328" y="572" type="curve" smooth="yes"/>
      <point x="345" y="572"/>
      <point x="345" y="572"/>
      <point x="447" y="573" type="curve"/>
      <point x="481" y="573" type="line"/>
      <point x="446" y="548" type="line"/>
      <point x="388" y="542" type="line"/>
      <point x="341" y="370"/>
      <point x="278" y="120"/>
      <point x="259" y="32" type="curve"/>
      <point x="352" y="25" type="line"/>
      <point x="316" y="0" type="line"/>
      <point x="160" y="1" type="line" smooth="yes"/>
      <point x="146" y="1"/>
      <point x="146" y="1"/>
    </contour>
    <contour>
      <point x="250" y="814" type="curve"/>
      <point x="271" y="824" type="line"/>
      <point x="305" y="768"/>
      <point x="342" y="747"/>
      <point x="407" y="747" type="curve" smooth="yes"/>
      <point x="449" y="747"/>
      <point x="498" y="760"/>
      <point x="525" y="778" type="curve" smooth="yes"/>
      <point x="545" y="791"/>
      <point x="554" y="802"/>
      <point x="568" y="828" type="curve"/>
      <point x="583" y="818" type="line"/>
      <point x="558" y="744"/>
      <point x="482" y="693"/>
      <point x="395" y="693" type="curve" smooth="yes"/>
      <point x="345" y="693"/>
      <point x="300" y="717"/>
      <point x="274" y="757" type="curve" smooth="yes"/>
      <point x="264" y="773"/>
      <point x="258" y="787"/>
    </contour>
  </outline>
</glyph>
<glyph name="iogonek" format="1">
  <advance width="240"/>
  <unicode hex="012F"/>
  <outline>
    <contour>
      <point x="311" y="116" type="curve"/>
      <point x="307" y="87" type="line"/>
      <point x="272" y="66"/>
      <point x="225" y="34"/>
      <point x="203" y="16" type="curve" smooth="yes"/>
      <point x="123" y="-52"/>
      <point x="122" y="-53"/>
      <point x="122" y="-72" type="curve" smooth="yes"/>
      <point x="122" y="-90"/>
      <point x="140" y="-106"/>
      <point x="161" y="-106" type="curve" smooth="yes"/>
      <point x="177" y="-106"/>
      <point x="189" y="-99"/>
      <point x="210" y="-78" type="curve"/>
      <point x="223" y="-82" type="line"/>
      <point x="191" y="-130"/>
      <point x="157" y="-153"/>
      <point x="118" y="-153" type="curve" smooth="yes"/>
      <point x="86" y="-153"/>
      <point x="65" y="-132"/>
      <point x="65" y="-101" type="curve" smooth="yes"/>
      <point x="65" y="-68"/>
      <point x="83" y="-43"/>
      <point x="129" y="-13" type="curve"/>
      <point x="110" y="-13"/>
      <point x="101" y="0"/>
      <point x="101" y="27" type="curve" smooth="yes"/>
      <point x="101" y="52"/>
      <point x="101" y="52"/>
      <point x="148" y="227" type="curve" smooth="yes"/>
      <point x="163" y="284"/>
      <point x="166" y="298"/>
      <point x="166" y="311" type="curve" smooth="yes"/>
      <point x="166" y="323"/>
      <point x="162" y="329"/>
      <point x="154" y="329" type="curve" smooth="yes"/>
      <point x="145" y="329"/>
      <point x="141" y="327"/>
      <point x="81" y="295" type="curve"/>
      <point x="84" y="323" type="line"/>
      <point x="165" y="378"/>
      <point x="224" y="411"/>
      <point x="241" y="411" type="curve" smooth="yes"/>
      <point x="248" y="411"/>
      <point x="253" y="407"/>
      <point x="253" y="401" type="curve" smooth="yes"/>
      <point x="253" y="393"/>
      <point x="243" y="353"/>
      <point x="192" y="143" type="curve" smooth="yes"/>
      <point x="186" y="121"/>
      <point x="183" y="102"/>
      <point x="183" y="92" type="curve" smooth="yes"/>
      <point x="183" y="75"/>
      <point x="190" y="64"/>
      <point x="201" y="64" type="curve" smooth="yes"/>
      <point x="213" y="64"/>
      <point x="225" y="70"/>
      <point x="294" y="107" type="curve" smooth="yes"/>
      <point x="299" y="109"/>
      <point x="306" y="113"/>
    </contour>
    <contour>
      <point x="243" y="494" type="curve"/>
      <point x="220" y="526"/>
      <point x="211" y="542"/>
      <point x="205" y="564" type="curve"/>
      <point x="209" y="566"/>
      <point x="213" y="569"/>
      <point x="217" y="572" type="curve" smooth="yes"/>
      <point x="226" y="578"/>
      <point x="233" y="583"/>
      <point x="237" y="587" type="curve" smooth="yes"/>
      <point x="248" y="595"/>
      <point x="255" y="601"/>
      <point x="260" y="605" type="curve" smooth="yes"/>
      <point x="263" y="608"/>
      <point x="268" y="612"/>
      <point x="273" y="616" type="curve"/>
      <point x="276" y="611"/>
      <point x="277" y="607"/>
      <point x="279" y="603" type="curve" smooth="yes"/>
      <point x="288" y="584"/>
      <point x="288" y="583"/>
      <point x="295" y="571" type="curve" smooth="yes"/>
      <point x="296" y="568"/>
      <point x="301" y="560"/>
      <point x="308" y="548" type="curve"/>
      <point x="273" y="522"/>
      <point x="271" y="520"/>
    </contour>
  </outline>
</glyph>
<glyph name="dotlessi" format="1">
  <advance width="240"/>
  <unicode hex="0131"/>
  <outline>
    <contour>
      <point x="311" y="116" type="curve"/>
      <point x="304" y="88" type="line"/>
      <point x="295" y="82"/>
      <point x="287" y="77"/>
      <point x="277" y="71" type="curve" smooth="yes"/>
      <point x="258" y="58"/>
      <point x="239" y="46"/>
      <point x="220" y="34" type="curve" smooth="yes"/>
      <point x="168" y="0"/>
      <point x="142" y="-13"/>
      <point x="125" y="-13" type="curve" smooth="yes"/>
      <point x="111" y="-13"/>
      <point x="101" y="3"/>
      <point x="101" y="27" type="curve" smooth="yes"/>
      <point x="101" y="52"/>
      <point x="101" y="52"/>
      <point x="148" y="227" type="curve" smooth="yes"/>
      <point x="163" y="284"/>
      <point x="166" y="298"/>
      <point x="166" y="311" type="curve" smooth="yes"/>
      <point x="166" y="323"/>
      <point x="162" y="329"/>
      <point x="154" y="329" type="curve" smooth="yes"/>
      <point x="145" y="329"/>
      <point x="140" y="327"/>
      <point x="81" y="295" type="curve"/>
      <point x="83" y="323" type="line"/>
      <point x="165" y="378"/>
      <point x="224" y="411"/>
      <point x="241" y="411" type="curve" smooth="yes"/>
      <point x="248" y="411"/>
      <point x="253" y="407"/>
      <point x="253" y="401" type="curve" smooth="yes"/>
      <point x="253" y="393"/>
      <point x="243" y="353"/>
      <point x="192" y="143" type="curve" smooth="yes"/>
      <point x="186" y="121"/>
      <point x="183" y="102"/>
      <point x="183" y="92" type="curve" smooth="yes"/>
      <point x="183" y="75"/>
      <point x="190" y="64"/>
      <point x="201" y="64" type="curve" smooth="yes"/>
      <point x="214" y="64"/>
      <point x="216" y="65"/>
    </contour>
  </outline>
</glyph>
<glyph name="IJ" format="1">
  <advance width="596"/>
  <unicode hex="0132"/>
  <outline>
    <contour>
      <point x="464" y="342" type="curve"/>
      <point x="388" y="307" type="line"/>
      <point x="381" y="333"/>
      <point x="379" y="344"/>
      <point x="379" y="364" type="curve" smooth="yes"/>
      <point x="379" y="450"/>
      <point x="427" y="516"/>
      <point x="514" y="550" type="curve" smooth="yes"/>
      <point x="557" y="566"/>
      <point x="603" y="572"/>
      <point x="697" y="572" type="curve"/>
      <point x="664" y="543" type="line"/>
      <point x="572" y="174" type="line" smooth="yes"/>
      <point x="542" y="53"/>
      <point x="534" y="40"/>
      <point x="450" y="-27" type="curve" smooth="yes"/>
      <point x="356" y="-101"/>
      <point x="313" y="-122"/>
      <point x="251" y="-122" type="curve" smooth="yes"/>
      <point x="235" y="-122"/>
      <point x="226" y="-121"/>
      <point x="207" y="-117" type="curve"/>
      <point x="247" y="-50" type="line"/>
      <point x="279" y="-58"/>
      <point x="294" y="-60"/>
      <point x="314" y="-60" type="curve" smooth="yes"/>
      <point x="363" y="-60"/>
      <point x="402" y="-41"/>
      <point x="430" y="-4" type="curve" smooth="yes"/>
      <point x="445" y="15"/>
      <point x="460" y="48"/>
      <point x="472" y="86" type="curve" smooth="yes"/>
      <point x="475" y="94"/>
      <point x="475" y="94"/>
      <point x="506" y="208" type="curve"/>
      <point x="518" y="248" type="line"/>
      <point x="513" y="262"/>
      <point x="509" y="267"/>
      <point x="494" y="277" type="curve"/>
      <point x="512" y="295"/>
      <point x="515" y="298"/>
      <point x="534" y="314" type="curve"/>
      <point x="589" y="534" type="line"/>
      <point x="574" y="534" type="line" smooth="yes"/>
      <point x="497" y="534"/>
      <point x="456" y="492"/>
      <point x="456" y="414" type="curve" smooth="yes"/>
      <point x="456" y="392"/>
      <point x="458" y="376"/>
    </contour>
    <contour>
      <point x="81" y="0" type="curve"/>
      <point x="117" y="25" type="line"/>
      <point x="176" y="32" type="line"/>
      <point x="183" y="56"/>
      <point x="189" y="79"/>
      <point x="191" y="85" type="curve" smooth="yes"/>
      <point x="196" y="102"/>
      <point x="207" y="146"/>
      <point x="270" y="393" type="curve" smooth="yes"/>
      <point x="291" y="475" type="line" smooth="yes"/>
      <point x="292" y="480"/>
      <point x="298" y="505"/>
      <point x="306" y="542" type="curve"/>
      <point x="216" y="548" type="line"/>
      <point x="251" y="573" type="line"/>
      <point x="308" y="572"/>
      <point x="312" y="572"/>
      <point x="328" y="572" type="curve" smooth="yes"/>
      <point x="345" y="572"/>
      <point x="345" y="572"/>
      <point x="447" y="573" type="curve"/>
      <point x="481" y="573" type="line"/>
      <point x="446" y="548" type="line"/>
      <point x="388" y="542" type="line"/>
      <point x="341" y="370"/>
      <point x="278" y="120"/>
      <point x="259" y="32" type="curve"/>
      <point x="352" y="25" type="line"/>
      <point x="316" y="0" type="line"/>
      <point x="160" y="1" type="line" smooth="yes"/>
      <point x="146" y="1"/>
      <point x="146" y="1"/>
    </contour>
  </outline>
</glyph>
<glyph name="ij" format="1">
  <advance width="468"/>
  <unicode hex="0133"/>
  <outline>
    <contour>
      <point x="531" y="548" type="curve"/>
      <point x="511" y="533" type="line" smooth="yes"/>
      <point x="497" y="522"/>
      <point x="490" y="516"/>
      <point x="466" y="494" type="curve"/>
      <point x="446" y="522"/>
      <point x="435" y="542"/>
      <point x="428" y="564" type="curve"/>
      <point x="442" y="573"/>
      <point x="445" y="575"/>
      <point x="452" y="581" type="curve" smooth="yes"/>
      <point x="459" y="586"/>
      <point x="461" y="587"/>
      <point x="470" y="594" type="curve" smooth="yes"/>
      <point x="474" y="598"/>
      <point x="479" y="602"/>
      <point x="483" y="605" type="curve" smooth="yes"/>
      <point x="491" y="612" type="line"/>
      <point x="497" y="616" type="line"/>
      <point x="502" y="603" type="line"/>
      <point x="511" y="583" type="line" smooth="yes"/>
      <point x="513" y="580"/>
      <point x="517" y="573"/>
      <point x="523" y="563" type="curve" smooth="yes"/>
      <point x="524" y="560"/>
      <point x="527" y="554"/>
    </contour>
    <contour>
      <point x="95" y="-241" type="curve"/>
      <point x="142" y="-181" type="line"/>
      <point x="181" y="-185"/>
      <point x="183" y="-185"/>
      <point x="196" y="-185" type="curve" smooth="yes"/>
      <point x="265" y="-185"/>
      <point x="277" y="-161"/>
      <point x="344" y="105" type="curve" smooth="yes"/>
      <point x="367" y="196"/>
      <point x="391" y="304"/>
      <point x="391" y="317" type="curve" smooth="yes"/>
      <point x="391" y="323"/>
      <point x="385" y="329"/>
      <point x="379" y="329" type="curve" smooth="yes"/>
      <point x="372" y="329"/>
      <point x="366" y="326"/>
      <point x="343" y="313" type="curve" smooth="yes"/>
      <point x="328" y="304"/>
      <point x="323" y="302"/>
      <point x="308" y="294" type="curve"/>
      <point x="310" y="323" type="line"/>
      <point x="451" y="411"/>
      <point x="452" y="411"/>
      <point x="468" y="411" type="curve" smooth="yes"/>
      <point x="476" y="411"/>
      <point x="483" y="406"/>
      <point x="483" y="399" type="curve" smooth="yes"/>
      <point x="483" y="388"/>
      <point x="473" y="348"/>
      <point x="418" y="127" type="curve"/>
      <point x="363" y="-89"/>
      <point x="360" y="-96"/>
      <point x="269" y="-185" type="curve" smooth="yes"/>
      <point x="218" y="-234"/>
      <point x="193" y="-247"/>
      <point x="144" y="-247" type="curve" smooth="yes"/>
      <point x="126" y="-247"/>
      <point x="116" y="-246"/>
    </contour>
    <contour>
      <point x="242" y="494" type="curve"/>
      <point x="220" y="526"/>
      <point x="211" y="542"/>
      <point x="204" y="564" type="curve"/>
      <point x="208" y="566"/>
      <point x="212" y="569"/>
      <point x="216" y="572" type="curve" smooth="yes"/>
      <point x="225" y="578"/>
      <point x="232" y="583"/>
      <point x="237" y="587" type="curve" smooth="yes"/>
      <point x="247" y="595"/>
      <point x="255" y="601"/>
      <point x="259" y="605" type="curve" smooth="yes"/>
      <point x="262" y="608"/>
      <point x="268" y="612"/>
      <point x="273" y="616" type="curve"/>
      <point x="275" y="611"/>
      <point x="277" y="607"/>
      <point x="279" y="603" type="curve" smooth="yes"/>
      <point x="287" y="584"/>
      <point x="288" y="583"/>
      <point x="294" y="571" type="curve" smooth="yes"/>
      <point x="296" y="568"/>
      <point x="301" y="560"/>
      <point x="307" y="548" type="curve"/>
      <point x="273" y="522"/>
      <point x="271" y="520"/>
    </contour>
    <contour>
      <point x="311" y="116" type="curve"/>
      <point x="307" y="88" type="line"/>
      <point x="297" y="82"/>
      <point x="288" y="76"/>
      <point x="279" y="71" type="curve" smooth="yes"/>
      <point x="260" y="58"/>
      <point x="241" y="46"/>
      <point x="222" y="34" type="curve" smooth="yes"/>
      <point x="169" y="0"/>
      <point x="142" y="-13"/>
      <point x="125" y="-13" type="curve" smooth="yes"/>
      <point x="111" y="-13"/>
      <point x="101" y="3"/>
      <point x="101" y="27" type="curve" smooth="yes"/>
      <point x="101" y="52"/>
      <point x="101" y="52"/>
      <point x="148" y="227" type="curve" smooth="yes"/>
      <point x="163" y="284"/>
      <point x="166" y="298"/>
      <point x="166" y="311" type="curve" smooth="yes"/>
      <point x="166" y="323"/>
      <point x="162" y="329"/>
      <point x="154" y="329" type="curve" smooth="yes"/>
      <point x="145" y="329"/>
      <point x="140" y="327"/>
      <point x="81" y="295" type="curve"/>
      <point x="83" y="323" type="line"/>
      <point x="165" y="378"/>
      <point x="224" y="411"/>
      <point x="241" y="411" type="curve" smooth="yes"/>
      <point x="248" y="411"/>
      <point x="253" y="407"/>
      <point x="253" y="401" type="curve" smooth="yes"/>
      <point x="253" y="393"/>
      <point x="243" y="353"/>
      <point x="192" y="143" type="curve" smooth="yes"/>
      <point x="186" y="121"/>
      <point x="183" y="102"/>
      <point x="183" y="92" type="curve" smooth="yes"/>
      <point x="183" y="75"/>
      <point x="190" y="64"/>
      <point x="201" y="64" type="curve" smooth="yes"/>
      <point x="214" y="64"/>
      <point x="216" y="65"/>
    </contour>
  </outline>
</glyph>
<glyph name="Jcircumflex" format="1">
  <advance width="400"/>
  <unicode hex="0134"/>
  <outline>
    <contour>
      <point x="258" y="342" type="curve"/>
      <point x="182" y="307" type="line"/>
      <point x="175" y="333"/>
      <point x="173" y="344"/>
      <point x="173" y="364" type="curve" smooth="yes"/>
      <point x="173" y="450"/>
      <point x="221" y="516"/>
      <point x="308" y="550" type="curve" smooth="yes"/>
      <point x="351" y="566"/>
      <point x="397" y="572"/>
      <point x="491" y="572" type="curve"/>
      <point x="458" y="543" type="line"/>
      <point x="366" y="174" type="line" smooth="yes"/>
      <point x="336" y="53"/>
      <point x="328" y="40"/>
      <point x="244" y="-27" type="curve" smooth="yes"/>
      <point x="150" y="-101"/>
      <point x="107" y="-122"/>
      <point x="45" y="-122" type="curve" smooth="yes"/>
      <point x="29" y="-122"/>
      <point x="20" y="-121"/>
      <point x="1" y="-117" type="curve"/>
      <point x="41" y="-50" type="line"/>
      <point x="73" y="-58"/>
      <point x="88" y="-60"/>
      <point x="108" y="-60" type="curve" smooth="yes"/>
      <point x="157" y="-60"/>
      <point x="196" y="-41"/>
      <point x="224" y="-4" type="curve" smooth="yes"/>
      <point x="239" y="15"/>
      <point x="254" y="48"/>
      <point x="266" y="86" type="curve" smooth="yes"/>
      <point x="269" y="94"/>
      <point x="269" y="94"/>
      <point x="300" y="208" type="curve"/>
      <point x="312" y="248" type="line"/>
      <point x="307" y="262"/>
      <point x="303" y="267"/>
      <point x="288" y="277" type="curve"/>
      <point x="306" y="295"/>
      <point x="309" y="298"/>
      <point x="328" y="314" type="curve"/>
      <point x="383" y="534" type="line"/>
      <point x="368" y="534" type="line" smooth="yes"/>
      <point x="291" y="534"/>
      <point x="250" y="492"/>
      <point x="250" y="414" type="curve" smooth="yes"/>
      <point x="250" y="392"/>
      <point x="252" y="376"/>
    </contour>
    <contour>
      <point x="264" y="701" type="line"/>
      <point x="263" y="711" type="line" smooth="yes"/>
      <point x="263" y="712"/>
      <point x="262" y="716"/>
      <point x="261" y="720" type="curve"/>
      <point x="369" y="829"/>
      <point x="390" y="848"/>
      <point x="434" y="886" type="curve"/>
      <point x="442" y="887"/>
      <point x="446" y="888"/>
      <point x="448" y="888" type="curve" smooth="yes"/>
      <point x="451" y="888"/>
      <point x="456" y="887"/>
      <point x="461" y="886" type="curve"/>
      <point x="465" y="833"/>
      <point x="466" y="812"/>
      <point x="467" y="801" type="curve" smooth="yes"/>
      <point x="470" y="772"/>
      <point x="472" y="742"/>
      <point x="475" y="712" type="curve"/>
      <point x="462" y="706"/>
      <point x="458" y="703"/>
      <point x="439" y="692" type="curve"/>
      <point x="438" y="703"/>
      <point x="435" y="727"/>
      <point x="430" y="762" type="curve"/>
      <point x="419" y="826" type="line"/>
      <point x="386" y="800"/>
      <point x="371" y="788"/>
      <point x="346" y="766" type="curve" smooth="yes"/>
      <point x="265" y="692" type="line"/>
    </contour>
  </outline>
</glyph>
<glyph name="jcircumflex" format="1">
  <advance width="220"/>
  <unicode hex="0135"/>
  <outline>
    <contour>
      <point x="132" y="546" type="line"/>
      <point x="131" y="556" type="line" smooth="yes"/>
      <point x="131" y="557"/>
      <point x="130" y="561"/>
      <point x="129" y="565" type="curve"/>
      <point x="237" y="674"/>
      <point x="258" y="693"/>
      <point x="302" y="731" type="curve"/>
      <point x="310" y="732"/>
      <point x="314" y="733"/>
      <point x="316" y="733" type="curve" smooth="yes"/>
      <point x="319" y="733"/>
      <point x="324" y="732"/>
      <point x="329" y="731" type="curve"/>
      <point x="333" y="678"/>
      <point x="334" y="657"/>
      <point x="335" y="646" type="curve" smooth="yes"/>
      <point x="338" y="617"/>
      <point x="340" y="587"/>
      <point x="343" y="557" type="curve"/>
      <point x="330" y="551"/>
      <point x="326" y="548"/>
      <point x="307" y="537" type="curve"/>
      <point x="306" y="548"/>
      <point x="303" y="572"/>
      <point x="298" y="607" type="curve"/>
      <point x="287" y="671" type="line"/>
      <point x="254" y="645"/>
      <point x="239" y="633"/>
      <point x="214" y="611" type="curve" smooth="yes"/>
      <point x="133" y="537" type="line"/>
    </contour>
    <contour>
      <point x="-133" y="-241" type="curve"/>
      <point x="-86" y="-181" type="line"/>
      <point x="-47" y="-185"/>
      <point x="-45" y="-185"/>
      <point x="-32" y="-185" type="curve" smooth="yes"/>
      <point x="37" y="-185"/>
      <point x="49" y="-161"/>
      <point x="116" y="105" type="curve" smooth="yes"/>
      <point x="139" y="196"/>
      <point x="163" y="304"/>
      <point x="163" y="317" type="curve" smooth="yes"/>
      <point x="163" y="323"/>
      <point x="157" y="329"/>
      <point x="151" y="329" type="curve" smooth="yes"/>
      <point x="144" y="329"/>
      <point x="138" y="326"/>
      <point x="115" y="313" type="curve" smooth="yes"/>
      <point x="100" y="304"/>
      <point x="95" y="302"/>
      <point x="80" y="294" type="curve"/>
      <point x="82" y="323" type="line"/>
      <point x="223" y="411"/>
      <point x="224" y="411"/>
      <point x="240" y="411" type="curve" smooth="yes"/>
      <point x="248" y="411"/>
      <point x="255" y="406"/>
      <point x="255" y="399" type="curve" smooth="yes"/>
      <point x="255" y="388"/>
      <point x="245" y="348"/>
      <point x="190" y="127" type="curve"/>
      <point x="135" y="-89"/>
      <point x="132" y="-96"/>
      <point x="41" y="-185" type="curve" smooth="yes"/>
      <point x="-10" y="-234"/>
      <point x="-35" y="-247"/>
      <point x="-84" y="-247" type="curve" smooth="yes"/>
      <point x="-102" y="-247"/>
      <point x="-112" y="-246"/>
    </contour>
  </outline>
</glyph>
